<?xml version="1.0" encoding="UTF-8"?>
<svg id="logosandtypes_com" data-name="logosandtypes com" xmlns="http://www.w3.org/2000/svg" viewBox="0 0 150 150">
  <defs>
    <style>
      .cls-1 {
        fill: #00a9e0;
        fill-rule: evenodd;
      }

      .cls-2 {
        fill: none;
      }
    </style>
  </defs>
  <g id="Layer_2" data-name="Layer 2">
    <path id="Layer_3" data-name="Layer 3" class="cls-2" d="M0,0H150V150H0V0Z"/>
  </g>
  <g>
    <path class="cls-1" d="M66.94,17.79L14.87,123.16h22.7L76.75,44.08l39.18,79.08h22.47L86.78,18.15c-1.95-3.9-5.86-6.36-10.21-6.36-4.09,0-7.85,2.32-9.62,5.99Z"/>
    <path class="cls-1" d="M95.14,107.41h-13.39s-.23-.14-.18-.23l2.59-28.6c0-.23-.23-.36-.41-.14l-28.87,37.77s0,.36,.18,.36h13.39s.23,.14,.23,.23l-2.59,28.65s.27,.32,.41,.14l28.87-37.77s0-.36-.18-.36l-.05-.05Z"/>
  </g>
</svg>