<?xml version="1.0" encoding="UTF-8"?>
<svg version="1.1" xmlns="http://www.w3.org/2000/svg" width="512" height="512">
<path d="M0 0 C1.09223877 0.41958984 1.09223877 0.41958984 2.20654297 0.84765625 C22.85630377 8.98601367 44.8235759 23.6471518 55 44 C54.28457031 44.51046875 53.56914062 45.0209375 52.83203125 45.546875 C26.13304722 65.0271169 7.55013537 89.97530933 1.4375 123.04296875 C-0.27488576 138.53088635 -0.10810187 154.91478382 4 170 C4.32871094 171.22074219 4.65742188 172.44148437 4.99609375 173.69921875 C9.83314494 189.71672043 18.09584456 203.41199447 29 216 C29.96486328 217.11761719 29.96486328 217.11761719 30.94921875 218.2578125 C41.09666927 229.13165319 54.78460379 237.43515791 68 244 C66.67002919 250.88784882 64.59068949 257.04192997 61.875 263.5 C61.47249023 264.46486328 61.06998047 265.42972656 60.65527344 266.42382812 C59.45041361 269.28856958 58.22953024 272.14576993 57 275 C56.67225586 275.76441406 56.34451172 276.52882813 56.00683594 277.31640625 C47.66888058 296.5211136 36.4141615 314.19726465 24 331 C23.58766113 331.56396484 23.17532227 332.12792969 22.75048828 332.70898438 C7.09416737 354.11779268 -10.17884183 375.45403808 -37.62890625 380.53515625 C-55.60085734 383.01332795 -71.70386878 377.63855618 -88.0703125 370.93359375 C-88.93253418 370.58184082 -89.79475586 370.23008789 -90.68310547 369.86767578 C-92.32987529 369.19073654 -93.97257689 368.50376396 -95.60986328 367.80419922 C-122.7357132 356.55027815 -150.1067047 361.35616011 -176.25 372.0625 C-177.51942154 372.59696358 -178.78815499 373.13306475 -180.05615234 373.67089844 C-191.35625361 378.42759406 -202.23408212 381.58668619 -214.5625 381.4375 C-215.46798584 381.42920166 -216.37347168 381.42090332 -217.30639648 381.41235352 C-224.4558911 381.23235101 -230.52235673 380.16328061 -237 377 C-238.45019531 376.30583984 -238.45019531 376.30583984 -239.9296875 375.59765625 C-247.90514329 371.36134272 -254.16067909 365.69276354 -260.54833984 359.41650391 C-261.79848038 358.19663923 -263.07826233 357.00728576 -264.36328125 355.82421875 C-271.90063521 348.72780688 -277.89557777 340.31797493 -284 332 C-284.78044678 330.93869873 -284.78044678 330.93869873 -285.57666016 329.85595703 C-323.91141896 277.4151764 -348.19230243 213.14188026 -348.25 147.75 C-348.25067474 147.05434937 -348.25134949 146.35869873 -348.25204468 145.64196777 C-348.18571606 102.19238072 -336.09498805 62.00399848 -306 30 C-305.4740625 29.40960938 -304.948125 28.81921875 -304.40625 28.2109375 C-286.2144963 8.62695775 -257.25412088 -4.42305946 -230.79223633 -6.2175293 C-207.31378771 -7.066992 -189.06408672 -1.93389908 -167.4296875 6.24609375 C-140.4831111 16.3532968 -126.1282422 13.98029498 -99.65362549 3.76333618 C-89.56562528 -0.1251217 -79.53742643 -3.55718249 -69 -6 C-67.99324219 -6.24234375 -66.98648437 -6.4846875 -65.94921875 -6.734375 C-44.53149939 -11.11863844 -20.25051186 -7.78151458 0 0 Z " fill="#000000" transform="translate(396,131)"/>
<path d="M0 0 C1.07422898 32.4499786 -6.75328847 58.88630007 -28 84 C-28.51691406 84.66257812 -29.03382813 85.32515625 -29.56640625 86.0078125 C-43.84641296 103.68782081 -66.87944794 115.49640072 -89.125 118.73046875 C-93.75641407 119.16466382 -98.354512 119.16460391 -103 119 C-108.12786286 96.35535762 -98.45599457 71.86588812 -87.0234375 52.68359375 C-82.64173959 45.84919242 -77.61303076 39.85188314 -72 34 C-71.175 33.13375 -70.35 32.2675 -69.5 31.375 C-68.675 30.59125 -67.85 29.8075 -67 29 C-66.36835938 28.39671875 -65.73671875 27.7934375 -65.0859375 27.171875 C-50.98848088 14.1205194 -33.42754321 5.8958011 -15 1 C-14.23042969 0.79246094 -13.46085937 0.58492188 -12.66796875 0.37109375 C-8.45671227 -0.21465935 -4.24453099 -0.07417627 0 0 Z " fill="#000000" transform="translate(358,0)"/>
</svg>
