<?xml version="1.0" encoding="UTF-8"?>
<svg version="1.1" xmlns="http://www.w3.org/2000/svg" width="1500" height="667">
<path d="M0 0 C0.95552765 -0.00379669 1.9110553 -0.00759338 2.89553833 -0.01150513 C6.03283222 -0.01887384 9.16918586 0.00241915 12.30639648 0.02490234 C14.49779654 0.0272889 16.68919868 0.02819164 18.88059998 0.02767944 C23.4643136 0.03080109 28.04771305 0.04731867 32.63134766 0.07421875 C38.49784308 0.10821739 44.36399409 0.11584629 50.23057652 0.11432838 C54.75253061 0.11487298 59.27440988 0.12585419 63.79633904 0.14033127 C65.95922213 0.14668119 68.12211367 0.15063393 70.28500557 0.15211868 C73.3099414 0.15646972 76.33451702 0.17400911 79.359375 0.1953125 C80.69135674 0.19395294 80.69135674 0.19395294 82.05024719 0.19256592 C90.89229161 0.28332004 97.65023537 2.16162312 104.11499023 8.48583984 C110.11972772 16.52666647 109.38563909 26.77958395 108.44311523 36.27880859 C108.36102814 37.17944031 108.27894104 38.08007202 108.19436646 39.00799561 C107.92783815 41.89747467 107.64701707 44.78533588 107.36499023 47.67333984 C107.1766563 49.6707845 106.98866943 51.6682619 106.80102539 53.66577148 C105.6891913 65.34648731 104.39382255 76.98255583 102.76342773 88.60302734 C102.05334478 93.73826493 101.57292736 98.88536062 101.11499023 104.04833984 C100.39171698 112.18172348 99.36864729 120.24242628 98.22045898 128.32592773 C97.37286621 134.36984215 96.68357856 140.40965438 96.11499023 146.48583984 C95.36627797 154.47421899 94.34106199 162.40113811 93.22045898 170.34521484 C92.40057727 176.21689295 91.70138476 182.08648734 91.11499023 187.98583984 C90.33916369 195.78437593 89.31140673 203.53206041 88.22045898 211.29223633 C87.39934382 217.20229568 86.7027063 223.11078888 86.11499023 229.04833984 C85.36842375 236.5843907 84.33954729 244.05502374 83.22485352 251.54467773 C82.18297554 258.67921922 81.41326095 265.82307881 80.76147461 273.00317383 C80.65416016 274.17021851 80.65416016 274.17021851 80.54467773 275.36083984 C80.45549072 276.37791016 80.45549072 276.37791016 80.36450195 277.41552734 C80.07813737 279.7916249 79.58435332 282.13902444 79.11499023 284.48583984 C57.66499023 284.48583984 36.21499023 284.48583984 14.11499023 284.48583984 C15.24022743 269.85775635 15.24022743 269.85775635 15.91186523 264.40380859 C16.06324951 263.1636499 16.21463379 261.92349121 16.37060547 260.64575195 C16.5353143 259.32160387 16.70011208 257.99746685 16.86499023 256.67333984 C17.0410623 255.24180634 17.21691858 253.81024629 17.39257812 252.37866211 C17.96213786 247.74714953 18.53823804 243.11646138 19.11499023 238.48583984 C19.3134124 236.89013886 19.51181725 235.29443572 19.71020508 233.69873047 C20.85204415 224.52017225 22.00044051 215.34244243 23.15188599 206.16508484 C24.2051469 197.76999339 25.25454477 189.37442097 26.30349731 180.97879028 C26.82382922 176.81445275 27.34442313 172.65014798 27.86499023 168.48583984 C28.07332482 166.81917333 28.28165815 165.15250667 28.48999023 163.48583984 C28.9066569 160.15250651 29.32332357 156.81917318 29.73999023 153.48583984 C29.84310516 152.66091034 29.94622009 151.83598083 30.05245972 150.98605347 C30.26088476 149.31867347 30.46931983 147.65129473 30.67776489 145.98391724 C31.19727707 141.82817469 31.71661748 137.67241082 32.2355957 133.51660156 C33.29829098 125.00846081 34.36420242 116.50073928 35.43530273 107.99365234 C38.23511939 85.7463411 38.23511939 85.7463411 40.92749023 63.48583984 C41.11335693 61.95660889 41.11335693 61.95660889 41.30297852 60.39648438 C42.85443906 51.20795585 42.85443906 51.20795585 40.98999023 42.54833984 C38.26981594 41.00690775 36.24787047 40.60869789 33.11499023 40.48583984 C28.4064368 42.36054167 26.01123371 44.38459414 23.17749023 48.54833984 C22.49557617 49.53318359 21.81366211 50.51802734 21.11108398 51.53271484 C20.45237305 52.50724609 19.79366211 53.48177734 19.11499023 54.48583984 C17.99241796 56.09170633 16.86750625 57.69594061 15.73999023 59.29833984 C15.16635742 60.12205078 14.59272461 60.94576172 14.00170898 61.79443359 C11.87265834 64.83152654 9.71382438 67.84671091 7.55249023 70.86083984 C3.40850817 76.64568437 -0.68328592 82.4659344 -4.76000977 88.29833984 C-13.93549703 101.4210273 -13.93549703 101.4210273 -18.51000977 107.92333984 C-18.99453613 108.61468018 -19.4790625 109.30602051 -19.97827148 110.01831055 C-21.93340019 112.79365473 -23.89930359 115.5035382 -26.03344727 118.14599609 C-27.8939163 120.49709515 -29.37235184 122.90086646 -30.88500977 125.48583984 C-35.08808291 131.72128506 -39.53750867 137.78699925 -43.99047852 143.84521484 C-46.02541466 146.68153821 -47.95475133 149.57755375 -49.88500977 152.48583984 C-48.71333252 152.45554687 -47.54165527 152.42525391 -46.33447266 152.39404297 C-24.8492877 151.84340718 -3.37904861 151.29487602 18.11499023 151.48583984 C18.11499023 156.43583984 18.11499023 161.38583984 18.11499023 166.48583984 C16.71249023 166.80037109 15.30999023 167.11490234 13.86499023 167.43896484 C5.11309227 169.41032928 -3.63209376 171.38196499 -12.32250977 173.61083984 C-18.30269794 175.13664917 -24.30696961 176.39749766 -30.36547852 177.57177734 C-36.43529126 178.77521338 -42.4704682 180.14024463 -48.51000977 181.48583984 C-49.62996338 181.7351123 -50.74991699 181.98438477 -51.90380859 182.24121094 C-54.11763142 182.73583841 -56.32998363 183.23709663 -58.54077148 183.74511719 C-60.8361239 184.25351982 -63.14092141 184.72051738 -65.4519043 185.15234375 C-72.17009307 186.39224783 -72.17009307 186.39224783 -77.79907227 190.00927734 C-78.36368164 190.95029297 -78.92829102 191.89130859 -79.51000977 192.86083984 C-80.10040039 193.79669922 -80.69079102 194.73255859 -81.29907227 195.69677734 C-81.82243164 196.61716797 -82.34579102 197.53755859 -82.88500977 198.48583984 C-87.68549042 206.62308871 -93.36721385 214.16565384 -98.93188477 221.79052734 C-101.27859532 225.02898791 -103.57157028 228.30209337 -105.85766602 231.58349609 C-108.41686812 235.24724786 -110.99425927 238.89797816 -113.57250977 242.54833984 C-114.08579834 243.27545166 -114.59908691 244.00256348 -115.12792969 244.75170898 C-117.72910616 248.43587024 -120.3325264 252.11841805 -122.93969727 255.79833984 C-123.44412354 256.51111084 -123.9485498 257.22388184 -124.46826172 257.95825195 C-125.39819842 259.27219619 -126.32891119 260.58559186 -127.26074219 261.89819336 C-127.70522705 262.52653076 -128.14971191 263.15486816 -128.60766602 263.80224609 C-129.13142822 264.47787598 -129.65519043 265.15350586 -130.19482422 265.84960938 C-131.67566542 268.15931952 -132.45797462 269.99082746 -133.36230469 272.54003906 C-135.53063648 277.74081954 -137.87606787 281.6563661 -142.88500977 284.48583984 C-154.41175764 287.12302281 -166.6814159 286.06427805 -178.4074707 285.58447266 C-182.85776167 285.41976786 -187.30949261 285.34751051 -191.76196289 285.26708984 C-200.47363536 285.09629267 -209.1782284 284.82386123 -217.88500977 284.48583984 C-217.17012978 281.35327351 -216.28656535 279.34835362 -214.36547852 276.75537109 C-213.8436499 276.04324463 -213.32182129 275.33111816 -212.78417969 274.59741211 C-212.21932861 273.83871826 -211.65447754 273.08002441 -211.07250977 272.29833984 C-209.88414105 270.67918541 -208.69666195 269.05937772 -207.51000977 267.43896484 C-206.6031543 266.20436523 -206.6031543 266.20436523 -205.67797852 264.94482422 C-202.93108095 261.17756492 -200.25050699 257.36473422 -197.57250977 253.54833984 C-193.07077624 247.14883813 -188.50957722 240.79735644 -183.88500977 234.48583984 C-179.38570577 228.33301987 -174.92780599 222.16377278 -170.62329102 215.87255859 C-168.50137473 212.95909601 -166.21452389 210.23601581 -163.88500977 207.48583984 C-167.82383023 208.2500209 -171.7607873 209.02342944 -175.69750977 209.79833984 C-176.79772461 210.01167969 -177.89793945 210.22501953 -179.03149414 210.44482422 C-185.23849925 211.67157744 -191.33236869 213.06845464 -197.41137695 214.82641602 C-200.9263574 215.76344347 -204.48092166 216.34317747 -208.06469727 216.95068359 C-211.06916083 217.52078264 -213.99161616 218.26589742 -216.94750977 219.04833984 C-222.24805865 220.42024661 -227.42710314 221.13566442 -232.88500977 221.48583984 C-232.3511392 217.41418703 -231.24984552 215.31782469 -228.57250977 212.23583984 C-224.87958409 207.79381536 -221.50172177 203.21786442 -218.19750977 198.48583984 C-211.85249083 189.41805027 -205.38419361 180.44358211 -198.88500977 171.48583984 C-198.24160645 170.59832031 -198.24160645 170.59832031 -197.58520508 169.69287109 C-195.35715015 166.61994358 -193.12867457 163.54739231 -190.88500977 160.48583984 C-190.55927979 159.79304932 -190.2335498 159.10025879 -189.89794922 158.38647461 C-186.53593594 155.21203272 -182.54157709 155.90259248 -178.09204102 155.91162109 C-177.11321457 155.89745651 -176.13438812 155.88329193 -175.12590027 155.86869812 C-171.98299444 155.82672824 -168.84065614 155.81158378 -165.69750977 155.79833984 C-163.63043366 155.77874901 -161.56337441 155.75728466 -159.49633789 155.73388672 C-157.98126144 155.71710373 -157.98126144 155.71710373 -156.43557739 155.69998169 C-152.48699746 155.65000872 -148.53881333 155.58053639 -144.59051514 155.512146 C-142.08508929 155.48778526 -139.58762538 155.52131652 -137.08276367 155.5703125 C-129.86911492 155.68911888 -129.86911492 155.68911888 -123.50341797 152.70385742 C-121.54371384 150.31549182 -120.09052458 147.95841438 -118.63500977 145.23583984 C-117.6097041 143.52185769 -116.58368225 141.80830371 -115.55688477 140.09521484 C-115.09628662 139.28608643 -114.63568848 138.47695801 -114.16113281 137.64331055 C-112.6250757 135.04638369 -110.83491866 132.7843811 -108.88500977 130.48583984 C-104.35685906 124.40784786 -99.98620025 118.22028036 -95.65454102 112.00146484 C-93.15845465 108.45294471 -90.59694881 104.95354625 -88.03735352 101.45068359 C-86.13175505 98.82573035 -84.24794083 96.18649269 -82.37133789 93.54077148 C-78.36085465 87.88855607 -74.26314225 82.3183105 -70.07250977 76.79833984 C-65.01721635 70.12986356 -60.28494387 63.27499309 -55.60058594 56.3425293 C-51.7670944 50.69767711 -47.71940726 45.31943404 -43.50219727 39.95458984 C-39.54750624 34.81380119 -35.969761 29.39779962 -32.34985352 24.01904297 C-29.66503852 20.03822468 -26.92419992 16.20851599 -23.88500977 12.48583984 C-22.52567017 10.4804405 -21.16903087 8.47508881 -19.83813477 6.45068359 C-14.18254856 0.76116387 -7.70247829 -0.09771085 0 0 Z " fill="#14120E" transform="translate(305.885009765625,182.51416015625)"/>
<path d="M0 0 C17.28869971 -0.72036249 32.25234907 0.27884284 45.609375 12.46875 C51.34879962 18.54578783 52.49581475 26.73796823 52.3125 34.75 C52.29775635 36.02520508 52.29775635 36.02520508 52.28271484 37.32617188 C52.09503513 47.2118061 51.30738614 57.06534659 50.5703125 66.921875 C50.14602937 72.70075501 49.79431677 78.47913939 49.4921875 84.265625 C49.42996506 85.44789673 49.42996506 85.44789673 49.3664856 86.65405273 C49.20382425 89.765503 49.04224346 92.87695265 48.8916626 95.98901367 C48.85667664 96.7112915 48.82169067 97.43356934 48.78564453 98.17773438 C48.75600616 98.80401733 48.7263678 99.43030029 48.6958313 100.07556152 C48.32548107 106.7664483 47.78031554 113.38211027 46.96484375 120.03222656 C46.87199097 120.80462677 46.77913818 121.57702698 46.68347168 122.37283325 C46.45766597 124.24879953 46.22912656 126.12443643 46 128 C58.4919709 127.96189788 70.98364315 127.90246986 83.47537899 127.81609726 C89.27632182 127.77665141 95.0771135 127.74444858 100.87817383 127.72900391 C106.48046626 127.71381852 112.08234308 127.6793389 117.68445015 127.63169098 C119.81773827 127.6168967 121.95108573 127.60896011 124.08442497 127.60811615 C127.08138801 127.60573892 130.07720949 127.57859766 133.07397461 127.54589844 C133.94863876 127.5509288 134.82330292 127.55595917 135.72447205 127.56114197 C141.2142362 127.46895861 145.19801259 126.37506541 150.08724308 123.85580826 C152 123 152 123 155 123 C155 122.34 155 121.68 155 121 C156.5390625 119.7734375 156.5390625 119.7734375 158.625 118.375 C171.48181107 108.98748716 176.22308632 93.0214257 179 78 C180.49372016 67.7640368 178.90478534 59.5578571 173 51 C171.07563859 48.6679349 169.66017676 47.6881891 167 46 C166.4080484 45.58079788 165.8160968 45.16159576 165.20620728 44.72969055 C156.42511743 39.34926959 146.71307716 40.26938319 136.7734375 40.29296875 C134.81473259 40.27983759 132.85604118 40.26452904 130.89736938 40.24714661 C125.7714721 40.20744969 120.6459303 40.19711604 115.51989746 40.19311523 C110.27747926 40.18375486 105.03526741 40.1463232 99.79296875 40.11132812 C89.52865535 40.04690823 79.2644979 40.01354029 69 40 C68.87196123 26.62706162 69.20468835 13.34987408 70 0 C81.62306714 -0.09309684 93.24604408 -0.16396518 104.86940956 -0.20724869 C110.26789237 -0.22803326 115.66611817 -0.25618232 121.06445312 -0.30175781 C126.28404607 -0.34554341 131.5033934 -0.36920558 136.72315598 -0.37950897 C138.70446 -0.38684206 140.68575213 -0.40116009 142.66695023 -0.42292023 C164.88203362 -0.65698649 183.33137083 4.3923556 200 20 C214.54941246 34.36004917 219.22916252 53.66325679 219.4050293 73.34790039 C219.42635759 75.13097804 219.46014979 76.91395858 219.50756836 78.6965332 C220.068029 100.01996636 214.42070631 118.22411711 201 135 C200.38125 135.8146875 199.7625 136.629375 199.125 137.46875 C194.86170526 142.99771037 190.47230091 147.67173412 185 152 C184.11570312 152.70898438 183.23140625 153.41796875 182.3203125 154.1484375 C174.90785474 159.90931316 167.21857562 164.48992384 159 169 C156.66177576 170.32497446 154.33071861 171.66183076 152 173 C156.03389886 181.16672167 160.12724234 189.28774211 164.4375 197.3125 C168.07361642 204.10336684 171.42482696 211.00043794 174.69287109 217.97485352 C179.50126499 228.23227121 184.54327845 238.35055865 189.9375 248.3125 C194.27260054 256.32312881 198.1159914 264.55507236 201.95507812 272.81201172 C203.32100328 275.67215688 204.78615823 278.47741124 206.27441406 281.27563477 C207 283 207 283 207 286 C188.52 286 170.04 286 151 286 C149.35 282.7 147.7 279.4 146 276 C144.40390658 272.95362268 142.80117223 269.91197102 141.1875 266.875 C138.09715471 261.03297739 135.05603503 255.17356569 132.125 249.25 C128.34331151 241.60842838 124.3914685 234.0592718 120.43115234 226.5090332 C117.46880153 220.85052063 114.56956132 215.16833303 111.75 209.4375 C108.77094931 203.38663868 105.51681643 197.55708154 102.0546875 191.76953125 C99.08680579 186.3246532 96.59866821 180.63044779 94 175 C77.17 175 60.34 175 43 175 C40.62711271 189.48966906 40.62711271 189.48966906 39 204 C38.32727832 211.41529404 37.32453535 218.72038887 36.10546875 226.06420898 C35.25702388 231.21968996 34.56894054 236.36910949 34 241.5625 C33.26661109 248.21349838 32.25170882 254.78503405 31.10986328 261.37744141 C30.04174407 267.58613947 29.19857276 273.80634259 28.4296875 280.05859375 C28 283 28 283 27 286 C7.2 286 -12.6 286 -33 286 C-31.84926273 268.73894096 -31.84926273 268.73894096 -31.09765625 262.1875 C-31.01503036 261.4452417 -30.93240448 260.7029834 -30.84727478 259.93823242 C-30.6749052 258.39581921 -30.50097005 256.85358012 -30.32543945 255.31152344 C-30.06276879 253.00236296 -29.80539612 250.69265821 -29.54882812 248.3828125 C-28.74983885 241.24527941 -27.89792733 234.12058077 -26.9296875 227.00390625 C-26.15770014 221.32150492 -25.54673317 215.65052022 -25.0625 209.9375 C-24.3205957 201.66101021 -23.27745973 193.45762289 -22.10571289 185.23217773 C-21.23277934 178.99827564 -20.55459882 172.7697867 -20 166.5 C-19.28065311 158.36772239 -18.25671349 150.31197886 -17.10546875 142.23046875 C-16.23262612 135.99713802 -15.55454784 129.76921037 -15 123.5 C-14.36301541 116.2988352 -13.51945481 109.15700178 -12.5 102 C-11.36139532 94.00087935 -10.48410041 86.01427065 -9.76953125 77.96704102 C-9.0850063 70.45339777 -8.11500697 62.99182452 -7.10546875 55.51586914 C-6.28204818 49.3521711 -5.58419435 43.19072546 -5 37 C-4.28670386 29.48025667 -3.41025259 21.99066489 -2.4375 14.5 C-2.31052734 13.51386719 -2.18355469 12.52773437 -2.05273438 11.51171875 C-1.93091797 10.59003906 -1.80910156 9.66835937 -1.68359375 8.71875 C-1.57587646 7.90341797 -1.46815918 7.08808594 -1.35717773 6.24804688 C-1.01935592 4.12182457 -0.55737387 2.07832306 0 0 Z " fill="#13110C" transform="translate(1198,181)"/>
<path d="M0 0 C6.26551148 -0.00035378 12.53096919 -0.01213403 18.79646343 -0.02593428 C24.95314911 -0.03899773 31.1098104 -0.04437598 37.26650983 -0.04373521 C40.8937757 -0.04348261 44.52097342 -0.04620907 48.14822495 -0.05691326 C52.13250041 -0.06838097 56.11666965 -0.06385557 60.10095894 -0.0578078 C61.85741738 -0.06623706 61.85741738 -0.06623706 63.64935982 -0.07483661 C69.36434116 -0.05272411 74.22133791 0.23216867 79.61145699 2.18511212 C77.90568317 15.16906109 75.24582041 24.44045249 67.61145699 35.18511212 C67.02961899 36.28507016 67.02961899 36.28507016 66.43602669 37.40724957 C63.9664585 41.47082894 62.08776798 43.81210339 57.37082589 45.00389874 C53.10019306 45.30163751 48.90764614 45.30648057 44.63098824 45.22417462 C42.96616838 45.22582221 41.30134814 45.23187305 39.6365577 45.24190533 C35.96418535 45.25703215 32.29308104 45.24580212 28.62079537 45.21697247 C22.2853728 45.17300538 15.95203054 45.21977547 9.61682808 45.27788556 C7.33955648 45.29782989 5.06228393 45.31766496 2.78501046 45.33739483 C1.63836796 45.34736241 0.49172547 45.35732998 -0.68966377 45.36759961 C-6.56775031 45.41538471 -12.44590431 45.44902967 -18.32408988 45.48198712 C-19.50167428 45.48882393 -20.67925869 45.49566075 -21.89252746 45.50270474 C-27.95556042 45.537046 -34.01856292 45.56576053 -40.08165824 45.58647931 C-46.06483797 45.60743283 -52.04778848 45.64266937 -58.03083694 45.68723691 C-60.28136029 45.70130906 -62.53192362 45.71009927 -64.7824887 45.71329129 C-67.90443215 45.71820941 -71.02575878 45.74136792 -74.14757621 45.76860821 C-75.05604805 45.76560208 -75.96451988 45.76259594 -76.90052116 45.75949872 C-84.08291647 45.85238397 -90.4268464 47.04260819 -96.32604301 51.31011212 C-100.76078885 57.49187905 -100.76039638 64.12765343 -99.85729301 71.48589337 C-98.60917778 78.67295688 -96.3563518 83.82104478 -91.69323051 89.45854962 C-90.38854301 91.18511212 -90.38854301 91.18511212 -89.38854301 94.18511212 C-88.07974578 94.89874509 -86.74155352 95.55934476 -85.38854301 96.18511212 C-84.03385481 97.22024685 -82.70194616 98.28557201 -81.38854301 99.37261212 C-63.9651468 113.10099772 -41.66841704 121.55041317 -21.38854301 130.18511212 C-8.00094507 135.97094423 4.36513774 142.22676921 16.61145699 150.18511212 C17.44419137 150.71491681 18.27692574 151.24472149 19.13489449 151.79058087 C23.46110403 154.58608836 27.0501796 157.42598598 30.61145699 161.18511212 C31.37973824 161.76776837 32.14801949 162.35042462 32.93958199 162.95073712 C46.99325329 174.70322248 53.48140606 192.46882311 55.61145699 210.18511212 C57.05347074 229.43044945 51.85675434 250.98503971 39.54895699 266.02495587 C28.65015719 278.17623871 14.51348161 285.56999591 -1.89647567 286.54333508 C-6.9896256 286.72257016 -12.08018077 286.68122114 -17.17540824 286.63921368 C-19.11848255 286.6380828 -21.06155856 286.63872374 -23.00463188 286.6409837 C-28.23306897 286.6421224 -33.46113236 286.618751 -38.68948328 286.59068787 C-44.17069818 286.56553225 -49.65192345 286.56332112 -55.13318717 286.55858624 C-65.49193989 286.54619784 -75.85052197 286.51343261 -86.20919985 286.47318828 C-98.01099187 286.42834129 -109.81279243 286.40645112 -121.61464858 286.38640654 C-145.87270767 286.344696 -170.13061574 286.27442502 -194.38854301 286.18511212 C-196.80015505 274.82719733 -194.86369826 263.13663837 -188.77135551 253.17729962 C-186.53456782 249.95480888 -184.18012315 246.94504169 -181.38854301 244.18511212 C-180.65909477 243.33571057 -179.92964653 242.48630902 -179.17809379 241.61116803 C-174.08123135 237.44004646 -167.26176603 238.56013667 -161.03307426 238.66509259 C-159.56411845 238.67141899 -158.09515147 238.67549043 -156.62618339 238.67748272 C-153.46989087 238.68649239 -150.31425372 238.71120224 -147.15816581 238.74815762 C-142.16572016 238.80633334 -137.17351096 238.82830708 -132.18077934 238.84529889 C-123.38429462 238.87983407 -114.5882338 238.94484266 -105.79198539 239.01665509 C-92.5494687 239.12454594 -79.30683709 239.20899062 -66.06399524 239.26402593 C-61.10289619 239.28579597 -56.14225871 239.32367372 -51.18137443 239.37440097 C-48.09349205 239.40319262 -45.00562939 239.41964441 -41.91764534 239.43296826 C-40.48816657 239.44176382 -39.05870869 239.45577132 -37.62933815 239.47543728 C-35.67445471 239.50166544 -33.7193289 239.50742367 -31.76427543 239.51223004 C-30.67144752 239.52148951 -29.57861961 239.53074898 -28.4526757 239.54028904 C-23.74327599 238.99440207 -20.46863585 237.27842288 -17.15416801 233.92339337 C-12.69972136 227.01505907 -10.26019925 217.3656044 -11.38854301 209.18511212 C-13.67083908 201.673184 -19.84030228 194.69287499 -26.66979301 190.92729962 C-27.23698051 190.68237774 -27.80416801 190.43745587 -28.38854301 190.18511212 C-28.38854301 189.52511212 -28.38854301 188.86511212 -28.38854301 188.18511212 C-29.12073051 187.91440899 -29.85291801 187.64370587 -30.60729301 187.36479962 C-33.29409684 186.22517215 -35.46864419 184.93144433 -37.88854301 183.31011212 C-48.64756386 176.34667528 -59.85475115 169.77775652 -71.38854301 164.18511212 C-85.60857716 157.27823839 -99.18571025 148.90250548 -112.49352348 140.39067852 C-114.48290033 139.12508423 -116.48349634 137.87871496 -118.48619926 136.63433087 C-119.78719817 135.81827152 -121.08798794 135.00187862 -122.38854301 134.18511212 C-122.99496635 133.81104229 -123.60138969 133.43697247 -124.22618949 133.0515672 C-125.64895779 132.14951245 -127.02465037 131.17393428 -128.38854301 130.18511212 C-128.38854301 129.52511212 -128.38854301 128.86511212 -128.38854301 128.18511212 C-129.42881645 127.86606915 -129.42881645 127.86606915 -130.49010551 127.54058087 C-134.24705558 125.78362444 -136.79208073 123.34816303 -139.76354301 120.49761212 C-140.33717582 119.95668927 -140.91080863 119.41576642 -141.50182426 118.85845196 C-143.13896625 117.309014 -144.76570176 115.74950581 -146.38854301 114.18511212 C-147.12330863 113.47999493 -147.85807426 112.77487774 -148.61510551 112.04839337 C-154.13806078 106.634924 -158.84002515 101.11914172 -162.38854301 94.18511212 C-162.8874102 93.23507306 -163.38627738 92.28503399 -163.90026176 91.30620587 C-171.34812021 76.32032118 -172.00800752 60.2648875 -167.38854301 44.18511212 C-161.97283365 28.44769786 -153.17503942 16.36706358 -139.26354301 7.24761212 C-138.68982963 6.86975567 -138.11611625 6.49189923 -137.52501762 6.10259259 C-129.8444735 1.28838227 -122.94967613 0.8701032 -114.12218559 0.77764142 C-112.99830373 0.75873412 -111.87442188 0.73982682 -110.716483 0.72034657 C-106.96792095 0.66069443 -103.2193516 0.61574386 -99.47057426 0.57183087 C-97.4764207 0.54391412 -95.48226718 0.51599086 -93.48812145 0.48752028 C-62.3272615 0.04783402 -31.16343223 -0.00259769 0 0 Z " fill="#13110C" transform="translate(596.388543009758,180.814887881279)"/>
<path d="M0 0 C2.53859068 -0.00963961 5.07634663 -0.04071434 7.61474609 -0.07226562 C35.49934835 -0.25207125 65.43283712 5.84432957 86.57177734 25.24023438 C89.78411787 28.75673339 92.71410728 32.4318083 95.57177734 36.24023438 C96.42449219 37.37138672 96.42449219 37.37138672 97.29443359 38.52539062 C114.10766516 62.21871694 114.44222677 94.38585272 113.57177734 122.24023438 C113.51812012 123.98820312 113.51812012 123.98820312 113.46337891 125.77148438 C112.51023735 152.26464522 108.68417813 178.23337497 99.57177734 203.24023438 C99.15025391 204.43261719 98.72873047 205.625 98.29443359 206.85351562 C90.24803431 228.73046704 77.18163432 250.72454594 58.57177734 265.24023438 C57.91177734 265.24023438 57.25177734 265.24023438 56.57177734 265.24023438 C56.57177734 265.90023438 56.57177734 266.56023437 56.57177734 267.24023438 C54.89208984 268.52929688 54.89208984 268.52929688 52.69677734 269.86523438 C51.97748047 270.31125 51.25818359 270.75726563 50.51708984 271.21679688 C48.57177734 272.24023438 48.57177734 272.24023438 46.57177734 272.24023438 C46.57177734 272.90023438 46.57177734 273.56023437 46.57177734 274.24023438 C45.60240234 274.65273438 44.63302734 275.06523437 43.63427734 275.49023438 C40.09228814 277.00414912 36.58117456 278.58130585 33.07568359 280.17773438 C-2.79026199 295.39698118 -50.20790384 290.4951302 -85.80712891 276.95507812 C-91.98953866 274.28090645 -97.80144237 270.9333817 -103.42822266 267.24023438 C-104.17845703 266.75167969 -104.92869141 266.263125 -105.70166016 265.75976562 C-121.89229276 254.25589509 -129.1277079 236.15188968 -132.42822266 217.24023438 C-133.27308248 209.72435538 -133.27300134 202.1698581 -133.30322266 194.61523438 C-133.3258451 192.56745316 -133.34945576 190.51968263 -133.37402344 188.47192383 C-133.43218272 182.72779442 -133.43709104 176.98459063 -133.42822266 171.24023438 C-133.43069281 169.86995418 -133.4332816 168.49967419 -133.43603516 167.12939453 C-133.36601745 135.80959837 -127.89834482 103.07465721 -115.42822266 74.24023438 C-115.09177734 73.44230469 -114.75533203 72.644375 -114.40869141 71.82226562 C-113.45239598 69.60868935 -112.45435502 67.42223998 -111.42822266 65.24023438 C-111.06083984 64.45261719 -110.69345703 63.665 -110.31494141 62.85351562 C-104.03838396 49.83017003 -95.77503832 38.34492487 -85.42822266 28.24023438 C-84.70763672 27.53382813 -83.98705078 26.82742187 -83.24462891 26.09960938 C-60.01111736 4.35594172 -30.78079108 0.07031591 0 0 Z M-56.05322266 64.24023438 C-61.94305112 71.20515753 -65.70250754 78.97269511 -69.42822266 87.24023438 C-69.82525391 88.04976562 -70.22228516 88.85929687 -70.63134766 89.69335938 C-82.263393 113.88062827 -83.64482807 141.44983085 -83.77832031 167.78027344 C-83.79484795 170.15960493 -83.82209531 172.53888742 -83.86035156 174.91796875 C-84.14656138 192.88696786 -84.26498344 211.14798202 -71.42822266 225.24023438 C-66.90795007 229.83150601 -62.46832707 233.82419261 -56.42822266 236.24023438 C-55.66251953 236.56636719 -54.89681641 236.8925 -54.10791016 237.22851562 C-34.87654713 244.93788127 -8.031248 245.52132445 11.23974609 237.76367188 C29.18916805 229.63437007 41.09928905 215.42554883 48.61474609 197.44335938 C49.35539509 195.73835516 50.17979265 194.06960225 51.03662109 192.41992188 C62.06646429 169.57439423 63.39003165 141.6144592 63.11376953 116.7800293 C63.07834761 113.42503762 63.06982141 110.07243994 63.07723236 106.7174387 C63.08106707 103.43458116 63.0602204 100.15192874 63.04052734 96.86914062 C63.04032593 95.68977432 63.04012451 94.51040802 63.03991699 93.29530334 C62.86231333 80.68358834 60.82510366 67.44706748 52.17724609 57.68164062 C46.61478285 52.68760428 39.65734915 49.43464654 32.57177734 47.24023438 C31.79833984 46.985 31.02490234 46.72976562 30.22802734 46.46679688 C17.97207448 42.73832929 5.36476058 42.06720844 -7.36572266 41.99023438 C-8.3122168 41.98096924 -9.25871094 41.9717041 -10.23388672 41.9621582 C-29.17070026 42.04684581 -43.63042921 50.11759226 -56.05322266 64.24023438 Z " fill="#13110C" transform="translate(1050.42822265625,178.759765625)"/>
<path d="M0 0 C4.51654375 -0.09987254 9.03247989 -0.1719343 13.54980469 -0.21972656 C15.08214534 -0.23967724 16.61441152 -0.26684816 18.14648438 -0.30175781 C29.20355616 -0.54714974 38.3022918 0.04813954 47.3125 7.125 C54.33756089 13.93664579 56.42406887 20.82057121 56.62890625 30.4140625 C56.6604082 34.15243582 56.61845129 37.88703214 56.5625 41.625 C56.55579285 42.6086554 56.54908569 43.59231079 56.54217529 44.60577393 C56.41478684 62.80396717 54.95519262 80.7489427 52.80583191 98.80813599 C51.6297104 108.84841506 50.83146736 118.9263945 50 129 C61.62292402 129.16291747 73.24557192 129.28693598 84.86940956 129.3626852 C90.26817066 129.39906008 95.66614481 129.44831945 101.06445312 129.52807617 C106.28409825 129.60470173 111.50299137 129.64610838 116.72315598 129.6641407 C118.70454099 129.67697412 120.68588956 129.7020328 122.66695023 129.7401104 C138.47963324 130.03167479 148.85220878 127.64562341 161 117 C173.41570734 103.32029618 176.73104391 88.17990784 176 70 C175.19760087 62.19380277 172.12491218 55.20714672 166.625 49.5625 C160.61161598 45.98310475 154.67106016 45.69899171 147.85180664 45.68115234 C146.96320953 45.67110672 146.07461243 45.6610611 145.15908813 45.65071106 C142.24278366 45.61999588 139.32657049 45.60287647 136.41015625 45.5859375 C134.37991049 45.56721647 132.34967243 45.54764236 130.31944275 45.5272522 C124.99140982 45.47602388 119.66335169 45.43634841 114.33520508 45.39910889 C107.93400424 45.35195345 101.53292754 45.29039555 95.13182831 45.23126221 C85.42126924 45.14316339 75.71073259 45.07331767 66 45 C66 30.15 66 15.3 66 0 C88.45273741 -0.07689294 110.89300803 -0.06116757 133.34265137 0.31838989 C135.59301067 0.35577764 137.84342073 0.39023796 140.09387207 0.42160034 C173.59230297 0.90147851 173.59230297 0.90147851 183.5625 6.3125 C185.20412109 7.17294922 185.20412109 7.17294922 186.87890625 8.05078125 C201.64782007 17.27442079 210.27710086 32.85596825 214.34716797 49.4375 C220.18291853 76.69833635 216.9765299 105.85301766 203 130 C202.46761719 130.969375 201.93523437 131.93875 201.38671875 132.9375 C195.6918679 142.65972676 187.21260757 152.42187494 178 159 C177.34 159 176.68 159 176 159 C176 159.66 176 160.32 176 161 C173.03388523 162.73214971 170.022189 164.36794364 167 166 C166.09057648 166.51567032 165.18115295 167.03134064 164.24417114 167.56263733 C155.02287059 172.36958935 146.85965652 172.89455408 136.7421875 172.87109375 C135.07849514 172.88862212 133.41482678 172.90857209 131.75119019 172.93077087 C127.38126884 172.98107823 123.01207352 172.99445776 118.64189148 172.99660492 C115.18106522 173.00105241 111.72043484 173.02266014 108.25967789 173.04389381 C98.07175474 173.10425781 87.88448407 173.09585087 77.69647217 173.06866455 C73.30286173 173.05813182 68.90924462 173.05380531 64.515625 173.04882812 C56.01039969 173.03834275 47.50520471 173.02145543 39 173 C38.93533539 174.1858519 38.87067078 175.3717038 38.80404663 176.5934906 C37.91466834 192.81411362 37.91466834 192.81411362 37.3515625 200.78515625 C37.29450134 201.60268875 37.23744019 202.42022125 37.1786499 203.26252747 C36.99605913 205.8626613 36.81083197 208.46259594 36.625 211.0625 C36.56096985 211.96542786 36.4969397 212.86835571 36.43096924 213.79864502 C35.46048492 227.42998701 34.34785658 241.04124333 33.00244141 254.64086914 C31.99047857 265.11433554 31.52766172 275.44676568 31 286 C9.88 286 -11.24 286 -33 286 C-33 280.8333939 -32.9369757 276.59153148 -32.1953125 271.61328125 C-32.02507568 270.43838135 -31.85483887 269.26348145 -31.67944336 268.05297852 C-31.49647705 266.81862061 -31.31351074 265.5842627 -31.125 264.3125 C-29.87034561 255.5736545 -28.69877159 246.85884845 -27.9375 238.0625 C-27.24312474 230.05155317 -26.23602489 222.11880573 -25.10522461 214.15844727 C-24.25778508 208.11502033 -23.56843003 202.07569808 -23 196 C-22.34420622 188.99050931 -21.49011612 182.03252538 -20.5 175.0625 C-19.48183507 167.88494128 -18.63935155 160.72115071 -18 153.5 C-17.27798562 145.34521476 -16.2567387 137.26464078 -15.10546875 129.16015625 C-14.25793932 123.1161585 -13.56848385 117.0762734 -13 111 C-12.34420622 103.99050931 -11.49011612 97.03252538 -10.5 90.0625 C-9.48183507 82.88494128 -8.63935155 75.72115071 -8 68.5 C-7.27837801 60.34964656 -6.25737591 52.27353614 -5.10766602 44.17333984 C-4.13920318 37.2620648 -3.36831651 30.34792952 -2.734375 23.39819336 C-2.00951466 15.57602711 -0.99691642 7.7912297 0 0 Z " fill="#13110C" transform="translate(696,181)"/>
<path d="M0 0 C0 4.95 0 9.9 0 15 C-2.10375 15.47179687 -2.10375 15.47179687 -4.25 15.953125 C-13.00189797 17.92448944 -21.747084 19.89612514 -30.4375 22.125 C-36.41768818 23.65080933 -42.42195985 24.91165782 -48.48046875 26.0859375 C-54.5502815 27.28937354 -60.58545844 28.65440479 -66.625 30 C-67.74495361 30.24927246 -68.86490723 30.49854492 -70.01879883 30.75537109 C-72.23262165 31.24999856 -74.44497386 31.75125679 -76.65576172 32.25927734 C-78.95111413 32.76767997 -81.25591164 33.23467753 -83.56689453 33.66650391 C-90.2850833 34.90640798 -90.2850833 34.90640798 -95.9140625 38.5234375 C-96.76097656 39.93496094 -96.76097656 39.93496094 -97.625 41.375 C-98.21539062 42.31085938 -98.80578125 43.24671875 -99.4140625 44.2109375 C-99.93742188 45.13132812 -100.46078125 46.05171875 -101 47 C-105.80048066 55.13724887 -111.48220409 62.67981399 -117.046875 70.3046875 C-119.39358555 73.54314806 -121.68656051 76.81625352 -123.97265625 80.09765625 C-126.53185836 83.76140801 -129.1092495 87.41213832 -131.6875 91.0625 C-132.20078857 91.78961182 -132.71407715 92.51672363 -133.24291992 93.26586914 C-135.84409639 96.9500304 -138.44751663 100.63257821 -141.0546875 104.3125 C-141.55911377 105.025271 -142.06354004 105.73804199 -142.58325195 106.47241211 C-143.51318866 107.78635634 -144.44390142 109.09975201 -145.37573242 110.41235352 C-146.04245972 111.35485962 -146.04245972 111.35485962 -146.72265625 112.31640625 C-147.24641846 112.99203613 -147.77018066 113.66766602 -148.30981445 114.36376953 C-149.79065566 116.67347968 -150.57296485 118.50498761 -151.47729492 121.05419922 C-153.64562672 126.2549797 -155.99105811 130.17052625 -161 133 C-172.52674787 135.63718297 -184.79640614 134.57843821 -196.52246094 134.09863281 C-200.9727519 133.93392802 -205.42448284 133.86167067 -209.87695312 133.78125 C-218.5886256 133.61045282 -227.29321864 133.33802139 -236 133 C-235.28512001 129.86743367 -234.40155559 127.86251378 -232.48046875 125.26953125 C-231.69772583 124.20134155 -231.69772583 124.20134155 -230.89916992 123.11157227 C-230.33431885 122.35287842 -229.76946777 121.59418457 -229.1875 120.8125 C-227.99913128 119.19334556 -226.81165219 117.57353787 -225.625 115.953125 C-225.02042969 115.13005859 -224.41585937 114.30699219 -223.79296875 113.45898438 C-221.04607118 109.69172507 -218.36549723 105.87889437 -215.6875 102.0625 C-211.18576647 95.66299828 -206.62456746 89.31151659 -202 83 C-197.500696 76.84718003 -193.04279622 70.67793294 -188.73828125 64.38671875 C-186.61636496 61.47325616 -184.32951413 58.75017596 -182 56 C-185.93882047 56.76418106 -189.87577753 57.5375896 -193.8125 58.3125 C-194.91271484 58.52583984 -196.01292969 58.73917969 -197.14648438 58.95898438 C-203.35348949 60.1857376 -209.44735892 61.58261479 -215.52636719 63.34057617 C-219.04134763 64.27760363 -222.5959119 64.85733763 -226.1796875 65.46484375 C-229.18415107 66.03494279 -232.1066064 66.78005758 -235.0625 67.5625 C-240.36304888 68.93440677 -245.54209338 69.64982458 -251 70 C-250.46612944 65.92834719 -249.36483575 63.83198484 -246.6875 60.75 C-242.99457432 56.30797552 -239.616712 51.73202457 -236.3125 47 C-229.96748106 37.93221043 -223.49918384 28.95774226 -217 20 C-216.57106445 19.40832031 -216.14212891 18.81664062 -215.70019531 18.20703125 C-213.47214039 15.13410374 -211.24366481 12.06155247 -209 9 C-208.64599121 8.30793457 -208.29198242 7.61586914 -207.92724609 6.90283203 C-204.9331151 3.94663023 -201.56257198 4.39662419 -197.578125 4.390625 C-196.71119019 4.37408875 -195.84425537 4.35755249 -194.9510498 4.34051514 C-192.0506317 4.29084214 -189.1507619 4.27023979 -186.25 4.25 C-184.19952533 4.2213784 -182.14906916 4.19140284 -180.09863281 4.16015625 C-161.64627883 3.9076604 -143.19036694 3.97299382 -124.73681641 4.01635742 C-111.35956848 4.04172784 -97.99686676 3.95698521 -84.625 3.5625 C-83.55155334 3.53289185 -83.55155334 3.53289185 -82.4564209 3.50268555 C-75.78237403 3.96927809 -75.78237403 3.96927809 -70 2 C-60.45707438 0.92751322 -50.77869833 0.73567514 -41.1875 0.4375 C-40.52877899 0.41632111 -39.87005798 0.39514221 -39.19137573 0.37332153 C-26.12653375 -0.04178773 -13.07107361 -0.10494171 0 0 Z " fill="#EC8D00" transform="translate(324,334)"/>
<path d="M0 0 C-2.39279141 4.35829864 -4.85021308 8.13897087 -8 12 C-9.00324064 13.66471799 -10.00290511 15.3315937 -11 17 C-15.18859276 23.21396293 -19.62985129 29.25235349 -24.046875 35.3046875 C-26.39358555 38.54314806 -28.68656051 41.81625352 -30.97265625 45.09765625 C-33.53185836 48.76140801 -36.1092495 52.41213832 -38.6875 56.0625 C-39.20078857 56.78961182 -39.71407715 57.51672363 -40.24291992 58.26586914 C-42.84409639 61.9500304 -45.44751663 65.63257821 -48.0546875 69.3125 C-48.55911377 70.025271 -49.06354004 70.73804199 -49.58325195 71.47241211 C-50.51318866 72.78635634 -51.44390142 74.09975201 -52.37573242 75.41235352 C-53.04245972 76.35485962 -53.04245972 76.35485962 -53.72265625 77.31640625 C-54.24641846 77.99203613 -54.77018066 78.66766602 -55.30981445 79.36376953 C-56.79065566 81.67347968 -57.57296485 83.50498761 -58.47729492 86.05419922 C-60.64562672 91.2549797 -62.99105811 95.17052625 -68 98 C-79.52674787 100.63718297 -91.79640614 99.57843821 -103.52246094 99.09863281 C-107.9727519 98.93392802 -112.42448284 98.86167067 -116.87695312 98.78125 C-125.5886256 98.61045282 -134.29321864 98.33802139 -143 98 C-142.28512001 94.86743367 -141.40155559 92.86251378 -139.48046875 90.26953125 C-138.69772583 89.20134155 -138.69772583 89.20134155 -137.89916992 88.11157227 C-137.05189331 86.97353149 -137.05189331 86.97353149 -136.1875 85.8125 C-134.99913128 84.19334556 -133.81165219 82.57353787 -132.625 80.953125 C-132.02042969 80.13005859 -131.41585937 79.30699219 -130.79296875 78.45898438 C-128.04607118 74.69172507 -125.36549723 70.87889437 -122.6875 67.0625 C-118.18576647 60.66299828 -113.62456746 54.31151659 -109 48 C-105.07765465 42.63617376 -101.17007472 37.26739861 -97.375 31.8125 C-96.80394531 31.00296875 -96.23289063 30.1934375 -95.64453125 29.359375 C-94.57483519 27.82470416 -93.52896718 26.27305171 -92.51171875 24.703125 C-89.02493085 19.55282913 -86.08816274 17.32888831 -80 16 C-77.11886945 15.4865732 -74.23396766 15.03195732 -71.33984375 14.59765625 C-67.6518861 13.93770593 -64.10980583 13.00128698 -60.5 12 C-54.85077399 10.43559895 -49.2869478 9.3063905 -43.49609375 8.4296875 C-40.88106554 8.04407799 -40.88106554 8.04407799 -38 7 C-35.13628156 6.04542719 -32.54082481 5.57590176 -29.5625 5.125 C-24.68013704 4.37106101 -19.99538649 3.22591966 -15.25 1.875 C-9.92781625 0.39813503 -5.49642853 -0.44868804 0 0 Z " fill="#14120E" transform="translate(231,369)"/>
</svg>
