<?xml version="1.0" encoding="UTF-8"?>
<svg id="logosandtypes_com" data-name="logosandtypes com" xmlns="http://www.w3.org/2000/svg" viewBox="0 0 150 150">
  <defs>
    <style>
      .cls-1 {
        fill: #fdf02f;
      }

      .cls-2 {
        fill: none;
      }
    </style>
  </defs>
  <path class="cls-2" d="M0,0H150V150H0V0Z"/>
  <circle class="cls-1" cx="75" cy="75.15" r="65.49"/>
  <g>
    <path d="M47.77,30.75c.21-.09,.27-.12,.36-.15,4.84-.87,9.68-1.71,14.64-2.59-.45,3.31-.87,6.52-1.35,9.92,2.35-1.05,4.66-1.92,7.07-2.53,18.31-4.45,36.86,7.7,40.17,26.25,3.34,18.94-9.65,36.5-28.74,38.84-17.32,2.1-33.64-10.25-36.41-27.48-.72-4.45-.3-8.81,.3-13.2,1.02-7.28,1.98-14.58,2.98-21.86,.33-2.41,.66-4.81,.99-7.22Zm9.92,36.8c-.03,10.1,8.21,18.4,18.28,18.43,10.28,.03,18.55-8.18,18.55-18.4s-8.24-18.46-18.28-18.49c-10.22,.03-18.52,8.27-18.55,18.46Z"/>
    <path d="M52.67,98.22c2.59,5.74,7.76,7.85,13.35,9.29,8.63,2.19,17.14,1.65,25.41-1.74,3.82-1.56,6.31-3.88,8.15-7.52,6.07,3.46,6.91,11.36,1.65,15.93-4.63,4.03-10.16,6.04-16.11,7.04-7.94,1.29-15.81,1.02-23.57-1.35-3.94-1.2-7.55-3.01-10.61-5.77-5.11-4.6-4.27-12.33,1.74-15.87Z"/>
  </g>
</svg>