<?xml version="1.0" encoding="UTF-8"?>
<svg version="1.1" xmlns="http://www.w3.org/2000/svg" width="640" height="370">
<path d="M0 0 C0.77338431 0.00092179 1.54676863 0.00184359 2.34358883 0.00279331 C3.22844967 0.00141865 4.11331051 0.00004398 5.02498531 -0.00137234 C6.49233372 0.00402058 6.49233372 0.00402058 7.98932552 0.00952244 C9.01359646 0.00937641 10.03786739 0.00923038 11.09317684 0.00907993 C14.49665055 0.00977955 17.9000703 0.0175742 21.30353451 0.02539158 C23.65623094 0.02725559 26.00892776 0.02867957 28.36162472 0.0296793 C34.56769531 0.03350584 40.77374266 0.04333728 46.97980404 0.05438328 C53.30711204 0.06459448 59.63442378 0.06917629 65.96173763 0.0742197 C78.38687807 0.08495942 90.81200124 0.10203747 103.23712826 0.12304783 C101.64730243 10.98603059 99.07875382 21.55611118 96.48712826 32.21289158 C95.99996613 34.23033592 95.51322245 36.24788135 95.02686214 38.26551914 C93.70952859 43.72637429 92.38733402 49.18604168 91.06426144 54.64550877 C88.80899885 63.95695947 86.56290727 73.27063045 84.31585598 82.58406544 C83.72937917 85.01464535 83.14273311 87.44518444 82.55592251 89.87568378 C78.29135142 107.54096245 74.06464964 125.2149199 69.8709631 142.89715862 C68.9774862 146.66422887 68.08329865 150.43112976 67.18891048 154.19798374 C64.61165449 165.05414336 62.03651184 175.91077609 59.47256756 186.7700882 C58.41312254 191.25190846 57.34900203 195.73260959 56.28370571 200.21304226 C55.79365806 202.27859948 55.30559245 204.3446282 54.81976223 206.41118145 C45.52610932 245.93158852 45.52610932 245.93158852 33.23712826 260.12304783 C32.64158138 260.81398533 32.04603451 261.50492283 31.43244076 262.21679783 C19.97033617 274.58255381 4.09570189 279.75794967 -12.27646732 281.24359226 C-13.18325739 281.32700107 -14.09004746 281.41040988 -15.02431601 281.49634624 C-26.04465134 282.42399606 -37.05635014 282.40352236 -48.10784245 282.38183689 C-50.46918692 282.38455467 -52.83053054 282.38811998 -55.1918726 282.39245701 C-61.53862993 282.4014872 -67.88532143 282.39807655 -74.23207974 282.39169884 C-80.22907428 282.3871123 -86.22606312 282.39063394 -92.22305753 282.39355323 C-104.81743696 282.39922684 -117.41178704 282.39274446 -130.00616165 282.38195249 C-140.77607248 282.3730093 -151.54594019 282.37458114 -162.31585026 282.38379002 C-174.87909327 282.39452755 -187.44231076 282.39868863 -200.00555772 282.39256549 C-206.63559623 282.38942082 -213.26561083 282.38899279 -219.895648 282.39563847 C-226.12651534 282.40144945 -232.35730183 282.39734683 -238.58816051 282.38584995 C-240.86322489 282.38322392 -243.13829618 282.3839329 -245.41335773 282.38837528 C-284.77639473 282.45810543 -284.77639473 282.45810543 -296.96990299 271.18945408 C-306.00489349 260.77657832 -305.73005796 247.84060114 -305.08757877 234.82470798 C-304.09334815 223.49047892 -300.99121659 212.39906626 -298.28386784 201.37695408 C-296.59724575 194.48566693 -294.98437353 187.57733967 -293.36810017 180.6693182 C-291.95513379 174.63671218 -290.53200786 168.60649122 -289.10942936 162.57614613 C-288.57981874 160.32941304 -288.05154994 158.08236732 -287.52336979 155.83529758 C-286.67506494 152.23025855 -285.81896385 148.62714311 -284.95764065 145.02519321 C-284.48865892 143.05722141 -284.02635907 141.08766091 -283.56433964 139.11804295 C-278.37492292 117.51779822 -271.00711563 96.52585614 -251.88787174 83.41992283 C-236.11168204 73.79180705 -220.51704971 71.50330612 -202.40129948 71.66894627 C-200.63526784 71.67007807 -198.86923433 71.66943441 -197.10320377 71.66717625 C-192.36658792 71.66604115 -187.63038759 71.68935234 -182.89386725 71.71747208 C-177.92249494 71.74268946 -172.95111029 71.7448436 -167.97968388 71.74957371 C-158.59138647 71.76194428 -149.20327815 71.79468474 -139.81506354 71.83497167 C-129.11598794 71.87987494 -118.41690271 71.90172282 -107.71775615 71.92175341 C-85.73268965 71.96342344 -63.74779267 72.03365885 -41.76287174 72.12304783 C-42.06842674 74.00893389 -42.37648831 75.89441392 -42.68557072 77.77972507 C-42.85684671 78.82974579 -43.02812271 79.8797665 -43.20458889 80.96160603 C-44.04859474 85.74103885 -45.18924076 90.43162901 -46.36443424 95.13867283 C-46.60576084 96.12051548 -46.84708744 97.10235813 -47.09572697 98.11395359 C-47.8555873 101.20136925 -48.62160758 104.28721604 -49.38787174 107.37304783 C-49.90911629 109.48622769 -50.42995312 111.59950816 -50.95037174 113.71289158 C-52.21650357 118.85078055 -53.48767466 123.98740174 -54.76287174 129.12304783 C-55.87041309 129.13113468 -56.97795444 129.13922153 -58.11905766 129.14755344 C-68.57953334 129.22518943 -79.03988175 129.31297231 -89.50019073 129.41057491 C-94.87735722 129.46042493 -100.25450512 129.50675573 -105.63176823 129.54492283 C-110.82547654 129.58191858 -116.01902505 129.62831678 -121.21259594 129.68111134 C-123.18959137 129.69957955 -125.16662096 129.71471516 -127.14366817 129.72639179 C-129.92241847 129.74338444 -132.70080881 129.77244975 -135.47942448 129.80420017 C-136.28863346 129.80636036 -137.09784245 129.80852055 -137.93157291 129.81074619 C-145.02223741 129.91359416 -153.08753709 130.29408919 -158.50414371 135.41000462 C-163.75330678 142.55375844 -165.19360524 153.19826897 -167.21599674 161.64648533 C-167.52108158 162.9096558 -167.82616642 164.17282627 -168.14049625 165.47427464 C-168.7804058 168.13050803 -169.41486386 170.78797698 -170.04607487 173.44629002 C-170.84745852 176.81695886 -171.66825782 180.18256786 -172.49400043 183.54733944 C-173.2895595 186.80641683 -174.0638468 190.07046996 -174.84099674 193.33398533 C-175.13468143 194.522934 -175.42836613 195.71188267 -175.73095036 196.93686008 C-177.50605401 204.53664381 -178.92747651 212.3177887 -177.76287174 220.12304783 C-176.1159721 222.76126309 -174.58746637 223.18904343 -171.64968204 224.29437351 C-167.19618903 225.24386551 -163.10971836 225.40395274 -158.5739069 225.38183689 C-157.23343548 225.38709385 -157.23343548 225.38709385 -155.86588383 225.39245701 C-152.92782031 225.40121977 -149.98999998 225.39544345 -147.05193424 225.38867283 C-144.99841612 225.39002128 -142.9448983 225.39196332 -140.89138126 225.39447117 C-136.59265439 225.39741525 -132.29401079 225.39314867 -127.99529362 225.38379002 C-122.50227869 225.37241037 -117.00945955 225.37895013 -111.51645184 225.39093494 C-107.27666104 225.39818515 -103.03691614 225.39585087 -98.79712391 225.39067936 C-96.77265112 225.38935085 -94.74817407 225.39096241 -92.72370625 225.39563847 C-89.8859016 225.40075415 -87.04840736 225.39292241 -84.21062565 225.38183689 C-83.38436176 225.38588535 -82.55809788 225.38993382 -81.70679569 225.39410496 C-73.55727834 225.33553966 -66.24968013 224.40300815 -59.76287174 219.12304783 C-50.7841871 208.78119101 -48.66263213 194.57831374 -45.61443424 181.61132908 C-45.12435446 179.55975303 -44.63339448 177.50838708 -44.1416254 175.45721531 C-42.81987947 169.93315902 -41.51056258 164.40622463 -40.20348454 158.87868214 C-38.83497766 153.10148856 -37.45444833 147.3271689 -36.07537174 141.55249119 C-32.6220123 127.07976326 -29.19024469 112.60194862 -25.76287174 98.12304783 C-25.48003834 96.92837894 -25.19720493 95.73371006 -24.90580082 94.50283909 C-23.22233049 87.39174813 -21.53947362 80.2805122 -19.85693836 73.16919994 C-19.04549722 69.74000177 -18.23376529 66.31087255 -17.42195988 62.8817606 C-16.89413574 60.65189229 -16.366334 58.42201869 -15.83855534 56.19213963 C-15.58159445 55.10650069 -15.32463356 54.02086176 -15.05988598 52.90232468 C-13.53367776 46.45153398 -12.01223993 39.9996398 -10.49463177 33.54682064 C-9.55608973 29.55839357 -8.61483088 25.57061084 -7.67301655 21.58295536 C-7.23640107 19.7312181 -6.80107451 17.87917642 -6.36710072 16.02681828 C-5.77829228 13.51393169 -5.18518128 11.00209933 -4.59099674 8.49047947 C-4.41874388 7.75020669 -4.24649101 7.00993391 -4.06901836 6.24722862 C-2.62612996 0.18330295 -2.62612996 0.18330295 0 0 Z " fill="#0970CE" transform="translate(304.76287174224854,-0.1230478286743164)"/>
<path d="M0 0 C33.66 0 67.32 0 102 0 C100.87500768 8.99993855 100.87500768 8.99993855 99.9446106 12.83424377 C99.63040303 14.1432976 99.63040303 14.1432976 99.30984783 15.47879696 C99.08143106 16.41077687 98.85301428 17.34275679 98.61767578 18.30297852 C98.25302955 19.81378793 98.25302955 19.81378793 97.88101673 21.35511875 C97.07324951 24.69739714 96.25925743 28.03812744 95.4453125 31.37890625 C94.8700832 33.75428625 94.29526812 36.12976659 93.72084045 38.50534058 C92.33861958 44.21742188 90.95250218 49.92854844 89.56438154 55.63919806 C86.99720044 66.20113429 84.43826863 76.7650733 81.87824923 87.32874721 C81.07449635 90.64526167 80.27050371 93.96171767 79.46600533 97.27805138 C75.5524458 113.41090417 71.66264259 129.5490531 67.83000946 145.70134926 C67.16980526 148.48278625 66.50838142 151.26393015 65.84649658 154.04496765 C65.42419367 155.81961044 65.00189141 157.59425338 64.57958984 159.36889648 C64.37678154 160.22104579 64.17397324 161.0731951 63.96501923 161.95116711 C62.9886819 166.05653745 62.01590121 170.16268782 61.05108643 174.27078247 C52.80957018 209.34819658 43.75430667 241.64768312 18 268 C17.37351562 268.67675781 16.74703125 269.35351562 16.1015625 270.05078125 C-0.52870547 287.65700392 -27.22351236 297.59829708 -51.09689522 298.33045137 C-54.68899183 298.38348155 -58.27884186 298.36749194 -61.87109375 298.34057617 C-63.48919662 298.33972722 -65.10730063 298.34021025 -66.72540283 298.34190369 C-71.06326467 298.34275462 -75.40087103 298.32527737 -79.73867416 298.30418181 C-84.29232188 298.28526235 -88.84597725 298.28365267 -93.3996582 298.28010559 C-101.99817791 298.27082953 -110.59658141 298.24627672 -119.19505024 298.21605712 C-128.99449287 298.18237381 -138.79394143 298.16599229 -148.59342766 298.15097082 C-168.7290163 298.11972253 -188.86450079 298.06704966 -209 298 C-207.36097604 293.07746418 -205.72149498 288.15508091 -204.08161545 283.23283005 C-203.52541797 281.56314698 -202.96933897 279.89342444 -202.4133873 278.22365952 C-198.41434132 266.2131414 -194.37793435 254.21690998 -190.25 242.25 C-189.31319303 239.52971999 -188.37682963 236.80928733 -187.44042969 234.08886719 C-186.97516559 232.73736335 -186.50989513 231.3858617 -186.0446167 230.03436279 C-185.69989319 229.03302307 -185.35516968 228.03168335 -185 227 C-184.12098022 226.99191315 -183.24196045 226.98382629 -182.33630371 226.97549438 C-173.98240143 226.89699546 -165.62864836 226.80954689 -157.27494049 226.71247292 C-152.98199075 226.66289103 -148.68906121 226.61656359 -144.39599609 226.578125 C-140.23965488 226.5407833 -136.08350045 226.49430399 -131.92732239 226.44193649 C-130.35524327 226.42364818 -128.78312453 226.40845012 -127.21098328 226.39665604 C-102.02308395 226.20124568 -78.07046935 222.42097548 -59.1796875 204.2734375 C-49.44601763 194.12111516 -45.13509938 182.89795112 -41.90063477 169.34301758 C-41.62978561 168.24288834 -41.35893646 167.14275909 -41.07987976 166.0092926 C-40.19119786 162.38988435 -39.31627669 158.76730041 -38.44140625 155.14453125 C-37.81033898 152.56274911 -37.17849564 149.98116893 -36.54563904 147.39982605 C-35.04599276 141.27575447 -33.55616877 135.14933863 -32.07001299 129.02198094 C-30.43286407 122.27384472 -28.78568543 115.52817378 -27.13714719 108.78281236 C-24.54223257 98.16448105 -21.95232602 87.54493619 -19.3664825 76.92439246 C-15.75200533 62.07955706 -12.134796 47.23538939 -8.49983042 32.39555544 C-7.72119196 29.2166901 -6.94362737 26.03756914 -6.167696 22.85804176 C-5.31839331 19.37835716 -4.46611464 15.89941507 -3.61303711 12.4206543 C-3.23560395 10.87006978 -3.23560395 10.87006978 -2.85054588 9.28816032 C-2.61993273 8.35051905 -2.38931957 7.41287777 -2.15171814 6.44682312 C-1.95216994 5.63113704 -1.75262175 4.81545095 -1.54702663 3.97504711 C-1 2 -1 2 0 0 Z " fill="#0870CE" transform="translate(414,72)"/>
<path d="M0 0 C33.66 0 67.32 0 102 0 C100.87500665 10.12494016 100.87500665 10.12494016 99.9446106 14.05493164 C99.735137 14.9513632 99.52566339 15.84779476 99.30984211 16.77139091 C98.96721978 18.20132976 98.96721978 18.20132976 98.61767578 19.66015625 C98.25305504 21.21022716 98.25305504 21.21022716 97.88106823 22.79161263 C97.07414572 26.21644277 96.25972127 29.63944303 95.4453125 33.0625 C94.86973345 35.49922537 94.29464552 37.93606679 93.72001648 40.37301636 C92.49632487 45.55814817 91.26952229 50.7425277 90.03970337 55.9262085 C88.12159983 64.01105185 86.20996602 72.0974167 84.29956055 80.18408203 C83.6592555 82.89420266 83.01891305 85.60431444 82.3785553 88.31442261 C82.22011153 88.98501367 82.06166776 89.65560473 81.89842266 90.34651673 C80.77605594 95.09637394 79.6526053 99.84597405 78.52879333 104.5954895 C74.64451215 121.01370919 70.78322575 137.43714978 66.94921875 153.8671875 C66.49702028 155.80365722 66.04479106 157.74011977 65.5925293 159.67657471 C63.92544674 166.81589167 62.25836775 173.95520466 60.59844971 181.09619141 C59.66294768 185.12063842 58.72427102 189.1443311 57.78309059 193.16745377 C57.44478689 194.61651332 57.10777791 196.06587584 56.77216148 197.51556015 C56.32248502 199.45758471 55.86806099 201.39850821 55.41333008 203.33935547 C55.16247147 204.41716278 54.91161285 205.49497009 54.65315247 206.60543823 C54 209 54 209 53 210 C49.83387337 210.09536242 46.68959372 210.12550636 43.52319336 210.11352539 C42.03067802 210.11374443 42.03067802 210.11374443 40.50801086 210.1139679 C37.20193338 210.11326831 33.89591146 210.10547379 30.58984375 210.09765625 C28.30440807 210.09579223 26.01897199 210.09436825 23.73353577 210.09336853 C17.70501613 210.08954207 11.67652041 210.0797107 5.64801025 210.06866455 C-0.49832841 210.05845317 -6.64467093 210.0538715 -12.79101562 210.04882812 C-24.86068762 210.03808854 -36.93034182 210.0210106 -49 210 C-47.73193153 201.77980728 -46.10322444 193.71467951 -44.1652832 185.62792969 C-43.88672485 184.45126236 -43.6081665 183.27459503 -43.32116699 182.06227112 C-42.56076093 178.85355346 -41.79684064 175.64569756 -41.03138375 172.43818188 C-40.21191802 169.00021727 -39.39726357 165.56111262 -38.58207703 162.12213135 C-37.02359077 155.55045159 -35.46119462 148.97970835 -33.89722937 142.40933061 C-31.15981979 130.9084928 -28.42993508 119.40586646 -25.69966018 107.90333319 C-24.85363951 104.33919794 -24.0073473 100.77512758 -23.16046524 97.2111969 C-19.30612151 80.9907906 -15.46891538 64.76655675 -11.66943359 48.53320312 C-11.49393191 47.78349448 -11.31843023 47.03378583 -11.13761032 46.26135874 C-9.44477692 39.02911587 -7.753733 31.79645974 -6.06734228 24.56271172 C-5.60366638 22.57450347 -5.13941094 20.58643156 -4.67492867 18.59841156 C-4.11004389 16.18009563 -3.54628813 13.7615156 -2.98385429 11.34262848 C-2.73561472 10.28067009 -2.48737514 9.2187117 -2.23161316 8.12457275 C-2.01656222 7.20164555 -1.80151129 6.27871834 -1.57994366 5.32782364 C-1 3 -1 3 0 0 Z " fill="#0970CE" transform="translate(538,72)"/>
</svg>
