<?xml version="1.0" encoding="UTF-8"?>
<svg version="1.1" xmlns="http://www.w3.org/2000/svg" width="150" height="36">
<path d="M0 0 C1.60875 -0.00386719 1.60875 -0.00386719 3.25 -0.0078125 C6 0.125 6 0.125 8 1.125 C8 5.085 8 9.045 8 13.125 C8.66 13.455 9.32 13.785 10 14.125 C12.22155223 18.91887587 12.55597121 23.11796444 11 28.125 C8.84428646 31.77684309 6.09761357 34.75912881 2 36.125 C1.01 36.125 0.02 36.125 -1 36.125 C-1 34.145 -1 32.165 -1 30.125 C-1.66 30.125 -2.32 30.125 -3 30.125 C-3 32.105 -3 34.085 -3 36.125 C-5.98125863 35.52219606 -8.08103028 34.6292381 -10.5625 32.875 C-11.14128906 32.47796875 -11.72007813 32.0809375 -12.31640625 31.671875 C-15.5269838 28.72201721 -16.87137476 26.11576199 -17.43359375 21.78515625 C-17.44672431 9.69190605 -17.44672431 9.69190605 -13 5.125 C-8.4180181 1.08849214 -6.07121358 -0.01459426 0 0 Z M-12.375 9.75 C-14.50175008 14.16709632 -14.92359843 18.29066947 -14 23.125 C-12.00087496 25.60705974 -9.89300342 26.8281364 -7 28.125 C-6.34 27.465 -5.68 26.805 -5 26.125 C-5.66 26.125 -6.32 26.125 -7 26.125 C-8.82177738 22.37428186 -9.36624071 20.11862668 -8 16.125 C-5.6148019 12.54720285 -2.00156482 12.1065159 2 11.125 C2 8.485 2 5.845 2 3.125 C-4.63507573 2.49308803 -8.01270543 4.92851653 -12.375 9.75 Z M-4.875 16.375 C-6.21804394 18.0700357 -6.21804394 18.0700357 -5.8125 20.1875 C-5.06529664 22.31212526 -5.06529664 22.31212526 -3 24.125 C-0.39719432 23.80458603 -0.39719432 23.80458603 2 23.125 C2 20.485 2 17.845 2 15.125 C-0.84326464 14.89446503 -2.46145349 14.76596899 -4.875 16.375 Z M6 17.125 C6.33 19.765 6.66 22.405 7 25.125 C7.33 25.125 7.66 25.125 8 25.125 C8.16681109 22.20847826 8.16681109 22.20847826 8 19.125 C7.34 18.465 6.68 17.805 6 17.125 Z M5 23.125 C6 25.125 6 25.125 6 25.125 Z M6 25.125 C7 27.125 7 27.125 7 27.125 Z M5 27.125 C6 29.125 6 29.125 6 29.125 Z M-4 28.125 C-4 28.455 -4 28.785 -4 29.125 C-2.02 29.125 -0.04 29.125 2 29.125 C2 28.795 2 28.465 2 28.125 C0.02 28.125 -1.96 28.125 -4 28.125 Z " fill="#1C99F2" transform="translate(17,-0.125)"/>
<path d="M0 0 C3.63 0 7.26 0 11 0 C11 3.63 11 7.26 11 11 C7.37 11 3.74 11 0 11 C0 7.37 0 3.74 0 0 Z " fill="#1C99F2" transform="translate(41,13)"/>
<path d="M0 0 C1.8125 1.125 1.8125 1.125 3 3 C3.39310741 6.14485925 3.47555213 8.13281671 1.9375 10.9375 C-1.18142449 12.64787795 -3.65557801 11.80513863 -7 11 C-8.39935013 8.20129973 -8.25265405 6.09501208 -8 3 C-5.90534242 -0.30735407 -3.75951639 -0.56392746 0 0 Z M-4 3 C-5.29633621 4.06645115 -5.29633621 4.06645115 -5.0625 6.5625 C-5.041875 7.366875 -5.02125 8.17125 -5 9 C-3.35 9 -1.7 9 0 9 C0 7.35 0 5.7 0 4 C-1.94603274 3.40929986 -1.94603274 3.40929986 -4 3 Z " fill="#1C99F2" transform="translate(128,12)"/>
<path d="M0 0 C3 1 3 1 4.16796875 2.99609375 C4.50441406 3.80175781 4.84085938 4.60742188 5.1875 5.4375 C5.53167969 6.24058594 5.87585938 7.04367188 6.23046875 7.87109375 C7 10 7 10 7 12 C5.948125 11.814375 4.89625 11.62875 3.8125 11.4375 C0.42880118 11.04920669 -1.76425888 11.11752515 -5 12 C-3.68938409 7.76570244 -2.05643741 3.92592596 0 0 Z M1 6 C1 9 1 9 1 9 Z " fill="#1C99F2" transform="translate(65,12)"/>
<path d="M0 0 C1.32 0 2.64 0 4 0 C4 2.64 4 5.28 4 8 C4.99 7.67 5.98 7.34 7 7 C7.33 4.69 7.66 2.38 8 0 C8.66 0 9.32 0 10 0 C10.05399736 1.45792884 10.09279177 2.91642712 10.125 4.375 C10.14820313 5.18710937 10.17140625 5.99921875 10.1953125 6.8359375 C10 9 10 9 8 11 C5.25973747 11.35131571 3.62386024 11.34419875 1.1875 10 C-0.73618446 6.76011038 -0.18282384 3.7174181 0 0 Z " fill="#1C99F2" transform="translate(140,13)"/>
<path d="M0 0 C1.65 0 3.3 0 5 0 C5 2.64 5 5.28 5 8 C6.32 7.67 7.64 7.34 9 7 C9 8.32 9 9.64 9 11 C6.03 11 3.06 11 0 11 C0 7.37 0 3.74 0 0 Z " fill="#1C99F2" transform="translate(102,13)"/>
<path d="M0 0 C1.60875 0.2784375 1.60875 0.2784375 3.25 0.5625 C6.40391546 0.9304568 8.09818492 1.04465343 11 0 C10.566875 1.051875 10.566875 1.051875 10.125 2.125 C8.97866412 5.05452503 7.97374346 8.00921653 7 11 C6.01 11 5.02 11 4 11 C0.71428571 3.57142857 0.71428571 3.57142857 0 0 Z " fill="#1C99F2" transform="translate(80,13)"/>
<path d="M0 0 C0.66 0 1.32 0 2 0 C2 2.31 2 4.62 2 7 C1.34 7 0.68 7 0 7 C0 4.69 0 2.38 0 0 Z " fill="#1C99F2" transform="translate(145,13)"/>
<path d="M0 0 C0.33 0 0.66 0 1 0 C1.9765625 6.0546875 1.9765625 6.0546875 2 8 C1.34 8.66 0.68 9.32 0 10 C0 6.7 0 3.4 0 0 Z " fill="#1C99F2" transform="translate(4,13)"/>
<path d="M0 0 C0.33 0 0.66 0 1 0 C1 3.63 1 7.26 1 11 C0.67 11 0.34 11 0 11 C0 7.37 0 3.74 0 0 Z " fill="#1C99F2" transform="translate(100,13)"/>
<path d="M0 0 C0.33 0 0.66 0 1 0 C1 3.3 1 6.6 1 10 C0.67 10 0.34 10 0 10 C0 6.7 0 3.4 0 0 Z " fill="#1D9AF2" transform="translate(53,13)"/>
<path d="M0 0 C0.33 0 0.66 0 1 0 C1 2.97 1 5.94 1 9 C0.67 9 0.34 9 0 9 C0 6.03 0 3.06 0 0 Z " fill="#1C9AF2" transform="translate(39,14)"/>
<path d="M0 0 C2.64 0 5.28 0 8 0 C8 0.33 8 0.66 8 1 C5.36 1 2.72 1 0 1 C0 0.67 0 0.34 0 0 Z " fill="#1D9AF2" transform="translate(102,25)"/>
<path d="M0 0 C0.33 0 0.66 0 1 0 C1 2.64 1 5.28 1 8 C0.67 8 0.34 8 0 8 C0 5.36 0 2.72 0 0 Z " fill="#1C9AF2" transform="translate(138,13)"/>
<path d="M0 0 C0.33 0.99 0.66 1.98 1 3 C1.66 3.33 2.32 3.66 3 4 C2.01 4 1.02 4 0 4 C0 2.68 0 1.36 0 0 Z " fill="#1C99F2" transform="translate(124,16)"/>
<path d="M0 0 C0.33 0 0.66 0 1 0 C1 1.98 1 3.96 1 6 C0.67 6 0.34 6 0 6 C0 4.02 0 2.04 0 0 Z " fill="#1C9AF2" transform="translate(118,15)"/>
<path d="M0 0 C1.65 0 3.3 0 5 0 C5 0.33 5 0.66 5 1 C3.35 1 1.7 1 0 1 C0 0.67 0 0.34 0 0 Z " fill="#1D9AF3" transform="translate(143,25)"/>
<path d="M0 0 C1.65 0 3.3 0 5 0 C5 0.33 5 0.66 5 1 C3.35 1 1.7 1 0 1 C0 0.67 0 0.34 0 0 Z " fill="#1C9AF3" transform="translate(123,25)"/>
<path d="M0 0 C0.33 0 0.66 0 1 0 C1 1.65 1 3.3 1 5 C0.67 5 0.34 5 0 5 C0 3.35 0 1.7 0 0 Z " fill="#1C9AF3" transform="translate(30,20)"/>
<path d="M0 0 C1.65 0 3.3 0 5 0 C5 0.33 5 0.66 5 1 C3.35 1 1.7 1 0 1 C0 0.67 0 0.34 0 0 Z " fill="#1D9AF3" transform="translate(123,10)"/>
<path d="M0 0 C1.65 0 3.3 0 5 0 C5 0.33 5 0.66 5 1 C3.35 1 1.7 1 0 1 C0 0.67 0 0.34 0 0 Z " fill="#1D9AF3" transform="translate(13,4)"/>
<path d="M0 0 C1 4 1 4 1 4 Z " fill="#1D9AF2" transform="translate(88,20)"/>
<path d="M0 0 C1 4 1 4 1 4 Z " fill="#1D99F2" transform="translate(82,20)"/>
<path d="M0 0 C4 1 4 1 4 1 Z " fill="#1C9AF3" transform="translate(14,22)"/>
<path d="M0 0 C4 1 4 1 4 1 Z " fill="#1C9AF2" transform="translate(14,9)"/>
<path d="" fill="#1C99F2" transform="translate(0,0)"/>
<path d="" fill="#1D99F2" transform="translate(0,0)"/>
<path d="" fill="#1C99F2" transform="translate(0,0)"/>
<path d="M0 0 C3 1 3 1 3 1 Z " fill="#1D9AF2" transform="translate(15,16)"/>
<path d="M0 0 C3 1 3 1 3 1 Z " fill="#1C9AF3" transform="translate(102,11)"/>
<path d="M0 0 C3 1 3 1 3 1 Z " fill="#1D99F2" transform="translate(80,11)"/>
<path d="" fill="#1D9AF3" transform="translate(0,0)"/>
<path d="M0 0 C2 1 2 1 2 1 Z " fill="#1D9AF3" transform="translate(84,25)"/>
<path d="M0 0 C2 1 2 1 2 1 Z " fill="#1D9AF3" transform="translate(69,25)"/>
<path d="M0 0 C2 1 2 1 2 1 Z " fill="#1D9AF3" transform="translate(61,25)"/>
<path d="M0 0 C2 1 2 1 2 1 Z " fill="#1D9AF3" transform="translate(49,25)"/>
<path d="M0 0 C2 1 2 1 2 1 Z " fill="#1D9AF3" transform="translate(42,25)"/>
<path d="" fill="#1D99F2" transform="translate(0,0)"/>
<path d="M0 0 C2 1 2 1 2 1 Z " fill="#1D9AF3" transform="translate(121,24)"/>
<path d="" fill="#1D9AF3" transform="translate(0,0)"/>
<path d="" fill="#1C9AF3" transform="translate(0,0)"/>
<path d="" fill="#1C9AF3" transform="translate(0,0)"/>
<path d="" fill="#1D99F3" transform="translate(0,0)"/>
<path d="" fill="#1C99F2" transform="translate(0,0)"/>
<path d="" fill="#1C9AF2" transform="translate(0,0)"/>
<path d="" fill="#1D99F2" transform="translate(0,0)"/>
<path d="" fill="#1C99F2" transform="translate(0,0)"/>
<path d="" fill="#1D9AF2" transform="translate(0,0)"/>
<path d="" fill="#1D9AF3" transform="translate(0,0)"/>
<path d="" fill="#1D9AF3" transform="translate(0,0)"/>
<path d="" fill="#1D9AF2" transform="translate(0,0)"/>
<path d="" fill="#1D9AF3" transform="translate(0,0)"/>
<path d="M0 0 C2 1 2 1 2 1 Z " fill="#1D9AF3" transform="translate(148,11)"/>
<path d="M0 0 C2 1 2 1 2 1 Z " fill="#1C9AF3" transform="translate(141,11)"/>
<path d="M0 0 C2 1 2 1 2 1 Z " fill="#1C9AF3" transform="translate(88,11)"/>
<path d="M0 0 C2 1 2 1 2 1 Z " fill="#1D9AF3" transform="translate(49,11)"/>
<path d="M0 0 C2 1 2 1 2 1 Z " fill="#1C9AF3" transform="translate(42,11)"/>
<path d="M0 0 C2 1 2 1 2 1 Z " fill="#1D99F3" transform="translate(10,11)"/>
<path d="M0 0 C2 1 2 1 2 1 Z " fill="#1D9AF3" transform="translate(65,10)"/>
<path d="M0 0 C2 1 2 1 2 1 Z " fill="#1C99F2" transform="translate(12,10)"/>
<path d="" fill="#1D9AF3" transform="translate(0,0)"/>
<path d="M0 0 C2 1 2 1 2 1 Z " fill="#1C9AF3" transform="translate(9,6)"/>
<path d="M0 0 C2 1 2 1 2 1 Z " fill="#1D9AF2" transform="translate(11,5)"/>
<path d="" fill="#1C9AF2" transform="translate(0,0)"/>
<path d="" fill="#1C9AF2" transform="translate(0,0)"/>
<path d="" fill="#1D9AF2" transform="translate(0,0)"/>
<path d="" fill="#1D9AF3" transform="translate(0,0)"/>
<path d="" fill="#1D9AF3" transform="translate(0,0)"/>
<path d="" fill="#1D99F3" transform="translate(0,0)"/>
<path d="" fill="#1D9AF3" transform="translate(0,0)"/>
<path d="" fill="#1D99F2" transform="translate(0,0)"/>
<path d="" fill="#1D9AF3" transform="translate(0,0)"/>
<path d="" fill="#1C9AF3" transform="translate(0,0)"/>
<path d="" fill="#1D9AF2" transform="translate(0,0)"/>
<path d="" fill="#1D9AF3" transform="translate(0,0)"/>
<path d="" fill="#1D9AF3" transform="translate(0,0)"/>
<path d="" fill="#1D9AF3" transform="translate(0,0)"/>
<path d="" fill="#1D9AF3" transform="translate(0,0)"/>
<path d="" fill="#1D99F2" transform="translate(0,0)"/>
<path d="" fill="#1D99F2" transform="translate(0,0)"/>
<path d="" fill="#1C9AF2" transform="translate(0,0)"/>
<path d="" fill="#1D9AF3" transform="translate(0,0)"/>
<path d="" fill="#1D9AF3" transform="translate(0,0)"/>
<path d="" fill="#1D9AF3" transform="translate(0,0)"/>
<path d="" fill="#1D99F3" transform="translate(0,0)"/>
<path d="" fill="#1D9AF3" transform="translate(0,0)"/>
<path d="" fill="#1C9AF3" transform="translate(0,0)"/>
<path d="" fill="#1C9AF3" transform="translate(0,0)"/>
<path d="" fill="#1D9AF3" transform="translate(0,0)"/>
<path d="" fill="#1D9AF3" transform="translate(0,0)"/>
<path d="" fill="#1C9AF3" transform="translate(0,0)"/>
<path d="" fill="#1C9AF2" transform="translate(0,0)"/>
<path d="" fill="#1D9AF3" transform="translate(0,0)"/>
<path d="" fill="#1D9AF3" transform="translate(0,0)"/>
<path d="" fill="#1D9AF3" transform="translate(0,0)"/>
<path d="" fill="#1C99F3" transform="translate(0,0)"/>
<path d="" fill="#1C9AF3" transform="translate(0,0)"/>
<path d="" fill="#1D9AF3" transform="translate(0,0)"/>
<path d="" fill="#1C99F3" transform="translate(0,0)"/>
<path d="" fill="#1C9AF2" transform="translate(0,0)"/>
<path d="" fill="#1D9AF3" transform="translate(0,0)"/>
<path d="" fill="#1D9AF3" transform="translate(0,0)"/>
<path d="" fill="#1D9AF3" transform="translate(0,0)"/>
<path d="" fill="#1D9AF3" transform="translate(0,0)"/>
<path d="" fill="#1D9AF3" transform="translate(0,0)"/>
<path d="" fill="#1D99F2" transform="translate(0,0)"/>
<path d="" fill="#1C9AF2" transform="translate(0,0)"/>
<path d="" fill="#1C9AF3" transform="translate(0,0)"/>
<path d="" fill="#1D99F3" transform="translate(0,0)"/>
<path d="" fill="#1C99F3" transform="translate(0,0)"/>
<path d="" fill="#1D9AF3" transform="translate(0,0)"/>
<path d="" fill="#1D9AF3" transform="translate(0,0)"/>
<path d="" fill="#1D9AF3" transform="translate(0,0)"/>
<path d="" fill="#1D9AF3" transform="translate(0,0)"/>
<path d="" fill="#1D9AF3" transform="translate(0,0)"/>
<path d="" fill="#1D9AF3" transform="translate(0,0)"/>
<path d="" fill="#1D9AF3" transform="translate(0,0)"/>
<path d="" fill="#1D9AF3" transform="translate(0,0)"/>
<path d="" fill="#1D9AF3" transform="translate(0,0)"/>
<path d="" fill="#1C99F2" transform="translate(0,0)"/>
</svg>
