<?xml version="1.0" encoding="UTF-8"?>
<svg version="1.1" xmlns="http://www.w3.org/2000/svg" width="820" height="169">
<path d="M0 0 C22.67630223 0 41.68803455 9.19643734 58.125 24.625 C71.93518734 38.91821456 81.16752184 59.05671878 82 79 C82.05994141 80.23556641 82.05994141 80.23556641 82.12109375 81.49609375 C82.67585843 103.98037999 74.94998354 125.22342073 60 142 C59.33484375 142.75925781 58.6696875 143.51851562 57.984375 144.30078125 C45.74637815 157.42263343 27.75636471 166.62414838 10 169 C6.7 169 3.4 169 0 169 C0 160.75 0 152.5 0 144 C4.455 143.01 4.455 143.01 9 142 C9.2129377 139.94940542 9.2129377 139.94940542 7.82312012 138.58261108 C7.27240845 138.03634064 6.72169678 137.49007019 6.15429688 136.92724609 C5.22333191 135.99650772 5.22333191 135.99650772 4.27355957 135.04696655 C3.59547241 134.37920197 2.91738525 133.71143738 2.21875 133.0234375 C1.53067261 132.33819 0.84259521 131.6529425 0.13366699 130.94692993 C-2.07292322 128.7515672 -4.28635402 126.56324584 -6.5 124.375 C-7.99394406 122.89108241 -9.48743969 121.40671321 -10.98046875 119.921875 C-14.64845146 116.2759867 -18.32207952 112.63586148 -22 109 C-20.57155796 105.75611086 -18.82810831 103.56177853 -16.34814453 101.04174805 C-15.60041779 100.27803391 -14.85269104 99.51431976 -14.08230591 98.72746277 C-13.27397308 97.91376724 -12.46564026 97.10007172 -11.6328125 96.26171875 C-10.80167938 95.42155716 -9.97054626 94.58139557 -9.11422729 93.71577454 C-7.35672777 91.94377671 -5.5964106 90.17456967 -3.83349609 88.40795898 C-1.13005175 85.69257406 1.55418474 82.95910337 4.23828125 80.22460938 C5.94676523 78.50666663 7.65636327 76.78983095 9.3671875 75.07421875 C10.17147186 74.25040207 10.97575623 73.42658539 11.80441284 72.57780457 C12.55844391 71.82985123 13.31247498 71.08189789 14.08935547 70.3112793 C14.74950653 69.64605759 15.40965759 68.98083588 16.08981323 68.29545593 C18 67 18 67 20.12898254 67.20385742 C24.06684501 68.87946978 26.83565866 72.32447804 29.8125 75.3125 C30.51826172 75.98990234 31.22402344 76.66730469 31.95117188 77.36523438 C32.61310547 78.02458984 33.27503906 78.68394531 33.95703125 79.36328125 C34.56522705 79.96438721 35.17342285 80.56549316 35.80004883 81.18481445 C37 83 37 83 36.98339844 84.91577148 C35.59387002 87.8607576 33.62958003 89.70508308 31.30859375 91.984375 C30.84389175 92.44483215 30.37918976 92.90528931 29.90040588 93.37969971 C28.41968181 94.84367811 26.92885481 96.29686041 25.4375 97.75 C24.42965336 98.74279449 23.42248367 99.7362767 22.41601562 100.73046875 C19.95180539 103.16166473 17.47842671 105.58328868 15 108 C19.06838173 112.8911484 23.34438078 117.47350753 27.875 121.9375 C28.46796875 122.52595703 29.0609375 123.11441406 29.671875 123.72070312 C31.11226466 125.14947674 32.5557967 126.57508132 34 128 C41.75529937 124.96006083 46.61398502 114.80119107 49.96875 107.5703125 C56.01669487 92.49626808 55.85289091 76.00779416 49.78125 60.984375 C43.0348428 46.36715941 32.7881763 36.5088423 18.09375 30.1328125 C12.17423532 27.96531344 6.11831341 26.51554552 0 25 C0 16.75 0 8.5 0 0 Z " fill="#030000" transform="translate(90,0)"/>
<path d="M0 0 C0 8.25 0 16.5 0 25 C-2.97 25.66 -5.94 26.32 -9 27 C-9.2129377 29.05059458 -9.2129377 29.05059458 -7.82312012 30.41738892 C-7.27240845 30.96365936 -6.72169678 31.50992981 -6.15429688 32.07275391 C-5.53365356 32.69324615 -4.91301025 33.3137384 -4.27355957 33.95303345 C-3.59547241 34.62079803 -2.91738525 35.28856262 -2.21875 35.9765625 C-1.18663391 37.00443375 -1.18663391 37.00443375 -0.13366699 38.05307007 C2.07292322 40.2484328 4.28635402 42.43675416 6.5 44.625 C7.99394406 46.10891759 9.48743969 47.59328679 10.98046875 49.078125 C14.64845146 52.7240133 18.32207952 56.36413852 22 60 C17.5021065 65.39190397 12.73873458 70.39391684 7.7578125 75.33984375 C6.98944061 76.10680069 6.22106873 76.87375763 5.42941284 77.66395569 C2.99696491 80.0908474 0.56104678 82.51422127 -1.875 84.9375 C-3.53408552 86.59156486 -5.19294202 88.24585945 -6.8515625 89.90039062 C-10.89839709 93.93625433 -14.94807953 97.96924277 -19 102 C-22.11966041 100.51136264 -24.24012613 98.99711308 -26.671875 96.5234375 C-27.33574219 95.853125 -27.99960937 95.1828125 -28.68359375 94.4921875 C-29.70646484 93.44417969 -29.70646484 93.44417969 -30.75 92.375 C-31.44738281 91.66859375 -32.14476562 90.9621875 -32.86328125 90.234375 C-34.58012488 88.49401297 -36.29211832 86.74915019 -38 85 C-33.47008204 79.56266945 -28.65705784 74.53541069 -23.625 69.5625 C-22.88894531 68.83095703 -22.15289062 68.09941406 -21.39453125 67.34570312 C-19.59863926 65.56147277 -17.80044015 63.77963876 -16 62 C-17.45745424 58.63664406 -19.31117854 56.45465995 -21.9140625 53.890625 C-22.67460938 53.13652344 -23.43515625 52.38242187 -24.21875 51.60546875 C-25.0128125 50.82816406 -25.806875 50.05085938 -26.625 49.25 C-27.42679688 48.45722656 -28.22859375 47.66445313 -29.0546875 46.84765625 C-31.03202846 44.89385507 -33.01388909 42.94487897 -35 41 C-46.41393892 50.0663198 -52.08306929 62.19098427 -54.60546875 76.4140625 C-56.40453828 92.76600138 -52.23850049 107.90852565 -42.4375 121.0625 C-30.93362744 134.92614129 -17.05877089 140.25904147 0 144 C0 152.25 0 160.5 0 169 C-22.36668769 169 -42.01173468 159.96765917 -58.0625 144.4375 C-73.99870532 128.35678885 -82.15862274 107.05732897 -82.375 84.5 C-82.14752589 60.78582441 -73.31255227 41.04340138 -57 24 C-56.42507812 23.36191406 -55.85015625 22.72382813 -55.2578125 22.06640625 C-41.26306431 7.03377004 -19.96868534 0 0 0 Z " fill="#030000" transform="translate(82,0)"/>
<path d="M0 0 C6.6 0 13.2 0 20 0 C22.9712693 4.75403088 25.79015781 9.31060315 28.41015625 14.22265625 C29.00763672 15.33833984 29.60511719 16.45402344 30.22070312 17.60351562 C30.82849609 18.74498047 31.43628906 19.88644531 32.0625 21.0625 C33.28172433 23.34549434 34.50175393 25.62805883 35.72265625 27.91015625 C36.25640869 28.91183838 36.79016113 29.91352051 37.34008789 30.94555664 C39.17651577 34.32481083 41.09184253 37.66072443 43 41 C43.33 27.47 43.66 13.94 44 0 C50.93 0 57.86 0 65 0 C65 25.41 65 50.82 65 77 C58.07 77 51.14 77 44 77 C42.55625 74.23625 41.1125 71.4725 39.625 68.625 C36.01614982 61.74733779 32.33737816 54.91299693 28.5625 48.125 C28.15016113 47.38330566 27.73782227 46.64161133 27.31298828 45.87744141 C25.26465499 42.21071364 23.16248308 38.60413847 21 35 C20.67 48.86 20.34 62.72 20 77 C13.4 77 6.8 77 0 77 C0 51.59 0 26.18 0 0 Z " fill="#030000" transform="translate(676,46)"/>
<path d="M0 0 C8.12625 -0.28875 16.2525 -0.5775 24.625 -0.875 C28.42765381 -1.06618408 28.42765381 -1.06618408 32.30712891 -1.26123047 C42.37957689 -1.56903248 51.80861969 -1.70903798 59.5390625 5.5234375 C67.15036042 13.92177027 67.11953332 24.43354791 66.82519531 35.22216797 C66.74994599 38.50235437 66.82459382 41.75578489 66.9140625 45.03515625 C66.97299157 54.87182803 66.40303699 63.90282902 59.5390625 71.4765625 C51.80861969 78.70903798 42.37957689 78.56903248 32.30712891 78.26123047 C29.77202637 78.13377441 27.23692383 78.00631836 24.625 77.875 C16.49875 77.58625 8.3725 77.2975 0 77 C0 51.59 0 26.18 0 0 Z M20 18 C20 31.53 20 45.06 20 59 C23.403125 59.061875 26.80625 59.12375 30.3125 59.1875 C31.38153564 59.21481201 32.45057129 59.24212402 33.55200195 59.27026367 C34.39722412 59.27775635 35.24244629 59.28524902 36.11328125 59.29296875 C37.40939331 59.31653442 37.40939331 59.31653442 38.73168945 59.34057617 C41.00780548 59.14027799 41.00780548 59.14027799 42.78051758 57.97192383 C44.69184483 54.88127513 44.42733641 51.68105448 44.3984375 48.15625 C44.40130768 47.39074829 44.40417786 46.62524658 44.40713501 45.83654785 C44.409175 44.21931213 44.40364963 42.6020517 44.39111328 40.98486328 C44.37505758 38.50887909 44.39096297 36.03452715 44.41015625 33.55859375 C44.40817381 31.98697556 44.4043301 30.41535839 44.3984375 28.84375 C44.40451019 28.10306274 44.41058289 27.36237549 44.4168396 26.59924316 C44.37721123 23.70430412 44.32554495 21.52641172 42.78051758 19.02807617 C40.428646 17.67009849 38.82326302 17.65775885 36.11328125 17.70703125 C35.26805908 17.71452393 34.42283691 17.7220166 33.55200195 17.72973633 C32.48296631 17.75704834 31.41393066 17.78436035 30.3125 17.8125 C26.909375 17.874375 23.50625 17.93625 20 18 Z " fill="#030000" transform="translate(752,46)"/>
<path d="M0 0 C7.21470749 6.5353565 12.35381246 15.83096868 13.0625 25.6015625 C13.31538705 38.47218235 10.53676979 48.21348157 1.69921875 57.87890625 C-5.61814384 64.93103395 -15.05606962 68.24086554 -25.12109375 68.34765625 C-36.72351157 67.75418219 -45.93179903 63.62423287 -54.0859375 55.38671875 C-60.86278684 47.53075327 -64.02251032 37.48918499 -63.5546875 27.13671875 C-61.98042253 15.4189939 -57.55942293 6.47228798 -48.36328125 -0.99609375 C-33.66947198 -11.24758859 -14.19521589 -10.98408986 0 0 Z M-40.61328125 20.06640625 C-43.28873369 25.63134732 -43.86116243 30.15204464 -41.98828125 36.06640625 C-38.89372834 41.61525974 -36.31428455 45.1565625 -30.17578125 47.31640625 C-24.2098642 48.02570909 -19.23264447 47.84445036 -14.17578125 44.31640625 C-9.84494685 39.78871574 -7.50488454 36.22348528 -6.80078125 30.00390625 C-7.41226759 23.99095729 -9.63807725 19.35963141 -14.23828125 15.37890625 C-23.60096017 8.80511042 -33.53884319 12.08498895 -40.61328125 20.06640625 Z " fill="#030000" transform="translate(339.17578125,54.68359375)"/>
<path d="M0 0 C6.6 0 13.2 0 20 0 C20 9.57 20 19.14 20 29 C27.92 29 35.84 29 44 29 C44 19.43 44 9.86 44 0 C50.6 0 57.2 0 64 0 C64 25.41 64 50.82 64 77 C57.4 77 50.8 77 44 77 C44 67.1 44 57.2 44 47 C36.08 47 28.16 47 20 47 C20 56.9 20 66.8 20 77 C13.4 77 6.8 77 0 77 C0 51.59 0 26.18 0 0 Z " fill="#030000" transform="translate(204,46)"/>
<path d="M0 0 C0.74886475 0.00523682 1.49772949 0.01047363 2.26928711 0.01586914 C3.07817383 0.0190918 3.88706055 0.02231445 4.72045898 0.02563477 C5.5705957 0.03401367 6.42073242 0.04239258 7.29663086 0.05102539 C8.15063477 0.05553711 9.00463867 0.06004883 9.88452148 0.06469727 C12.00108749 0.07652166 14.11761771 0.0944577 16.23413086 0.11352539 C19.50715284 7.88172719 22.66714703 15.68332801 25.70288086 23.54711914 C26.10567261 24.58691422 26.50846436 25.62670929 26.92346191 26.69801331 C28.1951155 29.98179903 29.46464733 33.26640022 30.73413086 36.55102539 C31.58425413 38.74704203 32.43451356 40.94300596 33.28491211 43.13891602 C34.89969386 47.30890103 36.51133487 51.48007918 38.12084961 55.65209961 C39.38210076 58.91910214 40.65207414 62.18211694 41.94116211 65.43823242 C42.3987793 66.60080566 42.85639648 67.76337891 43.32788086 68.96118164 C43.89539063 70.38636108 43.89539063 70.38636108 44.47436523 71.84033203 C45.23413086 74.11352539 45.23413086 74.11352539 45.23413086 77.11352539 C38.63413086 77.11352539 32.03413086 77.11352539 25.23413086 77.11352539 C23.58413086 73.15352539 21.93413086 69.19352539 20.23413086 65.11352539 C11.65413086 65.11352539 3.07413086 65.11352539 -5.76586914 65.11352539 C-8.24086914 71.05352539 -8.24086914 71.05352539 -10.76586914 77.11352539 C-17.36586914 77.11352539 -23.96586914 77.11352539 -30.76586914 77.11352539 C-30.04425344 73.50544691 -29.32246713 70.65586654 -28.03515625 67.28930664 C-27.68065903 66.35642822 -27.3261618 65.4235498 -26.96092224 64.46240234 C-26.38290611 62.95939575 -26.38290611 62.95939575 -25.79321289 61.42602539 C-25.39187637 60.37310303 -24.99053986 59.32018066 -24.57704163 58.23535156 C-23.28950695 54.85998716 -21.99654435 51.48673227 -20.70336914 48.11352539 C-19.85990741 45.90533059 -19.01680494 43.69699853 -18.17407227 41.48852539 C-16.51470019 37.14105523 -14.85203143 32.79486646 -13.18725586 28.44946289 C-11.57971254 24.25013975 -9.98272102 20.04704436 -8.39526367 15.84008789 C-8.02542862 14.86193115 -7.65559357 13.88377441 -7.27455139 12.87597656 C-6.57835392 11.03322561 -5.88427316 9.18967315 -5.19261169 7.34521484 C-4.88622269 6.53528076 -4.57983368 5.72534668 -4.26416016 4.89086914 C-3.99749039 4.1818042 -3.73082062 3.47273926 -3.45606995 2.7421875 C-2.35822363 0.15160708 -2.35822363 0.15160708 0 0 Z M6.23413086 31.11352539 C5.39673305 33.23692699 4.56432803 35.36229819 3.73413086 37.48852539 C3.27006836 38.67188477 2.80600586 39.85524414 2.32788086 41.07446289 C1.12125292 43.88884979 1.12125292 43.88884979 1.23413086 46.11352539 C5.19413086 46.11352539 9.15413086 46.11352539 13.23413086 46.11352539 C11.04333146 38.50583087 11.04333146 38.50583087 8.23413086 31.11352539 C7.57413086 31.11352539 6.91413086 31.11352539 6.23413086 31.11352539 Z " fill="#030000" transform="translate(622.765869140625,45.886474609375)"/>
<path d="M0 0 C6.6 0 13.2 0 20 0 C23.3 7.26 26.6 14.52 30 22 C32.23612986 19.01849353 33.60964114 16.96147936 35.04296875 13.671875 C35.51899536 12.5905127 35.51899536 12.5905127 36.00463867 11.48730469 C36.59015503 10.13233887 36.59015503 10.13233887 37.1875 8.75 C38.445625 5.8625 39.70375 2.975 41 0 C47.6 0 54.2 0 61 0 C59.87506318 6.74962092 59.87506318 6.74962092 58.34179688 10.0300293 C58.00474731 10.76066086 57.66769775 11.49129242 57.32043457 12.24406433 C56.95687866 13.01301529 56.59332275 13.78196625 56.21875 14.57421875 C55.84520386 15.37986771 55.47165771 16.18551666 55.08679199 17.01557922 C53.89803643 19.57613698 52.69942327 22.13192433 51.5 24.6875 C50.30257817 27.25467434 49.10720787 29.82278822 47.91320801 32.39155579 C47.17108804 33.98642745 46.426622 35.58021 45.67956543 37.17277527 C45.34251587 37.89395035 45.00546631 38.61512543 44.65820312 39.3581543 C44.36143677 39.99069626 44.06467041 40.62323822 43.75891113 41.27494812 C41.98495071 45.30726974 41.80861392 48.69851281 41.68359375 53.07421875 C41.66281265 53.7580513 41.64203156 54.44188385 41.62062073 55.1464386 C41.55533846 57.3266921 41.49633983 59.50706405 41.4375 61.6875 C41.39429447 63.16732986 41.35067953 64.64714783 41.30664062 66.12695312 C41.19890975 69.75118254 41.09967893 73.37550438 41 77 C34.07 77 27.14 77 20 77 C20.22236328 74.39158203 20.22236328 74.39158203 20.44921875 71.73046875 C21.50580401 48.1210307 13.28289614 29.97223314 2.87103271 9.10389709 C2.49392151 8.34225754 2.1168103 7.58061798 1.72827148 6.79589844 C1.39375473 6.13217224 1.05923798 5.46844604 0.71458435 4.78460693 C0 3 0 3 0 0 Z " fill="#030000" transform="translate(465,46)"/>
<path d="M0 0 C6.93 0 13.86 0 21 0 C21 19.47 21 38.94 21 59 C29.91 59 38.82 59 48 59 C48 64.94 48 70.88 48 77 C32.16 77 16.32 77 0 77 C0 51.59 0 26.18 0 0 Z " fill="#030000" transform="translate(360,46)"/>
<path d="M0 0 C6.6 0 13.2 0 20 0 C20 19.47 20 38.94 20 59 C29.24 59 38.48 59 48 59 C48 64.94 48 70.88 48 77 C32.16 77 16.32 77 0 77 C0 51.59 0 26.18 0 0 Z " fill="#030000" transform="translate(536,46)"/>
<path d="M0 0 C6.6 0 13.2 0 20 0 C20 19.47 20 38.94 20 59 C29.24 59 38.48 59 48 59 C48 64.94 48 70.88 48 77 C32.16 77 16.32 77 0 77 C0 51.59 0 26.18 0 0 Z " fill="#030000" transform="translate(416,46)"/>
</svg>
