<?xml version="1.0" encoding="UTF-8"?>
<svg version="1.1" xmlns="http://www.w3.org/2000/svg" width="2560" height="451">
<path d="M0 0 C1.19093262 0.17160645 2.38186523 0.34321289 3.60888672 0.52001953 C41.95299584 6.08874868 80.26275667 15.96121135 115.63671875 31.98046875 C116.7669043 32.4904541 117.89708984 33.00043945 119.06152344 33.52587891 C121.26604393 34.52929603 123.46373967 35.54788363 125.65332031 36.58349609 C126.65331055 37.04191895 127.65330078 37.5003418 128.68359375 37.97265625 C129.56587646 38.38781494 130.44815918 38.80297363 131.35717773 39.23071289 C134.64544801 40.18788053 136.72698842 39.95423495 140 39 C144.28872503 32.56691245 142.61390187 23.72196258 143 16 C162.14 16 181.28 16 201 16 C201 61.87 201 107.74 201 155 C183.84 155 166.68 155 149 155 C147.02 149.06 145.04 143.12 143 137 C138.51084141 127.73205968 133.90658767 119.62415522 127 112 C126.27425781 111.18144531 125.54851562 110.36289063 124.80078125 109.51953125 C87.53919641 69.79437055 15.91027127 59.61284953 -35.24902344 57.890625 C-78.06035435 56.84930348 -139.38395528 58.09284771 -172.80078125 89.46484375 C-178.47352042 96.00411146 -181.45927504 103.5927504 -182.3125 112.125 C-181.67082001 120.08183189 -179.088775 127.1580069 -173.01953125 132.51171875 C-160.76690877 141.54121423 -145.02065121 143.11782162 -130.390625 145.40625 C-129.34907698 145.56961601 -129.34907698 145.56961601 -128.28648758 145.73628235 C-113.38056896 148.05780892 -98.43333369 149.75025091 -83.42627335 151.28832245 C-79.87805567 151.65447454 -76.33105904 152.03211247 -72.78393555 152.40869141 C-61.38854092 153.61599448 -49.99107332 154.80183498 -38.58996582 155.95405579 C136.54455934 173.69810673 136.54455934 173.69810673 190 217 C191.01320313 217.78117187 191.01320313 217.78117187 192.046875 218.578125 C212.36122264 234.79232908 225.41677285 263.90586282 228.71875 289.2421875 C230.98885763 319.57334774 225.63776513 349.02819549 205.625 372.875 C196.94791032 382.81412938 187.06941406 390.87038597 176 398 C174.34097656 399.07701172 174.34097656 399.07701172 172.6484375 400.17578125 C130.34897471 426.93362196 78.21752948 438.32071189 29 443 C28.01588135 443.09571289 27.0317627 443.19142578 26.01782227 443.29003906 C-15.97202908 446.84197373 -57.87069131 443.6308497 -99 435 C-99.65824768 434.86315796 -100.31649536 434.72631592 -100.99468994 434.58532715 C-130.99087542 428.34512067 -161.05865421 420.38662057 -189.30859375 408.359375 C-190.31043701 407.93325928 -191.31228027 407.50714355 -192.34448242 407.06811523 C-194.22938867 406.25355571 -196.10654638 405.42073195 -197.97387695 404.56665039 C-203.0398478 402.32960618 -203.0398478 402.32960618 -208.484375 402.63671875 C-211.07725258 403.88740025 -211.07725258 403.88740025 -213 406 C-213.495 418.87 -213.495 418.87 -214 432 C-235.12 432 -256.24 432 -278 432 C-278 379.53 -278 327.06 -278 273 C-259.19 273 -240.38 273 -221 273 C-219.68 279.93 -218.36 286.86 -217 294 C-207.62825432 321.89728948 -185.8835527 340.87609059 -160.17480469 353.94580078 C-90.61025968 387.66601916 3.14491449 395.52551951 76.50537109 370.51367188 C92.96673118 364.67340045 108.02351666 358.52449041 116 342 C120.04640606 332.45658949 120.44048245 322.18973986 117.02734375 312.375 C112.85001986 302.71791663 106.52531341 296.92053669 96.9453125 292.6328125 C93.33727797 291.26600413 89.69844971 290.09031519 86 289 C85.3287207 288.79665039 84.65744141 288.59330078 83.96582031 288.38378906 C73.36015762 285.24372911 62.5726539 283.31432538 51.640625 281.7109375 C50.93148453 281.60623013 50.22234406 281.50152275 49.49171448 281.39364243 C24.75034871 277.77450096 -0.1597981 275.38640947 -25.02032471 272.75195312 C-51.43616756 269.95192437 -77.81406558 267.04161646 -104.12109375 263.33984375 C-105.13140656 263.19795246 -106.14171936 263.05606117 -107.18264771 262.90987015 C-214.41365964 247.76309692 -214.41365964 247.76309692 -253 215 C-253.969375 214.18917969 -254.93875 213.37835938 -255.9375 212.54296875 C-272.50051178 198.30896471 -282.72605914 179.0420521 -288 158 C-288.2781958 156.92552612 -288.2781958 156.92552612 -288.56201172 155.8293457 C-290.31715582 148.24746766 -290.397031 140.68926629 -290.375 132.9375 C-290.37478851 132.2519101 -290.37457703 131.56632019 -290.37435913 130.85995483 C-290.34129188 120.11874071 -289.53653935 110.20378567 -286 100 C-285.63777344 98.948125 -285.27554687 97.89625 -284.90234375 96.8125 C-277.57961855 77.74859167 -265.36352862 62.12826239 -249 50 C-247.74703125 49.02546875 -247.74703125 49.02546875 -246.46875 48.03125 C-208.61810168 19.30123983 -159.1936854 6.89607975 -113 0 C-111.93475098 -0.16661133 -110.86950195 -0.33322266 -109.77197266 -0.50488281 C-74.23480337 -5.86458703 -35.49519152 -5.46038891 0 0 Z " fill="#000000" transform="translate(290,3)"/>
<path d="M0 0 C25.70462528 -0.29386055 51.40788329 -0.53315878 77.11376381 -0.67355824 C89.05041413 -0.74049124 100.98594403 -0.83168338 112.921875 -0.98071289 C123.32965887 -1.11059993 133.73663111 -1.19422972 144.14520299 -1.22315043 C149.65308815 -1.2400479 155.15865217 -1.27953315 160.66579056 -1.37449074 C165.85891869 -1.46330126 171.04878976 -1.48984174 176.24260521 -1.47039986 C178.13972297 -1.47395163 180.03695921 -1.49948518 181.93341637 -1.54967117 C191.07690425 -1.77959277 198.02669282 -1.65761672 205.15012777 4.5799306 C207.43438204 6.80528024 209.58738887 9.11084565 211.6793201 11.51717341 C213.33445309 13.37551562 215.14758281 14.97690506 217.0625 16.5625 C220.61751998 19.62822691 224.05869399 22.80812047 227.5 26 C231.58296726 29.78636124 235.69769912 33.51767218 239.91015625 37.16015625 C243.18114489 40.03984905 246.37503091 43.00354253 249.58056641 45.95556641 C252.33491097 48.48754824 255.1075121 50.99042801 257.9375 53.4375 C262.12032011 57.06144644 266.16271807 60.83255746 270.22021484 64.59521484 C273.73212744 67.84615512 277.29001418 71.02984313 280.91015625 74.16015625 C283.64370559 76.56670156 286.32114006 79.03303196 289 81.5 C292.30026876 84.53890177 295.60949347 87.561561 299 90.5 C302.87817013 93.86322638 306.65527811 97.33335671 310.43310547 100.80810547 C315.25584891 105.24223628 320.1234112 109.6251824 325 114 C326.66692647 115.49971128 328.33359149 116.99971321 330 118.5 C330.825 119.2425 331.65 119.985 332.5 120.75 C340 127.5 340 127.5 342.5078125 129.7578125 C344.14739879 131.23292618 345.78799655 132.70691652 347.4296875 134.1796875 C352.0203061 138.30097768 356.58447107 142.44873788 361.125 146.625 C364.99367822 150.18253099 368.90334125 153.68289575 372.875 157.125 C376.15508581 160.01919336 379.36268057 162.99218892 382.58032227 165.95532227 C385.33473428 168.48740116 388.10742499 170.99035268 390.9375 173.4375 C395.12032011 177.06144644 399.16271807 180.83255746 403.22021484 184.59521484 C406.73212744 187.84615512 410.29001418 191.02984313 413.91015625 194.16015625 C417.18114489 197.03984905 420.37503091 200.00354253 423.58056641 202.95556641 C426.33491097 205.48754824 429.1075121 207.99042801 431.9375 210.4375 C436.12032011 214.06144644 440.16271807 217.83255746 444.22021484 221.59521484 C447.72404616 224.83867437 451.27175423 228.01716692 454.88671875 231.13671875 C458.30244071 234.1483627 461.63461811 237.25219343 464.96508789 240.35766602 C467.76304345 242.98227621 467.76304345 242.98227621 471 245 C471.12791591 210.60664552 470.85711893 176.23148836 470.25537109 141.84326172 C470.14336521 135.4196205 470.0436407 128.99584616 469.94656563 122.57196426 C469.86845073 117.52727561 469.78238992 112.48274501 469.6941185 107.43822479 C469.65385221 105.067081 469.6163433 102.69588846 469.58185196 100.32465363 C470.71052026 76.69700592 470.71052026 76.69700592 462 56 C456.68645558 52.63836986 452.04978442 51.88282214 445.85449219 51.79467773 C444.61350769 51.77473251 443.37252319 51.75478729 442.09393311 51.73423767 C440.744915 51.71725607 439.39589559 51.70037717 438.046875 51.68359375 C436.66253049 51.66301124 435.27819208 51.64201443 433.89385986 51.62062073 C430.257456 51.56553393 426.62099667 51.51606586 422.98449707 51.46777344 C419.27086484 51.41746036 415.55731173 51.36187688 411.84375 51.30664062 C404.56256094 51.19872591 397.2813266 51.09959905 390 51 C390 34.17 390 17.34 390 0 C467.88 0 545.76 0 626 0 C626 16.83 626 33.66 626 51 C619.5340625 51.05607422 619.5340625 51.05607422 612.9375 51.11328125 C609.48350569 51.1514326 606.02957337 51.19250503 602.57563782 51.2355423 C598.93895603 51.28006016 595.30238565 51.31952401 591.66552734 51.34643555 C588.15749649 51.37259403 584.64988802 51.41308266 581.14212036 51.46318626 C579.16377354 51.48779887 577.18526287 51.49786723 575.20678711 51.50764465 C564.03486073 51.67087872 564.03486073 51.67087872 554.625 57.1875 C550.66041773 64.04927701 550.70988916 71.2700398 550.75195312 78.97680664 C550.749944 80.65143006 550.749944 80.65143006 550.74789429 82.35988426 C550.74770859 85.51199078 550.75748675 88.66387396 550.77250862 91.81593966 C550.78138359 93.87870486 550.78652027 95.94144858 550.79057312 98.00422859 C550.88873447 145.26502009 551.71540771 192.52498434 552.39068604 239.78009033 C552.66267102 258.81679871 552.93070315 277.85356141 553.19290113 296.89040715 C553.29044755 303.95777088 553.3909918 311.02508309 553.49395514 318.09236985 C553.8942075 345.73020496 554.09462306 373.35925999 554 401 C544.29574211 401.15923605 534.59203828 401.31299014 524.88671875 401.390625 C518.94554194 401.43837559 513.00535523 401.49474421 507.06494141 401.60351562 C502.27322581 401.69070075 497.48257229 401.73832792 492.69012451 401.75901794 C490.86561366 401.77375393 489.04115835 401.80253185 487.21710205 401.84584045 C472.92317084 402.17159835 472.92317084 402.17159835 468.1875 399.28662109 C466.18939276 397.29630464 464.6294135 395.29290111 463 393 C461.73816216 391.82139826 460.44918391 390.67059466 459.125 389.5625 C456.04714069 386.91312699 453.013147 384.22288972 450 381.5 C447.04130249 378.82951656 444.07073528 376.17701942 441.0625 373.5625 C436.86835635 369.91062947 432.76905708 366.15733816 428.66015625 362.41015625 C425.81244205 359.83006864 422.92755982 357.29798144 420.02734375 354.77734375 C416.79875322 351.94688384 413.62086825 349.06038793 410.43359375 346.18359375 C408.32488854 344.29151315 406.20080199 342.42094242 404.0625 340.5625 C399.86835635 336.91062947 395.76905708 333.15733816 391.66015625 329.41015625 C388.80972966 326.82761116 385.92174108 324.29344897 383.01953125 321.76953125 C378.10263444 317.46130252 373.27360968 313.05313844 368.421875 308.671875 C364.63525041 305.25694362 360.84416383 301.85013474 357 298.5 C351.41020011 293.62856797 345.92465102 288.6410485 340.421875 283.671875 C335.99878599 279.68295423 331.55384995 275.72432093 327.0625 271.8125 C323.8248667 268.9673071 320.6331371 266.07146164 317.43359375 263.18359375 C315.32488854 261.29151315 313.20080199 259.42094242 311.0625 257.5625 C306.86835635 253.91062947 302.76905708 250.15733816 298.66015625 246.41015625 C295.81244205 243.83006864 292.92755982 241.29798144 290.02734375 238.77734375 C286.79875322 235.94688384 283.62086825 233.06038793 280.43359375 230.18359375 C278.32488854 228.29151315 276.20080199 226.42094242 274.0625 224.5625 C269.86835635 220.91062947 265.76905708 217.15733816 261.66015625 213.41015625 C258.80972966 210.82761116 255.92174108 208.29344897 253.01953125 205.76953125 C248.10263444 201.46130252 243.27360968 197.05313844 238.421875 192.671875 C233.99878599 188.68295423 229.55384995 184.72432093 225.0625 180.8125 C221.8248667 177.9673071 218.6331371 175.07146164 215.43359375 172.18359375 C213.32488854 170.29151315 211.20080199 168.42094242 209.0625 166.5625 C204.86835635 162.91062947 200.76905708 159.15733816 196.66015625 155.41015625 C193.80972966 152.82761116 190.92174108 150.29344897 188.01953125 147.76953125 C183.10263444 143.46130252 178.27360968 139.05313844 173.421875 134.671875 C168.81188559 130.51439989 164.18138492 126.38502673 159.49609375 122.3125 C158.64347059 121.56450684 157.80201622 120.80201622 157 120 C156.95322117 146.63453644 156.91798234 173.26906669 156.89637566 199.90363598 C156.8860754 212.27130191 156.87203899 224.63894228 156.84912109 237.0065918 C156.82914892 247.78974831 156.81627448 258.5728863 156.81182301 269.3560608 C156.80922212 275.06244692 156.80313496 280.76878006 156.78853989 286.47514915 C156.77489548 291.8537533 156.77079116 297.23228298 156.77378464 302.61090279 C156.77323753 304.57760397 156.76930118 306.54430782 156.76158905 308.51099396 C155.84951804 328.35279857 155.84951804 328.35279857 163 346 C170.38247495 349.78834576 177.85773711 349.47581435 186 349.51171875 C187.44589744 349.52858873 188.89178043 349.54674206 190.33764648 349.56611633 C194.1186674 349.6133713 197.89962968 349.64333821 201.68084717 349.66955566 C206.2307622 349.70476042 210.78045215 349.76170253 215.33018494 349.81494904 C222.22009363 349.89317536 229.10971355 349.94399711 236 350 C236 366.83 236 383.66 236 401 C159.77 401 83.54 401 5 401 C5 384.17 5 367.34 5 350 C9.26164062 349.96261719 13.52328125 349.92523438 17.9140625 349.88671875 C21.32177275 349.84858636 24.72941947 349.80751376 28.1370697 349.7644577 C31.72889054 349.71987877 35.32059692 349.68042705 38.91259766 349.65356445 C42.37523752 349.62746856 45.83744493 349.58702301 49.29981613 349.53681374 C51.25720168 349.51212068 53.21475477 349.50211639 55.17227173 349.49235535 C56.37306366 349.47256119 57.57385559 349.45276703 58.81103516 349.43237305 C59.86360504 349.42126999 60.91617493 349.41016693 62.00064087 349.39872742 C66.84905775 348.75419082 70.07723852 347.07655506 73.25 343.375 C77.06715608 336.01334184 77.29257171 328.38355723 77.26069641 320.22828674 C77.26452196 319.17817962 77.26834751 318.1280725 77.27228898 317.04614395 C77.28256471 313.54576628 77.27863714 310.04555431 77.2746582 306.54516602 C77.27900764 304.02807464 77.28419156 301.51098458 77.29014587 298.99389648 C77.30213353 292.87763122 77.30469042 286.76142652 77.30234561 280.6451518 C77.30055905 275.67166767 77.30231933 270.69819683 77.30657005 265.72471428 C77.30716524 265.01555308 77.30776043 264.30639188 77.30837366 263.57574094 C77.30958547 262.13486306 77.3107996 260.69398518 77.31201603 259.2531073 C77.32287961 245.75620775 77.32073455 232.25933322 77.31463119 218.76243227 C77.30946183 206.42836282 77.32072006 194.09437235 77.33972941 181.76031853 C77.35912338 169.07897868 77.36736115 156.39767617 77.36360615 143.71632141 C77.36169664 136.60337628 77.36415742 129.49049838 77.37832069 122.37756538 C77.39150515 115.68885435 77.38895338 109.00032679 77.37590981 102.31160736 C77.37354492 99.85987482 77.37627554 97.40813114 77.38453293 94.95641136 C77.39500899 91.6036571 77.38689229 88.25143239 77.3742218 84.8986969 C77.38528323 83.45163757 77.38528323 83.45163757 77.39656812 81.97534472 C77.32796348 73.31622867 75.93835372 64.96215494 69.8125 58.46875 C63.98612538 53.74737746 56.85344928 51.91278474 49.49707031 51.79467773 C47.84581146 51.7647599 47.84581146 51.7647599 46.16119385 51.73423767 C44.97878113 51.71752518 43.79636841 51.70081268 42.578125 51.68359375 C41.36300232 51.66281265 40.14787964 51.64203156 38.89593506 51.62062073 C35.01401427 51.55523172 31.1320258 51.49628949 27.25 51.4375 C24.61848258 51.39430468 21.98697201 51.35069006 19.35546875 51.30664062 C12.9037142 51.19877217 6.45190833 51.09961882 0 51 C0 34.17 0 17.34 0 0 Z " fill="#000000" transform="translate(1273,25)"/>
<path d="M0 0 C1.34367748 0.00475035 2.6873564 0.00910987 4.03103638 0.01309204 C23.73740861 0.08071595 43.16040618 0.5467859 62.6875 3.375 C63.92193848 3.54660645 65.15637695 3.71821289 66.42822266 3.89501953 C137.64348598 14.02465976 212.72448949 44.36559341 257.83007812 103.10717773 C290.62853213 146.92655154 304.17927503 200.12327475 296.6875 254.375 C290.43797496 293.77670591 274.01225021 330.89405165 246.69140625 360.21875 C244.82967233 362.22201924 243.0701884 364.28073297 241.3125 366.375 C190.51107566 424.23539219 101.67338596 445.7316012 28.20703125 450.9453125 C18.25044319 451.56679949 8.28504188 451.5740313 -1.6875 451.5625 C-3.14181931 451.56159363 -3.14181931 451.56159363 -4.6255188 451.56066895 C-19.9428145 451.53482681 -35.08226641 451.14444782 -50.3125 449.375 C-51.4454248 449.24609375 -52.57834961 449.1171875 -53.74560547 448.984375 C-122.36464363 440.93019093 -192.07431026 417.27407916 -242.84912109 368.77099609 C-243.8235153 367.84146889 -244.8030249 366.91727418 -245.78759766 365.99853516 C-281.11533425 332.97554052 -301.48200219 284.29698323 -303.43798828 236.29541016 C-305.11784742 179.66136507 -286.52620823 128.6790839 -247.87939453 87.13769531 C-227.25385656 65.31412767 -201.91840958 50.69414125 -175.3125 37.375 C-174.51312012 36.9728125 -173.71374023 36.570625 -172.89013672 36.15625 C-120.01967387 9.94287655 -58.44996728 -0.36250677 0 0 Z M-123.3125 102.375 C-124.39536172 103.22976447 -125.47860831 104.08404197 -126.5625 104.9375 C-130.18630853 108.14951211 -133.22963385 111.64715801 -136.3125 115.375 C-137.13878906 116.35210937 -137.96507812 117.32921875 -138.81640625 118.3359375 C-167.64742961 153.14044059 -178.5734096 199.45233225 -174.75 244 C-170.64919838 282.88418502 -153.62796361 317.65245049 -126.3125 345.375 C-125.56097656 346.13941406 -124.80945313 346.90382813 -124.03515625 347.69140625 C-91.86697752 378.42988814 -43.49537291 392.11661311 0.07348633 391.72875977 C48.36141136 390.36573546 94.70914141 373.74723488 128.66796875 338.64453125 C154.55253703 309.55568373 169.56657545 273.50988771 170.6875 234.375 C170.72746094 233.10269531 170.76742188 231.83039063 170.80859375 230.51953125 C171.46000363 199.29602048 164.68137817 168.78825803 149.6875 141.375 C149.33816406 140.73288574 148.98882813 140.09077148 148.62890625 139.42919922 C143.32062147 129.80671778 137.15138475 121.42988849 129.6875 113.375 C129.19266113 112.83633301 128.69782227 112.29766602 128.18798828 111.74267578 C97.36977385 78.56064816 51.63517719 60.97600182 6.82177734 59.265625 C-40.93397285 58.02097277 -86.62073398 71.12136626 -123.3125 102.375 Z " fill="#000000" transform="translate(914.3125,-0.375)"/>
<path d="M0 0 C91.41 0 182.82 0 277 0 C277 16.83 277 33.66 277 51 C258.25 51.25 258.25 51.25 252.34863281 51.29785156 C250.80009999 51.3272241 249.25159377 51.3580504 247.703125 51.390625 C246.90310059 51.39175293 246.10307617 51.39288086 245.27880859 51.39404297 C241.66368791 51.48697084 239.4336549 51.68788852 236.45996094 53.828125 C234.69570315 56.02866313 234.69570315 56.02866313 234.9375 59.359375 C236.15942134 63.54625253 238.09771665 66.12240973 241 69.25 C242.01261193 70.39113512 243.0243186 71.53307414 244.03515625 72.67578125 C244.53934082 73.2373291 245.04352539 73.79887695 245.56298828 74.37744141 C247.59515167 76.67199763 249.51568567 79.05021872 251.4375 81.4375 C254.89274151 85.68392382 258.42697834 89.85296294 262 94 C266.31928956 99.01319488 270.55097119 104.0853732 274.72265625 109.22265625 C277.28204054 112.34396367 279.88593791 115.4245003 282.5 118.5 C286.62107792 123.34954051 290.66991483 128.25160964 294.6875 133.1875 C297.26146392 136.31799666 299.87569086 139.41172461 302.5 142.5 C306.61324736 147.34045131 310.65535713 152.23248774 314.6640625 157.16015625 C317.82719112 161.00563202 321.04907139 164.80007455 324.28320312 168.5859375 C326.61748657 171.32692626 328.88125959 174.08848586 331 177 C334.76478859 175.74507047 335.69380667 174.16902481 338.125 171.0625 C341.15073542 167.2680907 344.22397726 163.58063538 347.5 160 C350.52282421 156.68010514 353.42512161 153.30235888 356.25 149.8125 C361.46386438 143.37451094 366.91041253 137.14836434 372.34912109 130.90087891 C380.65189203 121.34078212 388.83218928 111.67535185 397 102 C398.81190825 99.853666 400.62432337 97.70776263 402.4375 95.5625 C402.88730225 95.03019775 403.33710449 94.49789551 403.80053711 93.94946289 C406.71344651 90.50702762 409.6448392 87.08110774 412.58691406 83.66357422 C414.58938986 81.33498094 416.58449239 79.00015675 418.57763672 76.66357422 C419.51128618 75.57159217 420.44772519 74.48198779 421.38720703 73.39501953 C422.6629279 71.91686252 423.92555496 70.42743511 425.1875 68.9375 C425.90292969 68.10089844 426.61835938 67.26429687 427.35546875 66.40234375 C429.12911135 63.81139316 429.76606865 62.11738949 430 59 C428.42042918 54.70200702 428.42042918 54.70200702 425 52 C422.08534925 51.84280997 419.1904253 51.74136847 416.2734375 51.68359375 C415.50878174 51.66494263 414.74412598 51.6462915 413.95629883 51.6270752 C411.09598503 51.55870285 408.23547835 51.49860181 405.375 51.4375 C398.98125 51.293125 392.5875 51.14875 386 51 C386 34.17 386 17.34 386 0 C460.91 0 535.82 0 613 0 C613 16.83 613 33.66 613 51 C606.46058594 51.05607422 606.46058594 51.05607422 599.7890625 51.11328125 C596.2887841 51.15145107 592.78856621 51.19252331 589.28834534 51.2355423 C585.6068026 51.28000075 581.92536834 51.31947608 578.24365234 51.34643555 C574.69023031 51.37265531 571.13722096 51.4131852 567.58405685 51.46318626 C565.58474883 51.48772061 563.58528052 51.49785115 561.58584595 51.50764465 C546.82957327 51.74309861 537.15411443 55.66401132 526.73046875 66.25 C520.93980508 72.31753505 515.54846513 78.67522064 510.30859375 85.22265625 C507.64720542 88.42442799 504.84537754 91.46234918 502 94.5 C498.35111551 98.39576281 494.84301562 102.33334284 491.5 106.5 C487.68005989 111.26108478 483.61061181 115.71273025 479.44140625 120.1640625 C476.32431446 123.51116869 473.36418887 126.93014141 470.5 130.5 C466.16072656 135.90436782 461.49603585 140.94955123 456.7734375 146.015625 C452.46894486 150.63353761 448.35687595 155.40761607 444.26171875 160.2109375 C443.23716908 161.41162041 442.21242354 162.61213621 441.1875 163.8125 C440.67018311 164.41868164 440.15286621 165.02486328 439.61987305 165.64941406 C436.41497771 169.3907082 433.14790722 173.06115383 429.8125 176.6875 C426.62263156 180.16136309 423.57951106 183.69910025 420.625 187.375 C416.75781137 192.1714071 412.65019284 196.6704146 408.44189453 201.16357422 C405.32460664 204.51081785 402.36433518 207.92995906 399.5 211.5 C395.16935467 216.89362191 390.51528454 221.92959501 385.80078125 226.984375 C382.4467653 230.58205398 379.1987383 234.26387367 376 238 C375.50628906 238.56460938 375.01257812 239.12921875 374.50390625 239.7109375 C370.0985534 244.82763628 369.85098833 248.66506928 369.85473633 255.19995117 C369.85137772 256.03609955 369.8480191 256.87224792 369.84455872 257.73373413 C369.83504527 260.50349405 369.83310512 263.2731935 369.83203125 266.04296875 C369.82881791 267.97007777 369.82545378 269.89718654 369.82194519 271.82429504 C369.81595221 275.86862757 369.81410536 279.91293873 369.81469727 283.95727539 C369.81479866 289.12764421 369.80117058 294.297875 369.78392506 299.46821117 C369.7727769 303.45146813 369.77077896 307.43469207 369.77130699 311.41796303 C369.77013019 313.32325019 369.76572533 315.22853829 369.75797462 317.13381004 C369.74812205 319.80699527 369.75107395 322.47988568 369.75708008 325.15307617 C369.75146057 325.93311508 369.74584106 326.71315399 369.74005127 327.51683044 C369.77599951 333.84769072 370.22116145 339.78847099 374.3125 344.875 C378.92643396 348.52322686 382.70963067 349.25098599 388.53442383 349.31884766 C390.48588066 349.34865219 390.48588066 349.34865219 392.47676086 349.37905884 C393.88684927 349.39093351 395.29693947 349.40259647 396.70703125 349.4140625 C398.15721223 349.4327836 399.60738242 349.45235772 401.05754089 349.4727478 C404.86324696 349.52397569 408.6689883 349.56365114 412.47485352 349.60089111 C417.04719141 349.64804708 421.61935554 349.70960469 426.19155121 349.76873779 C433.1276303 349.85683618 440.06367801 349.92668144 447 350 C447 366.83 447 383.66 447 401 C355.92 401 264.84 401 171 401 C171 384.17 171 367.34 171 350 C175.3828125 349.97421875 179.765625 349.9484375 184.28125 349.921875 C187.79260398 349.89016326 191.30386915 349.85451111 194.81515503 349.81620789 C198.51253066 349.77694931 202.20966856 349.74451225 205.90722656 349.72900391 C209.47369583 349.71377536 213.03951781 349.67922247 216.60569763 349.63169098 C218.61728038 349.6097991 220.62904608 349.6075316 222.64074707 349.60565186 C230.68492246 349.47780277 236.90647563 348.96147519 242.9375 343.125 C245.49289844 338.01420313 245.18013126 332.10658311 245.25634766 326.50708008 C245.27095032 325.6753125 245.28555298 324.84354492 245.30059814 323.98657227 C245.42630741 316.34063888 245.49532135 308.69372118 245.54844093 301.04697132 C245.58419549 295.92075893 245.63753039 290.79611671 245.73388672 285.6706543 C245.82707941 280.69686572 245.87541824 275.72446529 245.89283371 270.74985313 C245.90685755 268.86361411 245.93633657 266.97741941 245.98213577 265.09168434 C246.36912851 252.37418994 246.36912851 252.37418994 240.61474609 241.44995117 C239.11353224 239.92916338 237.57967592 238.43911867 236 237 C235.07172633 235.97918545 234.15250757 234.94991394 233.25 233.90625 C232.5075 233.1121875 231.765 232.318125 231 231.5 C227.76402245 227.98565879 224.67365193 224.41609555 221.6875 220.6875 C217.61186956 215.63083286 213.2463704 210.91651697 208.79760742 206.19213867 C204.77670758 201.89891399 201.05010233 197.43762791 197.375 192.84375 C194.53535544 189.44364928 191.53611901 186.22413555 188.5 183 C183.89422554 178.10900556 179.5738633 173.09232912 175.375 167.84375 C172.53535544 164.44364928 169.53611901 161.22413555 166.5 158 C162.67792109 153.94123272 158.98562553 149.85703191 155.5 145.5 C150.93958074 139.80368295 145.98265337 134.52680934 140.99609375 129.20703125 C136.61883286 124.5360668 132.4485711 119.70252459 128.30078125 114.828125 C122.46981787 107.98481521 116.54591666 101.26016783 110.4453125 94.65625 C106.24986038 90.09888987 102.19426617 85.43288052 98.22265625 80.6796875 C86.07600719 66.20319806 73.37076212 53.88211111 53.64584351 51.61437988 C50.17958196 51.44874161 46.73187305 51.39423908 43.26171875 51.390625 C41.39154839 51.36582062 41.39154839 51.36582062 39.4835968 51.34051514 C35.55151247 51.29242833 31.61981373 51.270751 27.6875 51.25 C25.00060328 51.22396795 22.31378292 51.19230303 19.62695312 51.16015625 C13.08446466 51.08344704 6.54315341 51.0425571 0 51 C0 34.17 0 17.34 0 0 Z " fill="#000000" transform="translate(1947,25)"/>
</svg>
