<?xml version="1.0" encoding="UTF-8"?>
<svg version="1.1" xmlns="http://www.w3.org/2000/svg" width="1215" height="1215">
<path d="M0 0 C400.95 0 801.9 0 1215 0 C1215 400.95 1215 801.9 1215 1215 C814.05 1215 413.1 1215 0 1215 C0 814.05 0 413.1 0 0 Z " fill="#00005F" transform="translate(0,0)"/>
<path d="M0 0 C5.02159615 2.86054685 9.78242103 5.92337106 14.46044922 9.31396484 C15.94030803 10.37211006 17.42081332 11.42935153 18.90185547 12.48583984 C19.69092285 13.04980469 20.47999023 13.61376953 21.29296875 14.19482422 C25.9707278 17.51875517 30.68564224 20.78929114 35.39794922 24.06396484 C36.37666992 24.74563721 37.35539063 25.42730957 38.36376953 26.12963867 C42.73969751 29.17384199 47.12191582 32.20596172 51.54248047 35.18505859 C71.22960858 48.46539875 71.22960858 48.46539875 73.83544922 55.00146484 C74.09271812 57.98570633 74.09271812 57.98570633 74.10287476 61.54083252 C74.10740587 62.19605762 74.11193698 62.85128273 74.1166054 63.52636313 C74.12925796 65.72028399 74.1276285 67.91395687 74.12597656 70.10791016 C74.1319614 71.68170999 74.13876684 73.25550689 74.14633179 74.82929993 C74.16400632 79.10427295 74.16868785 83.37916592 74.16996336 87.65417194 C74.17138501 90.32637934 74.17565493 92.99856639 74.18095779 95.67076874 C74.19946481 104.99732251 74.20762781 114.3238191 74.20605469 123.65039062 C74.20485399 132.33684415 74.22594051 141.02304892 74.25754201 149.70943952 C74.28372127 157.17201569 74.29442125 164.63451072 74.29314387 172.09713244 C74.2926346 176.55195783 74.2982979 181.0065623 74.31949997 185.46134186 C74.33890952 189.65408124 74.33898845 193.84638965 74.32446671 198.03914452 C74.32238067 199.57417368 74.32706731 201.10922999 74.33918762 202.64421272 C74.46025329 219.04488135 74.46025329 219.04488135 68.03857422 225.92724609 C67.39404297 226.38486328 66.74951172 226.84248047 66.08544922 227.31396484 C65.28880859 227.88888672 64.49216797 228.46380859 63.67138672 229.05615234 C62.73552734 229.69810547 61.79966797 230.34005859 60.83544922 231.00146484 C59.7232892 231.77464227 58.61132251 232.54809782 57.49951172 233.32177734 C54.84850227 235.15765938 52.18794895 236.97892901 49.52294922 238.79443359 C45.20106518 241.74294786 40.90708744 244.73036542 36.61645508 247.72412109 C31.69482668 251.15764224 26.76508511 254.57945536 21.83544922 258.00146484 C20.80790527 258.71608887 19.78036133 259.43071289 18.72167969 260.16699219 C15.70149735 262.26409068 12.67558399 264.35264466 9.64794922 266.43896484 C8.72159668 267.08381836 7.79524414 267.72867187 6.84082031 268.39306641 C5.97924316 268.98442383 5.11766602 269.57578125 4.22998047 270.18505859 C3.47563721 270.70640381 2.72129395 271.22774902 1.9440918 271.76489258 C-2.63579693 274.45067889 -7.99645098 275.12207992 -13.16455078 274.00146484 C-18.13724123 271.43335187 -22.62626713 268.26304991 -27.16455078 265.00146484 C-28.27887885 264.2120419 -29.39345615 263.42297062 -30.50830078 262.63427734 C-32.79843781 261.00658777 -35.07845073 259.36551412 -37.35595703 257.72021484 C-41.61753936 254.65773032 -45.95188136 251.70473395 -50.28955078 248.75146484 C-57.20808951 244.03383073 -64.10692686 239.2893874 -70.97705078 234.50146484 C-71.80672363 233.9262207 -72.63639648 233.35097656 -73.49121094 232.75830078 C-75.73131273 231.19321633 -77.95238348 229.60572036 -80.16455078 228.00146484 C-81.054729 227.37304688 -81.054729 227.37304688 -81.96289062 226.73193359 C-85.8643246 223.78636893 -87.71203157 220.57607471 -89.16455078 216.00146484 C-89.54486752 212.64249325 -89.54486752 212.64249325 -89.55223083 209.08787537 C-89.55761637 208.42867586 -89.56300191 207.76947635 -89.56855065 207.0903011 C-89.58275748 204.90090759 -89.5757451 202.71212494 -89.56860352 200.52270508 C-89.57431081 198.94521604 -89.58127646 197.36773113 -89.58940125 195.79025269 C-89.60730511 191.51967954 -89.60616989 187.24931217 -89.60045886 182.9787128 C-89.59736396 179.40998075 -89.60346259 175.84128805 -89.60949761 172.27256161 C-89.6235312 163.85379343 -89.62199037 155.43512676 -89.6105957 147.01635742 C-89.59910656 138.33603736 -89.6132061 129.65602598 -89.63999218 120.97574657 C-89.66214944 113.51567869 -89.66878677 106.0557077 -89.66291577 98.59560925 C-89.65954614 94.14314156 -89.66196202 89.69087189 -89.67916679 85.23843193 C-89.69463508 81.0530259 -89.69068196 76.8680776 -89.67186165 72.68268967 C-89.66817588 71.14843775 -89.67128396 69.61415192 -89.68174744 68.07993126 C-89.69496066 65.98211792 -89.68340993 63.88581941 -89.66575623 61.78807068 C-89.66554694 60.6154238 -89.66533766 59.44277693 -89.66512203 58.2345953 C-88.51861006 50.8294102 -82.74951562 46.38818771 -77.16455078 42.00146484 C-73.86839093 39.59943571 -70.49641397 37.32442327 -67.10205078 35.06396484 C-65.14953209 33.7485908 -63.19773262 32.43214864 -61.24658203 31.11474609 C-60.24578613 30.44008301 -59.24499023 29.76541992 -58.21386719 29.0703125 C-53.20861563 25.67443566 -48.24941115 22.21315039 -43.28955078 18.75146484 C-41.37813658 17.42067229 -39.46667921 16.08994173 -37.55517578 14.75927734 C-34.14540594 12.38405442 -30.73968011 10.00319732 -27.33642578 7.61865234 C-25.90428593 6.62103853 -24.47200461 5.62362777 -23.03955078 4.62646484 C-22.09039795 3.95695801 -22.09039795 3.95695801 -21.12207031 3.27392578 C-14.07641628 -1.61410555 -8.12714187 -3.74915523 0 0 Z " fill="#01005F" transform="translate(615.16455078125,315.99853515625)"/>
<path d="M0 0 C0.74572266 -0.01305176 1.49144531 -0.02610352 2.25976562 -0.03955078 C6.07178202 -0.04563194 7.81399155 0.0218277 11.0625 2.1875 C12.03018188 4.60580444 12.03018188 4.60580444 12.87744141 7.70458984 C13.20336273 8.87438889 13.52928406 10.04418793 13.86508179 11.24943542 C14.21490403 12.54905919 14.56455888 13.84872802 14.9140625 15.1484375 C15.2883195 16.50670022 15.66363891 17.86467058 16.03994751 19.22236633 C16.84593956 22.13824936 17.64497138 25.05591675 18.43859863 27.97518921 C19.69239609 32.58656588 20.96127017 37.19369993 22.23339844 41.80004883 C22.66531232 43.36457021 23.09719694 44.92909967 23.52905273 46.49363708 C23.74421539 47.27311644 23.95937805 48.05259579 24.18106079 48.85569572 C24.84005538 51.24540139 25.49751591 53.63552425 26.15454102 56.02577209 C30.45554663 71.66642996 34.87385321 87.27294902 39.3125 102.875 C40.6516756 107.58705965 41.99010332 112.29933131 43.328125 117.01171875 C43.6402594 118.11067978 43.9523938 119.20964081 44.27398682 120.34190369 C47.32313129 131.08690001 50.33339878 141.84268263 53.33865356 152.60002136 C55.63258277 162.11086724 55.63258277 162.11086724 59.0625 171.1875 C59.27342285 170.44927002 59.4843457 169.71104004 59.70166016 168.95043945 C61.3766276 163.08805339 63.05159505 157.22566732 64.7265625 151.36328125 C64.90983093 150.72129791 65.09309937 150.07931458 65.28192139 149.4178772 C66.28678183 145.89863144 67.29417879 142.38014072 68.30566406 138.86279297 C73.4840876 120.83055016 78.5122791 102.75595116 83.5625 84.6875 C94.63639325 45.06782722 94.63639325 45.06782722 99.47949219 28.22137451 C100.36405295 25.13550575 101.23597324 22.04607367 102.109375 18.95703125 C102.6767394 16.97125587 103.24443115 14.98557398 103.8125 13 C104.10253906 11.96681641 104.39257812 10.93363281 104.69140625 9.86914062 C105.11486328 8.39670898 105.11486328 8.39670898 105.546875 6.89453125 C105.91377441 5.60252808 105.91377441 5.60252808 106.28808594 4.28442383 C107.0625 2.1875 107.0625 2.1875 109.0625 0.1875 C113.68915756 -0.32803363 118.34791543 -0.22932407 123 -0.25 C124.95196289 -0.29930664 124.95196289 -0.29930664 126.94335938 -0.34960938 C128.81024414 -0.36024414 128.81024414 -0.36024414 130.71484375 -0.37109375 C131.85945068 -0.38454834 133.00405762 -0.39800293 134.18334961 -0.41186523 C137.0625 0.1875 137.0625 0.1875 138.87158203 2.44238281 C139.9192881 4.8573904 140.78711029 7.12830037 141.46484375 9.66796875 C141.70871826 10.56177246 141.95259277 11.45557617 142.20385742 12.37646484 C142.46658447 13.36598145 142.72931152 14.35549805 143 15.375 C143.61825881 17.64234562 144.23817581 19.90923946 144.859375 22.17578125 C145.20548828 23.44244629 145.55160156 24.70911133 145.90820312 26.01416016 C147.87466763 33.16002186 149.93963277 40.27824345 151.98602295 47.40151978 C156.50671325 63.14736905 160.97051731 78.90875393 165.375 94.6875 C165.62844177 95.59526184 165.88188354 96.50302368 166.14300537 97.43829346 C169.39569979 109.09886153 172.57553831 120.77554474 175.68164062 132.47607422 C177.85444427 140.58634687 180.25477161 148.61878036 182.75512695 156.63378906 C184.36040143 161.78848796 185.80774439 166.93588871 187.0625 172.1875 C190.18875213 162.35405635 192.95719984 152.44198001 195.66433716 142.48693848 C198.8955031 130.61125544 202.13312606 118.7396734 205.625 106.9375 C208.15237334 98.38573986 210.57465053 89.80785875 212.95062256 81.21307373 C217.26566584 65.60617555 221.60715736 50.00653659 225.98828125 34.4180603 C226.65991571 32.02449139 227.3293686 29.6303092 227.99658203 27.23550415 C228.93858504 23.85587986 229.88831459 20.47851519 230.83984375 17.1015625 C231.12073349 16.08745804 231.40162323 15.07335358 231.69102478 14.02851868 C233.08426667 9.11498457 234.56304445 4.64883315 237.0625 0.1875 C240.22914666 0.15809542 243.39575747 0.14056685 246.5625 0.125 C247.449375 0.11662109 248.33625 0.10824219 249.25 0.09960938 C254.62073086 0.07986404 259.74883663 0.39914107 265.0625 1.1875 C266.56260577 6.78848664 265.34619567 10.47765961 263.5 15.75 C262.93096494 17.45876224 262.36464926 19.168432 261.80078125 20.87890625 C261.50896973 21.75820801 261.2171582 22.63750977 260.91650391 23.54345703 C259.56498829 27.72782355 258.37424758 31.95399451 257.1875 36.1875 C254.99455532 43.95504643 252.73967823 51.70162359 250.4375 59.4375 C247.24409152 70.17979673 244.08185166 80.93076412 240.9375 91.6875 C236.84673868 105.68041106 232.74872434 119.67117961 228.64453125 133.66015625 C228.28423325 134.8882432 228.28423325 134.8882432 227.91665649 136.14113998 C225.47713604 144.45620665 223.03734018 152.77119248 220.59704208 161.08603096 C220.12899322 162.6809908 219.66102835 164.27597529 219.19314957 165.87098503 C218.06262653 169.72490495 216.93109874 173.57852261 215.79711914 177.431427 C213.81651682 184.16613547 211.85140808 190.90386226 209.94384766 197.65966797 C209.62535355 198.77961655 209.30685944 199.89956512 208.97871399 201.05345154 C208.40208526 203.08644436 207.83217627 205.12136159 207.27067566 207.15858459 C207.01997818 208.03945236 206.7692807 208.92032013 206.51098633 209.82788086 C206.30145828 210.58048691 206.09193024 211.33309296 205.87605286 212.10850525 C204.92544879 214.5377277 203.81270671 216.25415941 202.0625 218.1875 C199.12329102 218.70507812 199.12329102 218.70507812 195.56640625 218.71875 C193.64538086 218.72648437 193.64538086 218.72648437 191.68554688 218.734375 C191.019021 218.72599609 190.35249512 218.71761719 189.66577148 218.70898438 C187.63468442 218.68760195 185.60714779 218.70876308 183.57617188 218.734375 C182.29419922 218.72921875 181.01222656 218.7240625 179.69140625 218.71875 C178.51650635 218.71423828 177.34160645 218.70972656 176.13110352 218.70507812 C172.35510448 218.06818434 171.48156472 217.09522932 169.0625 214.1875 C167.95869446 211.56132507 167.95869446 211.56132507 167.09887695 208.53393555 C166.76785477 207.39300949 166.43683258 206.25208344 166.09577942 205.07658386 C165.75093002 203.83830338 165.40608063 202.60002289 165.05078125 201.32421875 C164.67565697 200.01381154 164.29934505 198.7037438 163.92192078 197.39399719 C162.92578889 193.92553491 161.94536135 190.45282456 160.96832275 186.97894287 C160.00662117 183.56871602 159.03133286 180.16239152 158.05664062 176.75585938 C156.69852798 172.00493962 155.34491016 167.25278317 153.99680233 162.49901485 C150.40466666 149.83574434 146.7243905 137.19833921 143.04362488 124.56059265 C141.79031933 120.25174692 140.54315605 115.94113915 139.29737854 111.63011169 C136.26011728 101.13573091 133.09296275 90.68601414 129.81420898 80.2644043 C124.0625 61.8239341 124.0625 61.8239341 124.0625 56.1875 C123.4025 56.1875 122.7425 56.1875 122.0625 56.1875 C121.96634399 56.74020065 121.87018799 57.29290131 121.77111816 57.86235046 C120.32327328 65.64835585 118.14362053 73.18006851 115.90625 80.76953125 C115.48691038 82.20343871 115.06793393 83.63745241 114.64929199 85.07156372 C113.52525222 88.91801749 112.39590187 92.76289279 111.26544189 96.60746384 C110.08414124 100.62814399 108.90767947 104.65024003 107.73046875 108.67211914 C104.84868959 118.51279925 101.9570859 128.35058028 99.0625 138.1875 C98.8368335 138.95445694 98.61116699 139.72141388 98.37866211 140.51161194 C94.53877325 153.56100523 90.69347171 166.60879838 86.83789062 179.65356445 C86.48746704 180.83949692 86.13704346 182.02542938 85.77600098 183.24729919 C85.10555687 185.51317893 84.43366259 187.77863021 83.76013184 190.04359436 C82.32491777 194.87537849 80.90725531 199.70907956 79.5625 204.56689453 C79.33731689 205.36930069 79.11213379 206.17170685 78.88012695 206.99842834 C78.47588588 208.4453698 78.08039418 209.8948008 77.69604492 211.34715271 C76.6710399 214.9918026 76.34270265 216.00069824 73.0625 218.1875 C68.91822791 218.59494248 64.77365991 218.5591088 60.61083984 218.55810547 C58.56914275 218.56248575 56.52959688 218.59883461 54.48828125 218.63671875 C52.56048828 218.64251953 52.56048828 218.64251953 50.59375 218.6484375 C49.41361328 218.65665527 48.23347656 218.66487305 47.01757812 218.67333984 C44.0625 218.1875 44.0625 218.1875 42.4977417 216.51837158 C40.85777812 213.85502609 40.02164972 211.41054692 39.14355469 208.40771484 C38.79762268 207.23987457 38.45169067 206.0720343 38.09527588 204.86880493 C37.72480568 203.58706489 37.3545108 202.30527415 36.984375 201.0234375 C36.58891297 199.67674028 36.19271822 198.33025804 35.7958374 196.98397827 C34.75045038 193.43042729 33.71515029 189.87401504 32.68203735 186.31687927 C31.69432979 182.92208152 30.69740579 179.52999858 29.70117188 176.13769531 C27.44485236 168.44701648 25.20401925 160.75186395 22.96531677 153.05604172 C21.84138922 149.19342903 20.71605062 145.33122748 19.59082031 141.46899414 C18.18069488 136.62860464 16.77068679 131.78818111 15.36126709 126.94758606 C12.02557054 115.49138605 8.68591484 104.03634582 5.34375 92.58203125 C4.87286271 90.96811961 4.40197647 89.35420767 3.93109131 87.74029541 C2.34069119 82.28945174 0.75024762 76.83862075 -0.84031677 71.38782501 C-1.47527454 69.21184486 -2.1102031 67.03585618 -2.74511719 64.85986328 C-2.95082211 64.15489716 -3.15652702 63.44993103 -3.36846542 62.72360229 C-4.37687455 59.26728142 -5.38470003 55.81079215 -6.39129639 52.35394287 C-6.7836443 51.00663062 -7.17599861 49.65932023 -7.56835938 48.31201172 C-7.76125675 47.64957962 -7.95415413 46.98714752 -8.15289688 46.30464172 C-9.38503279 42.07594404 -10.62308458 37.84901797 -11.86470413 33.62309551 C-12.70590823 30.7582849 -13.54441499 27.89268871 -14.38249969 25.02696419 C-14.77857457 23.67508988 -15.17586547 22.32357116 -15.57447052 20.97244072 C-16.12410904 19.10894354 -16.66908572 17.24407328 -17.21386719 15.37915039 C-17.52362488 14.32466202 -17.83338257 13.27017365 -18.15252686 12.18373108 C-20.31278279 3.93806558 -20.31278279 3.93806558 -18.9375 1.1875 C-12.88571314 -0.29742918 -6.20743091 0.06449621 0 0 Z " fill="#FBFBFC" transform="translate(178.9375,682.8125)"/>
<path d="M0 0 C1.19580688 -0.05716187 1.19580688 -0.05716187 2.41577148 -0.11547852 C4.7109375 -0.1484375 4.7109375 -0.1484375 8.625 0.375 C12.33299469 4.16922712 13.28411368 10.47217593 14.6875 15.5 C14.98205078 16.53261963 15.27660156 17.56523926 15.58007812 18.62915039 C16.23749948 20.93600697 16.89177925 23.24376041 17.54345703 25.55224609 C18.70529399 29.65880209 19.88041587 33.76139204 21.05859375 37.86328125 C25.04082119 51.73739233 28.99206705 65.61983409 32.87109375 79.52319336 C35.60281913 89.31266639 38.3637924 99.09381245 41.125 108.875 C47.00161281 129.69631225 52.84694992 150.52609118 58.625 171.375 C60.84103883 167.52532246 61.84230074 163.33461663 62.98046875 159.078125 C63.20270111 158.26138306 63.42493347 157.44464111 63.65390015 156.60314941 C64.12965844 154.85370276 64.60362157 153.10376711 65.07595825 151.35339355 C66.31479967 146.76431634 67.56759566 142.17905559 68.8203125 137.59375 C69.06626663 136.6925946 69.31222076 135.79143921 69.56562805 134.86297607 C71.37109584 128.26296925 73.24307428 121.685509 75.1875 115.125 C77.65230043 106.78103252 80.02268256 98.41369484 82.34173584 90.02816772 C82.94164985 87.86000192 83.54308828 85.69226479 84.14501953 83.5246582 C84.5836602 81.94482459 85.02229946 80.36499059 85.4609375 78.78515625 C85.69309967 77.94902298 85.92526184 77.11288971 86.16445923 76.25141907 C87.70966015 70.68304985 89.24946134 65.11320888 90.78613281 59.54248047 C92.58928115 53.00671538 94.40097472 46.47336403 96.21977901 39.9419384 C97.24404219 36.26254938 98.26456555 32.58220926 99.27651978 28.89941406 C100.24062092 25.39112097 101.21421001 21.88559667 102.1948204 18.38188362 C102.73537748 16.44082428 103.26587951 14.49697371 103.7961731 12.55308533 C104.12439056 11.38693192 104.45260803 10.2207785 104.79077148 9.01928711 C105.07371567 7.99757919 105.35665985 6.97587128 105.6481781 5.92320251 C106.64534263 3.32193287 107.41267368 2.03787805 109.625 0.375 C112.39648438 -0.01318359 112.39648438 -0.01318359 115.71875 -0.0234375 C116.91371094 -0.02730469 118.10867188 -0.03117188 119.33984375 -0.03515625 C120.58894531 -0.02355469 121.83804688 -0.01195312 123.125 0 C124.37410156 -0.01160156 125.62320313 -0.02320313 126.91015625 -0.03515625 C128.70259766 -0.02935547 128.70259766 -0.02935547 130.53125 -0.0234375 C131.62759766 -0.02005371 132.72394531 -0.01666992 133.85351562 -0.01318359 C137.07190317 0.43759479 137.63817336 0.90215153 139.625 3.375 C140.50811768 5.57962036 140.50811768 5.57962036 141.23144531 8.18408203 C141.50893616 9.164263 141.786427 10.14444397 142.07232666 11.15432739 C142.50832184 12.75242752 142.50832184 12.75242752 142.953125 14.3828125 C143.26521912 15.4956662 143.57731323 16.6085199 143.89886475 17.75509644 C144.90027754 21.33419452 145.88785134 24.91694451 146.875 28.5 C147.52382386 30.82838037 148.17355448 33.15650826 148.82421875 35.484375 C150.1227547 40.13568083 151.41539084 44.78856344 152.703125 49.44287109 C154.58258009 56.2321641 156.48550056 63.01474959 158.390625 69.796875 C160.69678919 78.01612996 162.94948217 86.2451655 165.125 94.5 C167.4645931 103.28463381 169.99552079 111.98257274 172.70556641 120.65917969 C176.43578183 132.76220808 179.67945965 145.00764239 182.98144531 157.23291016 C183.3317128 158.5226474 183.3317128 158.5226474 183.6890564 159.83843994 C184.13341549 161.47497562 184.57494737 163.11228217 185.01333618 164.75042725 C185.75234725 168.3543958 185.75234725 168.3543958 187.625 171.375 C187.77454132 170.84534134 187.92408264 170.31568268 188.07815552 169.76997375 C189.66824966 164.13828689 191.25880845 158.5067314 192.84960938 152.87524414 C193.43924113 150.7877111 194.02876353 148.70014717 194.61816406 146.61254883 C200.16027741 126.98344258 200.16027741 126.98344258 202.64929199 118.31121826 C207.67081157 100.80994482 212.55435221 83.26940655 217.46575928 65.73699951 C219.53624347 58.34600424 221.60727845 50.95516347 223.678936 43.56449699 C224.39260138 41.01798419 225.10582114 38.4713469 225.81900024 35.92469788 C226.8872388 32.11142564 227.95788037 28.29883714 229.0308609 24.48689651 C229.42459007 23.08736691 229.81767964 21.68765719 230.2101059 20.28776169 C230.75296062 18.35260477 231.29900995 16.41834485 231.84521484 14.48413086 C232.30219254 12.86141518 232.30219254 12.86141518 232.7684021 11.20591736 C235.36047983 2.63952017 235.36047983 2.63952017 237.625 0.375 C240.28158785 0.27316912 242.90599572 0.23400034 245.5625 0.25 C246.33142578 0.25265869 247.10035156 0.25531738 247.89257812 0.25805664 C263.638834 0.388834 263.638834 0.388834 265.625 2.375 C265.19295322 10.09141594 263.16649445 17.13259422 260.9765625 24.515625 C260.60798126 25.77973709 260.23940002 27.04384918 259.85964966 28.3462677 C258.86946713 31.74139182 257.87008982 35.13374251 256.86875916 38.5255928 C255.8319524 42.04340672 254.80376156 45.56373806 253.77441406 49.08374023 C248.947306 65.57577704 244.09178923 82.06022932 239.15087891 98.51855469 C236.9553199 105.838661 234.81716799 113.17260702 232.7265625 120.5234375 C229.91021959 130.42517977 227.00385683 140.29867585 224.07272339 150.16696167 C219.68979892 164.92655208 215.33787478 179.69263361 211.16064453 194.51196289 C210.32502694 197.4691872 209.4793712 200.42314024 208.625 203.375 C208.11477295 205.1386792 208.11477295 205.1386792 207.59423828 206.93798828 C207.24474121 208.11474121 206.89524414 209.29149414 206.53515625 210.50390625 C206.21812744 211.57842041 205.90109863 212.65293457 205.57446289 213.76000977 C204.625 216.375 204.625 216.375 202.625 218.375 C198.36757862 218.77363496 194.09552426 218.70402541 189.8215332 218.69067383 C187.69885794 218.68751689 185.57758064 218.71095761 183.45507812 218.73632812 C182.10677259 218.73860146 180.75846331 218.73930446 179.41015625 218.73828125 C178.18176025 218.74126221 176.95336426 218.74424316 175.68774414 218.74731445 C172.625 218.375 172.625 218.375 170.85424805 217.33740234 C168.95887239 214.31157722 168.10805866 211.02512636 167.171875 207.61328125 C166.94856506 206.83099655 166.72525513 206.04871185 166.49517822 205.24272156 C165.77915148 202.72684132 165.07673218 200.20740043 164.375 197.6875 C163.91889565 196.07330552 163.46187201 194.45937049 163.00390625 192.84570312 C162.29546827 190.34781929 161.58793082 187.84970308 160.88352966 185.35067749 C157.8718703 174.67040028 154.74538764 164.0239123 151.625 153.375 C151.21971312 151.99094617 150.81446163 150.60688198 150.40924072 149.22280884 C147.61753964 139.6877272 144.82308958 130.15345373 142.02709961 120.61962891 C141.04853954 117.28282317 140.07036457 113.94590492 139.0925293 110.60888672 C131.43624372 84.46895477 131.43624372 84.46895477 123.625 58.375 C121.83593265 61.05860102 121.09982821 62.72132898 120.24316406 65.74316406 C119.9876326 66.63418823 119.73210114 67.5252124 119.46882629 68.4432373 C119.05886665 69.90219421 119.05886665 69.90219421 118.640625 71.390625 C118.34874802 72.41224731 118.05687103 73.43386963 117.75614929 74.4864502 C117.12358398 76.70173375 116.49327897 78.91766367 115.86495972 81.13415527 C114.17812601 87.08235139 112.47346625 93.02543431 110.76953125 98.96875 C110.24795189 100.78980255 110.24795189 100.78980255 109.71583557 102.64764404 C106.4113378 114.16420486 103.00231986 125.64825226 99.5625 137.125 C95.91325938 149.30428359 92.28764249 161.48924807 88.7421875 173.69921875 C88.42208206 174.80107513 88.10197662 175.90293152 87.77217102 177.03817749 C86.22810691 182.35646503 84.68832705 187.67595057 83.15405273 192.99707031 C82.59887154 194.91343347 82.04361818 196.82977572 81.48828125 198.74609375 C81.24201996 199.60538986 80.99575867 200.46468597 80.74203491 201.35002136 C76.55873684 215.75250877 76.55873684 215.75250877 72.625 218.375 C69.76171875 218.63378906 69.76171875 218.63378906 66.3125 218.640625 C65.07242188 218.64320313 63.83234375 218.64578125 62.5546875 218.6484375 C61.25789062 218.64070312 59.96109375 218.63296875 58.625 218.625 C57.32820312 218.63273438 56.03140625 218.64046875 54.6953125 218.6484375 C53.45523438 218.64585937 52.21515625 218.64328125 50.9375 218.640625 C49.79925781 218.63836914 48.66101563 218.63611328 47.48828125 218.63378906 C44.625 218.375 44.625 218.375 41.625 216.375 C40.58520508 213.71484375 40.58520508 213.71484375 39.64453125 210.3125 C39.28915283 209.0536499 38.93377441 207.7947998 38.56762695 206.49780273 C38.19091274 205.12353659 37.81420388 203.74926898 37.4375 202.375 C36.64013826 199.5312153 35.83522053 196.68957846 35.03125 193.84765625 C34.72874077 192.77186058 34.72874077 192.77186058 34.42012024 191.67433167 C32.54241179 185.01693311 30.5063883 178.41283186 28.4375 171.8125 C25.73774896 163.1512096 23.24557774 154.46048002 20.91113281 145.69433594 C18.74280789 137.62933143 16.30259085 129.65785112 13.77929688 121.69726562 C11.48362825 114.38674018 9.39277423 107.03036952 7.33984375 99.6484375 C3.72875016 86.66487509 -0.05389082 73.73556606 -3.875 60.8125 C-4.50667727 58.67257529 -5.13818777 56.53260134 -5.76953125 54.39257812 C-6.23782349 52.80565659 -6.23782349 52.80565659 -6.71557617 51.18667603 C-7.33895026 49.07231261 -7.9615188 46.95771151 -8.58325195 44.84286499 C-10.16136139 39.47621986 -11.75255225 34.11407985 -13.3671875 28.75830078 C-14.00525816 26.62143415 -14.64328073 24.48455316 -15.28125 22.34765625 C-15.57777466 21.3766246 -15.87429932 20.40559296 -16.17980957 19.40513611 C-17.87304274 13.70186781 -19.00043748 8.32267832 -19.375 2.375 C-15.84597704 -1.15402296 -4.90865086 0.12556218 0 0 Z " fill="#FBFCFC" transform="translate(597.375,682.625)"/>
<path d="M0 0 C1.15757812 -0.00257813 2.31515625 -0.00515625 3.5078125 -0.0078125 C4.72210937 -0.00007812 5.93640625 0.00765625 7.1875 0.015625 C8.40179687 0.00789062 9.61609375 0.00015625 10.8671875 -0.0078125 C12.60355469 -0.00394531 12.60355469 -0.00394531 14.375 0 C15.44105469 0.00225586 16.50710938 0.00451172 17.60546875 0.00683594 C20.1875 0.265625 20.1875 0.265625 22.1875 2.265625 C22.43803978 4.76557446 22.43803978 4.76557446 22.4390564 7.98588562 C22.44443924 9.2038382 22.44982208 10.42179077 22.45536804 11.676651 C22.4513532 13.03402755 22.44718226 14.39140365 22.44287109 15.7487793 C22.44562018 17.17299602 22.44929958 18.59721121 22.45384216 20.02142334 C22.46196933 23.09510554 22.46411865 26.16871493 22.46189499 29.24240685 C22.45906221 34.11526294 22.47341694 38.98797393 22.49087524 43.86079407 C22.53789172 57.7200803 22.56180839 71.57935831 22.56835938 85.4387207 C22.57212791 93.08848925 22.59030885 100.73809502 22.62345374 108.38779384 C22.6435282 113.21750711 22.64610571 118.04679638 22.63517356 122.87653387 C22.63253846 125.90598454 22.64670688 128.93519635 22.66525459 131.96458435 C22.67298759 134.00729172 22.66124572 136.05004496 22.64857483 138.09272766 C22.78104684 153.17105632 26.40109829 168.0203513 36.6875 179.515625 C46.9675815 189.10510602 60.28402373 192.67116874 74 192.578125 C74.8758374 192.57248535 75.7516748 192.5668457 76.65405273 192.56103516 C90.27703651 192.30682336 103.42757739 188.24736404 113.1875 178.265625 C120.76689426 167.98168918 125.28681322 157.75897662 125.33226013 144.90093994 C125.33915863 143.64187332 125.34605713 142.3828067 125.35316467 141.08558655 C125.35587871 139.7032167 125.35851592 138.32084669 125.36108398 136.93847656 C125.36739477 135.47287298 125.37416115 134.0072713 125.38134766 132.54167175 C125.39597529 129.39384612 125.40771662 126.24602767 125.41729546 123.09818268 C125.43277875 118.1235865 125.45672437 113.14905329 125.48219299 108.17449951 C125.55332511 94.03190077 125.61330638 79.8892673 125.66430664 65.74658203 C125.69257015 57.92957443 125.72792103 50.11263083 125.77096039 42.2956903 C125.79777793 37.34708038 125.8156543 32.39854278 125.82699764 27.4498744 C125.83609771 24.37850129 125.85344567 21.30721665 125.87317657 18.23589516 C125.88067374 16.80801846 125.88473443 15.38011913 125.88517189 13.95222282 C125.8862484 12.00891394 125.90062133 10.06562574 125.91575623 8.12237549 C125.91998816 7.03323475 125.9242201 5.94409401 125.92858028 4.82194901 C126.1875 2.265625 126.1875 2.265625 128.1875 0.265625 C130.76953125 0.02270508 130.76953125 0.02270508 134 0.03515625 C135.15757812 0.03708984 136.31515625 0.03902344 137.5078125 0.04101562 C138.72210937 0.05326172 139.93640625 0.06550781 141.1875 0.078125 C142.40179687 0.07876953 143.61609375 0.07941406 144.8671875 0.08007812 C153.90700576 0.12537788 153.90700576 0.12537788 156.1875 1.265625 C156.28117599 21.36366619 156.35159278 41.46166273 156.39474869 61.5598774 C156.41532438 70.8930201 156.44334884 80.22602671 156.48925781 89.55908203 C156.52927918 97.69913736 156.55496905 105.83909407 156.56385398 113.97924507 C156.56904298 118.28456776 156.58113329 122.58960844 156.61042023 126.89484024 C156.63783195 130.95782792 156.64589378 135.0204209 156.63993073 139.08349228 C156.64101958 140.56441146 156.64881884 142.04534565 156.6643219 143.52618408 C156.87312527 164.52382954 149.48144113 182.71868787 134.80224609 197.71728516 C126.39944272 205.77452419 116.20277348 210.80848072 105.1875 214.265625 C103.96244751 214.66841675 103.96244751 214.66841675 102.71264648 215.0793457 C94.10994681 217.59515212 85.75868508 217.75791983 76.87084961 217.71166992 C74.3889622 217.7031728 71.90939536 217.73199737 69.42773438 217.76367188 C49.87132318 217.84906043 32.64742139 212.55052304 17.1875 200.265625 C15.92873047 199.32203125 15.92873047 199.32203125 14.64453125 198.359375 C1.24778178 186.94338499 -6.56986586 168.60400785 -8.17472458 151.37752151 C-8.31225532 147.39362058 -8.33213156 143.42109921 -8.29833984 139.43603516 C-8.30049331 137.92954683 -8.3043822 136.42306016 -8.30984497 134.9165802 C-8.31941199 130.88222888 -8.30440497 126.84833054 -8.28393888 122.81403399 C-8.26619872 118.57495278 -8.26989595 114.33588201 -8.2706604 110.09677124 C-8.26879754 102.99770639 -8.2515566 95.89881439 -8.22412109 88.79980469 C-8.19251106 80.59019279 -8.18213125 72.3807686 -8.1835922 64.17110026 C-8.18494067 55.40972395 -8.17109222 46.64841993 -8.15269899 37.88706541 C-8.14843501 35.3657132 -8.14701657 32.84437261 -8.14622116 30.32301712 C-8.14421794 26.37479686 -8.13205519 22.42673511 -8.11188889 18.47856712 C-8.10603281 17.02810193 -8.10358938 15.57761851 -8.10474396 14.12714195 C-8.10572076 12.1537241 -8.09321118 10.18031307 -8.07992554 8.2069397 C-8.07657385 7.10128977 -8.07322216 5.99563984 -8.06976891 4.85648537 C-7.5494905 -0.38304675 -4.49538126 0.0095126 0 0 Z " fill="#FCFCFC" transform="translate(899.8125,682.734375)"/>
<path d="M0 0 C0.65830811 -0.00191345 1.31661621 -0.0038269 1.99487305 -0.00579834 C3.3868854 -0.0071595 4.77891047 -0.00346783 6.17089844 0.00488281 C8.30432589 0.015584 10.43691131 0.00498594 12.5703125 -0.0078125 C13.92187686 -0.00649089 15.2734407 -0.00392847 16.625 0 C18.47544922 0.00338379 18.47544922 0.00338379 20.36328125 0.00683594 C23.3125 0.265625 23.3125 0.265625 25.3125 2.265625 C25.51200038 4.70478981 25.58622274 7.03079449 25.57319641 9.47129822 C25.57893473 10.5977469 25.57893473 10.5977469 25.58478898 11.74695212 C25.59515128 14.27660266 25.59112077 16.80602759 25.5871582 19.33569336 C25.5915029 21.14390779 25.59668523 22.95212037 25.60264587 24.7603302 C25.6160733 29.68176448 25.61661039 34.60312214 25.61408257 39.52457118 C25.61301538 43.62767203 25.61788977 47.73075722 25.622688 51.83385473 C25.63379616 61.51091174 25.63421326 71.18792993 25.62817383 80.86499023 C25.62213191 90.8602103 25.6344476 100.85528968 25.6557439 110.85048574 C25.67333613 119.4212118 25.67936502 127.99189298 25.67610615 136.56263644 C25.67428933 141.68630168 25.67696908 146.80986658 25.69082069 151.93351555 C25.7033558 156.75075924 25.70149607 161.56778298 25.68840981 166.38502312 C25.68603501 168.15596591 25.68881082 169.92692398 25.69703293 171.69784927 C25.70742622 174.1098142 25.69946026 176.52103088 25.6867218 178.93296814 C25.69409609 179.63879986 25.70147037 180.34463158 25.70906812 181.07185215 C25.67731336 183.91698329 25.61820314 185.82341818 23.97479534 188.2006464 C21.30823398 189.9090256 18.87275653 189.63676165 15.74609375 189.62890625 C13.8115332 189.62793945 13.8115332 189.62793945 11.83789062 189.62695312 C11.16733643 189.61865479 10.49678223 189.61035645 9.8059082 189.60180664 C7.75367112 189.57816729 5.70272967 189.58125352 3.65039062 189.58789062 C-6.42065282 189.53247218 -6.42065282 189.53247218 -8.6875 187.265625 C-8.88484272 184.81162634 -8.95683767 182.4704015 -8.94146729 180.01525879 C-8.94458727 179.25950388 -8.94770725 178.50374898 -8.95092177 177.72509241 C-8.95893279 175.17928038 -8.95256616 172.63370466 -8.94628906 170.08789062 C-8.94899755 168.26820231 -8.95255768 166.44851509 -8.95690918 164.62882996 C-8.96605238 159.67646552 -8.96248099 154.72418411 -8.95615101 149.77181816 C-8.95110098 144.5984054 -8.95577967 139.42499994 -8.95892334 134.25158691 C-8.9625659 125.56240558 -8.95775629 116.87325821 -8.94824219 108.18408203 C-8.93735709 98.12638519 -8.94088246 88.06876942 -8.951895 78.01107454 C-8.96095962 69.38856196 -8.9622572 60.76607383 -8.95701766 52.14355803 C-8.95389341 46.98809193 -8.95350106 41.83266399 -8.96009064 36.67720032 C-8.9658515 31.83126833 -8.96189041 26.98544126 -8.95030212 22.13952065 C-8.94764877 20.35687243 -8.94843207 18.57421544 -8.95282745 16.79157066 C-8.95825784 14.36625671 -8.95147961 11.94128322 -8.94146729 9.51599121 C-8.94592873 8.8033557 -8.95039017 8.09072019 -8.95498681 7.35648966 C-8.89800463 0.28572261 -6.61332923 0.01209334 0 0 Z " fill="#FEFEFD" transform="translate(507.6875,711.734375)"/>
<path d="M0 0 C5.02159615 2.86054685 9.78242103 5.92337106 14.46044922 9.31396484 C15.94030803 10.37211006 17.42081332 11.42935153 18.90185547 12.48583984 C19.69092285 13.04980469 20.47999023 13.61376953 21.29296875 14.19482422 C25.9707278 17.51875517 30.68564224 20.78929114 35.39794922 24.06396484 C36.37666992 24.74563721 37.35539063 25.42730957 38.36376953 26.12963867 C42.73969751 29.17384199 47.12191582 32.20596172 51.54248047 35.18505859 C71.22960858 48.46539875 71.22960858 48.46539875 73.83544922 55.00146484 C74.09271812 57.98570633 74.09271812 57.98570633 74.10287476 61.54083252 C74.10740587 62.19605762 74.11193698 62.85128273 74.1166054 63.52636313 C74.12925796 65.72028399 74.1276285 67.91395687 74.12597656 70.10791016 C74.1319614 71.68170999 74.13876684 73.25550689 74.14633179 74.82929993 C74.16400632 79.10427295 74.16868785 83.37916592 74.16996336 87.65417194 C74.17138501 90.32637934 74.17565493 92.99856639 74.18095779 95.67076874 C74.19946481 104.99732251 74.20762781 114.3238191 74.20605469 123.65039062 C74.20485399 132.33684415 74.22594051 141.02304892 74.25754201 149.70943952 C74.28372127 157.17201569 74.29442125 164.63451072 74.29314387 172.09713244 C74.2926346 176.55195783 74.2982979 181.0065623 74.31949997 185.46134186 C74.33890952 189.65408124 74.33898845 193.84638965 74.32446671 198.03914452 C74.32238067 199.57417368 74.32706731 201.10922999 74.33918762 202.64421272 C74.46025329 219.04488135 74.46025329 219.04488135 68.03857422 225.92724609 C67.39404297 226.38486328 66.74951172 226.84248047 66.08544922 227.31396484 C65.28880859 227.88888672 64.49216797 228.46380859 63.67138672 229.05615234 C62.73552734 229.69810547 61.79966797 230.34005859 60.83544922 231.00146484 C59.7232892 231.77464227 58.61132251 232.54809782 57.49951172 233.32177734 C54.84850227 235.15765938 52.18794895 236.97892901 49.52294922 238.79443359 C45.20106518 241.74294786 40.90708744 244.73036542 36.61645508 247.72412109 C31.69482668 251.15764224 26.76508511 254.57945536 21.83544922 258.00146484 C20.80790527 258.71608887 19.78036133 259.43071289 18.72167969 260.16699219 C15.70149735 262.26409068 12.67558399 264.35264466 9.64794922 266.43896484 C8.72159668 267.08381836 7.79524414 267.72867187 6.84082031 268.39306641 C5.97924316 268.98442383 5.11766602 269.57578125 4.22998047 270.18505859 C3.47563721 270.70640381 2.72129395 271.22774902 1.9440918 271.76489258 C-2.63579693 274.45067889 -7.99645098 275.12207992 -13.16455078 274.00146484 C-18.13724123 271.43335187 -22.62626713 268.26304991 -27.16455078 265.00146484 C-28.27887885 264.2120419 -29.39345615 263.42297062 -30.50830078 262.63427734 C-32.79843781 261.00658777 -35.07845073 259.36551412 -37.35595703 257.72021484 C-41.61753936 254.65773032 -45.95188136 251.70473395 -50.28955078 248.75146484 C-57.20808951 244.03383073 -64.10692686 239.2893874 -70.97705078 234.50146484 C-71.80672363 233.9262207 -72.63639648 233.35097656 -73.49121094 232.75830078 C-75.73131273 231.19321633 -77.95238348 229.60572036 -80.16455078 228.00146484 C-81.054729 227.37304688 -81.054729 227.37304688 -81.96289062 226.73193359 C-85.8643246 223.78636893 -87.71203157 220.57607471 -89.16455078 216.00146484 C-89.54486752 212.64249325 -89.54486752 212.64249325 -89.55223083 209.08787537 C-89.55761637 208.42867586 -89.56300191 207.76947635 -89.56855065 207.0903011 C-89.58275748 204.90090759 -89.5757451 202.71212494 -89.56860352 200.52270508 C-89.57431081 198.94521604 -89.58127646 197.36773113 -89.58940125 195.79025269 C-89.60730511 191.51967954 -89.60616989 187.24931217 -89.60045886 182.9787128 C-89.59736396 179.40998075 -89.60346259 175.84128805 -89.60949761 172.27256161 C-89.6235312 163.85379343 -89.62199037 155.43512676 -89.6105957 147.01635742 C-89.59910656 138.33603736 -89.6132061 129.65602598 -89.63999218 120.97574657 C-89.66214944 113.51567869 -89.66878677 106.0557077 -89.66291577 98.59560925 C-89.65954614 94.14314156 -89.66196202 89.69087189 -89.67916679 85.23843193 C-89.69463508 81.0530259 -89.69068196 76.8680776 -89.67186165 72.68268967 C-89.66817588 71.14843775 -89.67128396 69.61415192 -89.68174744 68.07993126 C-89.69496066 65.98211792 -89.68340993 63.88581941 -89.66575623 61.78807068 C-89.66554694 60.6154238 -89.66533766 59.44277693 -89.66512203 58.2345953 C-88.51861006 50.8294102 -82.74951562 46.38818771 -77.16455078 42.00146484 C-73.86839093 39.59943571 -70.49641397 37.32442327 -67.10205078 35.06396484 C-65.14953209 33.7485908 -63.19773262 32.43214864 -61.24658203 31.11474609 C-60.24578613 30.44008301 -59.24499023 29.76541992 -58.21386719 29.0703125 C-53.20861563 25.67443566 -48.24941115 22.21315039 -43.28955078 18.75146484 C-41.37813658 17.42067229 -39.46667921 16.08994173 -37.55517578 14.75927734 C-34.14540594 12.38405442 -30.73968011 10.00319732 -27.33642578 7.61865234 C-25.90428593 6.62103853 -24.47200461 5.62362777 -23.03955078 4.62646484 C-22.09039795 3.95695801 -22.09039795 3.95695801 -21.12207031 3.27392578 C-14.07641628 -1.61410555 -8.12714187 -3.74915523 0 0 Z M-29.66455078 20.25146484 C-31.71133646 21.68388416 -33.7582142 23.11617192 -35.80517578 24.54833984 C-36.85253906 25.28246094 -37.89990234 26.01658203 -38.97900391 26.77294922 C-42.11384079 28.96598961 -45.25496924 31.14964774 -48.39892578 33.32958984 C-49.40761719 34.02922852 -50.41630859 34.72886719 -51.45556641 35.44970703 C-53.3652857 36.77390513 -55.2754124 38.09751596 -57.18603516 39.42041016 C-59.85194827 41.27179264 -62.50947279 43.13458287 -65.16455078 45.00146484 C-66.63698242 46.02626953 -66.63698242 46.02626953 -68.13916016 47.07177734 C-69.11175781 47.76013672 -70.08435547 48.44849609 -71.08642578 49.15771484 C-71.96395508 49.77453125 -72.84148438 50.39134766 -73.74560547 51.02685547 C-76.88396963 53.58873368 -79.34696621 56.36629571 -81.16455078 60.00146484 C-81.26918096 61.9850978 -81.3084672 63.97228328 -81.31845093 65.95864868 C-81.32705139 67.22878815 -81.33565186 68.49892761 -81.34451294 69.80755615 C-81.34894838 71.22326619 -81.35324672 72.63897667 -81.35742188 74.0546875 C-81.36532206 75.53952222 -81.37359095 77.02435502 -81.38220215 78.50918579 C-81.4084393 83.39461428 -81.42373478 88.2800514 -81.43798828 93.16552734 C-81.44334789 94.84747702 -81.4487254 96.52942663 -81.45412064 98.21137619 C-81.47575481 105.20965901 -81.49449005 112.20793952 -81.50574303 119.20624733 C-81.52197109 129.23273474 -81.55511467 139.25883391 -81.61214387 149.28517497 C-81.65087774 156.33581279 -81.67037998 163.38634695 -81.67566359 170.43708837 C-81.67931331 174.64722688 -81.6912931 178.85695146 -81.72376633 183.06697464 C-81.75390673 187.03156428 -81.7601379 190.99549089 -81.74838257 194.96017075 C-81.74816231 196.41136398 -81.75642829 197.8625885 -81.77403641 199.31367493 C-81.86715322 207.43279062 -81.77514421 213.75290454 -76.16455078 220.00146484 C-74.273328 221.89831064 -74.273328 221.89831064 -72.22314453 223.13427734 C-71.11579956 223.86735107 -71.11579956 223.86735107 -69.98608398 224.61523438 C-69.19935303 225.11394043 -68.41262207 225.61264648 -67.60205078 226.12646484 C-65.89541282 227.25008572 -64.18971404 228.37513413 -62.48486328 229.50146484 C-61.60733398 230.07509766 -60.72980469 230.64873047 -59.82568359 231.23974609 C-55.48195799 234.11537214 -51.23289752 237.12299289 -46.97705078 240.12646484 C-40.80380185 244.45967417 -34.62300259 248.78130673 -28.41455078 253.06396484 C-27.79555908 253.49273926 -27.17656738 253.92151367 -26.53881836 254.36328125 C-24.75625982 255.58977456 -22.96310192 256.79856446 -21.16455078 258.00146484 C-20.49077393 258.46053223 -19.81699707 258.91959961 -19.12280273 259.39257812 C-14.2349721 262.61440285 -10.92266045 263.9271673 -4.98486328 263.58740234 C-0.21223105 262.59585825 3.20598894 260.14646902 7.08691406 257.28125 C9.09123495 255.81425054 11.12624955 254.39712255 13.16748047 252.98193359 C16.54582676 250.63711711 19.91504356 248.28008547 23.27685547 245.91162109 C29.17890763 241.75573821 35.09865799 237.62556502 41.02294922 233.50146484 C42.43785645 232.51448608 42.43785645 232.51448608 43.88134766 231.50756836 C44.78788086 230.8764917 45.69441406 230.24541504 46.62841797 229.59521484 C47.50288574 228.98291016 48.37735352 228.37060547 49.27832031 227.73974609 C50.93631501 226.61267695 52.62108471 225.52366581 54.33398438 224.48193359 C55.11435059 224.00369141 55.8947168 223.52544922 56.69873047 223.03271484 C57.37846924 222.63632812 58.05820801 222.23994141 58.75854492 221.83154297 C62.89027088 218.19084498 65.47440195 214.43148448 66.29710865 208.89427757 C66.47161543 205.06963785 66.48924039 201.26158166 66.45068359 197.43481445 C66.45418922 195.96717183 66.45985277 194.49953302 66.46749878 193.03190613 C66.48169208 189.06483939 66.46474027 185.09847036 66.44121361 181.13147044 C66.42103794 176.97075265 66.42698758 172.81006195 66.42932129 168.64930725 C66.4292678 161.66460733 66.40955652 154.68017862 66.37744141 147.69555664 C66.34053754 139.63044255 66.33176868 131.56568336 66.33873892 123.50049585 C66.34505244 115.72741482 66.33427485 107.95445495 66.31477356 100.18139839 C66.30661767 96.8797285 66.30388666 93.57812069 66.3054657 90.27644157 C66.30634714 86.38651584 66.29205917 82.49692533 66.26623917 78.60708809 C66.25910112 77.18292491 66.25698233 75.75872601 66.2603569 74.33454895 C66.46703987 62.9412486 66.46703987 62.9412486 61.25732422 53.17675781 C60.70560547 52.74508301 60.15388672 52.3134082 59.58544922 51.86865234 C58.96927734 51.38106445 58.35310547 50.89347656 57.71826172 50.39111328 C54.79819397 48.23589731 51.85050523 46.14689167 48.83544922 44.12646484 C47.42602444 43.17027413 46.01720773 42.21318674 44.60888672 41.25537109 C43.84801758 40.73861816 43.08714844 40.22186523 42.30322266 39.68945312 C38.6538501 37.19323608 35.03246912 34.65743812 31.40869141 32.12426758 C23.17802155 26.37247701 14.92550902 20.65627739 6.58544922 15.06396484 C5.84117676 14.56195557 5.0969043 14.05994629 4.33007812 13.54272461 C3.64606934 13.08696045 2.96206055 12.63119629 2.25732422 12.16162109 C1.66532227 11.76595947 1.07332031 11.37029785 0.46337891 10.96264648 C-10.83032595 4.29448271 -20.78080372 14.00295774 -29.66455078 20.25146484 Z " fill="#F8F8F9" transform="translate(615.16455078125,315.99853515625)"/>
<path d="M0 0 C0.98484375 -0.00128906 1.9696875 -0.00257813 2.984375 -0.00390625 C4.02078125 -0.00003906 5.0571875 0.00382812 6.125 0.0078125 C7.67960938 0.00201172 7.67960938 0.00201172 9.265625 -0.00390625 C10.25046875 -0.00261719 11.2353125 -0.00132812 12.25 0 C13.16007813 0.00112793 14.07015625 0.00225586 15.0078125 0.00341797 C17.125 0.1328125 17.125 0.1328125 18.125 1.1328125 C18.22320173 2.75005635 18.25131935 4.37159883 18.25198364 5.99182129 C18.25480347 7.04352005 18.25762329 8.09521881 18.26052856 9.17878723 C18.25850433 10.34246323 18.2564801 11.50613922 18.25439453 12.70507812 C18.25614685 13.92281418 18.25789917 15.14055023 18.25970459 16.39518738 C18.26336281 19.74428366 18.26248966 23.09331852 18.2593255 26.44241142 C18.25680154 29.94000204 18.25913954 33.43758995 18.26071167 36.93518066 C18.26253326 42.80981927 18.26012734 48.68444533 18.25537109 54.55908203 C18.24992849 61.36020301 18.25169116 68.16129401 18.2571975 74.96241426 C18.26172893 80.79170378 18.26237903 86.62098424 18.25975883 92.45027494 C18.25819622 95.93624075 18.25800185 99.42219244 18.26129532 102.90815735 C18.26470835 106.79229913 18.2599838 110.67640708 18.25439453 114.56054688 C18.25641876 115.72422287 18.25844299 116.88789886 18.26052856 118.08683777 C18.25629883 119.66438591 18.25629883 119.66438591 18.25198364 121.27380371 C18.25160662 122.19337608 18.25122959 123.11294846 18.25084114 124.06038666 C18.125 126.1328125 18.125 126.1328125 17.125 127.1328125 C15.50242456 127.2319782 13.87560169 127.26361027 12.25 127.265625 C11.26515625 127.26691406 10.2803125 127.26820313 9.265625 127.26953125 C8.22921875 127.26566406 7.1928125 127.26179687 6.125 127.2578125 C4.57039062 127.26361328 4.57039062 127.26361328 2.984375 127.26953125 C1.99953125 127.26824219 1.0146875 127.26695312 0 127.265625 C-0.91007813 127.26449707 -1.82015625 127.26336914 -2.7578125 127.26220703 C-4.875 127.1328125 -4.875 127.1328125 -5.875 126.1328125 C-5.97320173 124.51556865 -6.00131935 122.89402617 -6.00198364 121.27380371 C-6.00480347 120.22210495 -6.00762329 119.17040619 -6.01052856 118.08683777 C-6.00850433 116.92316177 -6.0064801 115.75948578 -6.00439453 114.56054688 C-6.00614685 113.34281082 -6.00789917 112.12507477 -6.00970459 110.87043762 C-6.01336281 107.52134134 -6.01248966 104.17230648 -6.0093255 100.82321358 C-6.00680154 97.32562296 -6.00913954 93.82803505 -6.01071167 90.33044434 C-6.01253326 84.45580573 -6.01012734 78.58117967 -6.00537109 72.70654297 C-5.99992849 65.90542199 -6.00169116 59.10433099 -6.0071975 52.30321074 C-6.01172893 46.47392122 -6.01237903 40.64464076 -6.00975883 34.81535006 C-6.00819622 31.32938425 -6.00800185 27.84343256 -6.01129532 24.35746765 C-6.01470835 20.47332587 -6.0099838 16.58921792 -6.00439453 12.70507812 C-6.00641876 11.54140213 -6.00844299 10.37772614 -6.01052856 9.17878723 C-6.00770874 8.12708847 -6.00488892 7.07538971 -6.00198364 5.99182129 C-6.00160662 5.07224892 -6.00122959 4.15267654 -6.00084114 3.20523834 C-5.75774487 -0.79821394 -3.46935441 0.00429984 0 0 Z " fill="#F6F6F9" transform="translate(601.875,409.8671875)"/>
<path d="M0 0 C0.68146088 -0.00095673 1.36292175 -0.00191345 2.06503296 -0.00289917 C3.50234062 -0.00357865 4.93965138 -0.00174054 6.37695312 0.00244141 C8.58470478 0.0078095 10.79225453 0.0024802 13 -0.00390625 C14.39583378 -0.00324575 15.79166744 -0.00196517 17.1875 0 C18.46189941 0.00112793 19.73629883 0.00225586 21.04931641 0.00341797 C23.9609375 0.1328125 23.9609375 0.1328125 24.9609375 1.1328125 C25.17882936 5.24858839 25.14672938 9.36746173 25.14624023 13.48852539 C25.14842484 15.55831514 25.16657241 17.62757043 25.18554688 19.69726562 C25.18748047 20.99470703 25.18941406 22.29214844 25.19140625 23.62890625 C25.19551514 24.82700928 25.19962402 26.0251123 25.20385742 27.25952148 C24.9609375 30.1328125 24.9609375 30.1328125 22.9609375 32.1328125 C19.91992188 32.39160156 19.91992188 32.39160156 16.0546875 32.3984375 C15.03393127 32.40130768 15.03393127 32.40130768 13.99255371 32.40423584 C12.55346304 32.40559713 11.11436006 32.40190455 9.67529297 32.39355469 C7.46944663 32.38285378 5.26441469 32.39345122 3.05859375 32.40625 C1.66145653 32.40492839 0.26431982 32.40236598 -1.1328125 32.3984375 C-2.40833984 32.39618164 -3.68386719 32.39392578 -4.99804688 32.39160156 C-8.0390625 32.1328125 -8.0390625 32.1328125 -10.0390625 30.1328125 C-10.26611328 27.24365234 -10.26611328 27.24365234 -10.234375 23.59375 C-10.22470703 21.64082031 -10.22470703 21.64082031 -10.21484375 19.6484375 C-10.19813179 18.26822655 -10.18120189 16.88801821 -10.1640625 15.5078125 C-10.15403256 14.11979798 -10.14490673 12.73177661 -10.13671875 11.34375 C-10.11308113 7.93993224 -10.08013117 4.53645744 -10.0390625 1.1328125 C-6.51766334 -0.04098722 -3.71490524 0.00328213 0 0 Z " fill="#FD0001" transform="translate(508.0390625,658.8671875)"/>
<path d="M0 0 C7.59 0 15.18 0 23 0 C24.70913373 3.41826747 24.18458479 7.23354763 24.1875 11 C24.19974609 11.83273437 24.21199219 12.66546875 24.22460938 13.5234375 C24.22750977 14.71839844 24.22750977 14.71839844 24.23046875 15.9375 C24.23457764 16.66839844 24.23868652 17.39929688 24.24291992 18.15234375 C24 20 24 20 22 22 C19.75341797 22.22705078 19.75341797 22.22705078 16.9921875 22.1953125 C15.65969971 22.18781982 15.65969971 22.18781982 14.30029297 22.18017578 C13.16994629 22.16196777 12.03959961 22.14375977 10.875 22.125 C7.28625 22.08375 3.6975 22.0425 0 22 C0 14.74 0 7.48 0 0 Z " fill="#FA0002" transform="translate(596,374)"/>
<path d="M0 0 C0.66 0 1.32 0 2 0 C1.67 48.84 1.34 97.68 1 148 C0.67 148 0.34 148 0 148 C-0.33 150.31 -0.66 152.62 -1 155 C-1.33 155 -1.66 155 -2 155 C-2.04666904 135.08582936 -2.08196379 115.17166977 -2.10362434 95.25745583 C-2.11394791 86.0114624 -2.12802881 76.7655029 -2.15087891 67.51953125 C-2.17077979 59.46309365 -2.18370857 51.40668062 -2.18817699 43.35021913 C-2.19078998 39.0822606 -2.19695393 34.81437236 -2.21146011 30.54643631 C-2.22499195 26.53280998 -2.22923161 22.51928319 -2.22621536 18.50563622 C-2.22676751 17.02936831 -2.23077109 15.55309722 -2.23841095 14.07684898 C-2.2483029 12.06758379 -2.24479097 10.0582657 -2.24050903 8.04898071 C-2.24235262 6.92254969 -2.24419621 5.79611866 -2.24609566 4.63555336 C-2 2 -2 2 0 0 Z " fill="#BFBFD4" transform="translate(894,683)"/>
<path d="M0 0 C10.23 0 20.46 0 31 0 C31 0.66 31 1.32 31 2 C27.82490018 3.05836661 25.35717617 3.20243789 22.01953125 3.31640625 C20.85615234 3.35830078 19.69277344 3.40019531 18.49414062 3.44335938 C16.67172852 3.50233398 16.67172852 3.50233398 14.8125 3.5625 C13.58595703 3.60568359 12.35941406 3.64886719 11.09570312 3.69335938 C8.06391619 3.7995309 5.03204685 3.90157952 2 4 C1.34 2.68 0.68 1.36 0 0 Z " fill="#23014E" transform="translate(500,691)"/>
<path d="M0 0 C0.33 0.33 0.66 0.66 1 1 C0.94921875 3.14453125 0.94921875 3.14453125 0.6875 5.8125 C0.60886719 6.68519531 0.53023437 7.55789063 0.44921875 8.45703125 C0.00244976 10.98613225 -0.73338739 12.78213548 -2 15 C-4.00993705 11.98509443 -4.72623341 9.7850073 -5.625 6.3125 C-5.88539063 5.31863281 -6.14578125 4.32476563 -6.4140625 3.30078125 C-6.60742188 2.54152344 -6.80078125 1.78226563 -7 1 C-4.51588385 -0.24205807 -2.74800896 -0.14092354 0 0 Z " fill="#080860" transform="translate(240,840)"/>
<path d="M0 0 C2.46082053 2.46082053 2.80018433 4.55377307 3.171875 7.9609375 C3 10 3 10 0.6875 12.9375 C-2 15 -2 15 -4 16 C-3.39891424 10.34979382 -1.92471317 5.33835539 0 0 Z " fill="#0A0A60" transform="translate(720,739)"/>
<path d="M0 0 C7.92 0 15.84 0 24 0 C24.33 7.92 24.66 15.84 25 24 C24.34 24.33 23.68 24.66 23 25 C20.875 24.0625 20.875 24.0625 19 23 C19.99 22.34 20.98 21.68 22 21 C22.41527124 18.87305335 22.41527124 18.87305335 22.29296875 16.4296875 C22.28547607 15.62257324 22.2779834 14.81545898 22.27026367 13.98388672 C22.24295166 12.9579541 22.21563965 11.93202148 22.1875 10.875 C22.125625 7.61625 22.06375 4.3575 22 1 C14.74 1 7.48 1 0 1 C0 0.67 0 0.34 0 0 Z " fill="#2E0147" transform="translate(597,373)"/>
<path d="M0 0 C0.66 0.33 1.32 0.66 2 1 C2.19392201 6.52677733 1.7479503 10.75614911 0 16 C-1.32 16 -2.64 16 -4 16 C-2.84941444 10.60204011 -1.57578241 5.29012667 0 0 Z " fill="#131269" transform="translate(693,830)"/>
<path d="M0 0 C2.96175123 0.61277612 4.38058783 1.25372522 7 3 C9.62531524 3.16713569 9.62531524 3.16713569 12 3 C12 3.99 12 4.98 12 6 C12.99 6.33 13.98 6.66 15 7 C13.02 7.99 13.02 7.99 11 9 C9.53699018 8.06981474 8.07974421 7.13055973 6.625 6.1875 C5.81289063 5.66542969 5.00078125 5.14335938 4.1640625 4.60546875 C2 3 2 3 0 0 Z " fill="#0B0B60" transform="translate(937,862)"/>
<path d="M0 0 C0.66 0.33 1.32 0.66 2 1 C0.84941444 6.39795989 -0.42421759 11.70987333 -2 17 C-4 15 -4 15 -4.08203125 12.5390625 C-3.99308594 11.57742188 -3.90414062 10.61578125 -3.8125 9.625 C-3.73644531 8.66851563 -3.66039062 7.71203125 -3.58203125 6.7265625 C-2.9499278 3.76543361 -1.97984122 2.25200268 0 0 Z " fill="#0F0E65" transform="translate(677,776)"/>
<path d="M0 0 C0.66 0.99 1.32 1.98 2 3 C1.26737735 6.00375288 0.59514738 7.54372034 -1.875 9.4375 C-4 10 -4 10 -6.25 9.125 C-6.8275 8.75375 -7.405 8.3825 -8 8 C-6.50260417 6.79557292 -5.00520833 5.59114583 -3.5078125 4.38671875 C-1.74707893 2.87729455 -1.74707893 2.87729455 0 0 Z " fill="#0F0F64" transform="translate(1038,875)"/>
<path d="M0 0 C1.18771723 3.42943519 0.80226223 5.37784675 -0.4375 8.75 C-0.72496094 9.54921875 -1.01242187 10.3484375 -1.30859375 11.171875 C-1.53675781 11.77515625 -1.76492188 12.3784375 -2 13 C-4.17282078 9.74076883 -4.76261647 7.87726431 -5 4 C-2.78947368 0 -2.78947368 0 0 0 Z " fill="#0C0B64" transform="translate(787,843)"/>
<path d="M0 0 C0.99 0.33 1.98 0.66 3 1 C1.68 5.95 0.36 10.9 -1 16 C-1.66 15.34 -2.32 14.68 -3 14 C-2.6875 11.625 -2.6875 11.625 -2 9 C-1.835 8.34 -1.67 7.68 -1.5 7 C-1.335 6.34 -1.17 5.68 -1 5 C-0.65939189 3.33480481 -0.32441604 1.66842534 0 0 Z " fill="#100E63" transform="translate(658,840)"/>
<path d="M0 0 C1.58206057 0.00667536 3.16410534 0.0186375 4.74609375 0.03515625 C5.55240234 0.03966797 6.35871094 0.04417969 7.18945312 0.04882812 C9.18753131 0.06065107 11.18557158 0.07858711 13.18359375 0.09765625 C13.18359375 0.42765625 13.18359375 0.75765625 13.18359375 1.09765625 C7.90359375 1.75765625 2.62359375 2.41765625 -2.81640625 3.09765625 C-2.81640625 3.75765625 -2.81640625 4.41765625 -2.81640625 5.09765625 C-4.13640625 5.42765625 -5.45640625 5.75765625 -6.81640625 6.09765625 C-4.51559518 0.11554747 -4.51559518 0.11554747 0 0 Z " fill="#D7D9E5" transform="translate(838.81640625,682.90234375)"/>
<path d="M0 0 C7.57142857 4.14285714 7.57142857 4.14285714 10 7 C7.8125 7.8125 7.8125 7.8125 5 8 C2.1875 5.75 2.1875 5.75 0 3 C0 2.01 0 1.02 0 0 Z " fill="#111266" transform="translate(577,573)"/>
<path d="M0 0 C1.84851083 2.77276624 2.5205764 4.39992766 3.25 7.5625 C3.44078125 8.34753906 3.6315625 9.13257813 3.828125 9.94140625 C3.88484375 10.62074219 3.9415625 11.30007813 4 12 C3.34 12.66 2.68 13.32 2 14 C2 13.01 2 12.02 2 11 C1.01 11.33 0.02 11.66 -1 12 C-1.02698189 10.37509046 -1.04638757 8.75005367 -1.0625 7.125 C-1.07410156 6.22007812 -1.08570313 5.31515625 -1.09765625 4.3828125 C-1 2 -1 2 0 0 Z " fill="#19196C" transform="translate(611,803)"/>
<path d="M0 0 C2.83022097 3.99560608 1.76210446 7.42737323 1 12 C-0.32 12.33 -1.64 12.66 -3 13 C-2.68991116 11.39536551 -2.37683713 9.79130769 -2.0625 8.1875 C-1.88847656 7.29417969 -1.71445312 6.40085937 -1.53515625 5.48046875 C-1 3 -1 3 0 0 Z " fill="#1A1A6B" transform="translate(811,865)"/>
<path d="M0 0 C1.32 0 2.64 0 4 0 C3.25 7.625 3.25 7.625 1 11 C0.63743142 9.5437328 0.28520207 8.08488815 -0.0625 6.625 C-0.35833984 5.40683594 -0.35833984 5.40683594 -0.66015625 4.1640625 C-1 2 -1 2 0 0 Z " fill="#090961" transform="translate(203,728)"/>
<path d="M0 0 C0.99 0 1.98 0 3 0 C3.33 2.64 3.66 5.28 4 8 C3.01 8.66 2.02 9.32 1 10 C0.63883954 8.5225254 0.28624952 7.04295325 -0.0625 5.5625 C-0.25972656 4.73878906 -0.45695312 3.91507813 -0.66015625 3.06640625 C-0.82837891 2.04353516 -0.82837891 2.04353516 -1 1 C-0.67 0.67 -0.34 0.34 0 0 Z " fill="#0F0E67" transform="translate(322,696)"/>
<path d="M0 0 C1.32 0 2.64 0 4 0 C4.22162329 1.62324086 4.42689803 3.248721 4.625 4.875 C4.74101562 5.77992188 4.85703125 6.68484375 4.9765625 7.6171875 C4.98429688 8.40351562 4.99203125 9.18984375 5 10 C4.34 10.66 3.68 11.32 3 12 C2.01 8.04 1.02 4.08 0 0 Z " fill="#0A0862" transform="translate(194,702)"/>
<path d="M0 0 C5.52631579 -0.36842105 5.52631579 -0.36842105 7.6875 1.3125 C8.120625 1.869375 8.55375 2.42625 9 3 C9.556875 3.556875 10.11375 4.11375 10.6875 4.6875 C11.3371875 5.3371875 11.3371875 5.3371875 12 6 C11.34 6.66 10.68 7.32 10 8 C8.33055479 6.85821872 6.6645052 5.71147095 5 4.5625 C4.071875 3.92441406 3.14375 3.28632812 2.1875 2.62890625 C1.465625 2.09136719 0.74375 1.55382812 0 1 C0 0.67 0 0.34 0 0 Z " fill="#19186C" transform="translate(552,544)"/>
<path d="M0 0 C2.64 1.65 5.28 3.3 8 5 C6 7 6 7 3.375 7.125 C2.59125 7.08375 1.8075 7.0425 1 7 C-0.0625 5.1875 -0.0625 5.1875 -1 3 C-0.67 2.01 -0.34 1.02 0 0 Z " fill="#0B0A61" transform="translate(618,329)"/>
<path d="M0 0 C1.5994614 3.19892281 2.42595236 5.35462576 3.125 8.75 C3.29257812 9.54921875 3.46015625 10.3484375 3.6328125 11.171875 C3.81457031 12.07679688 3.81457031 12.07679688 4 13 C2.02 12.01 0.04 11.02 -2 10 C-1.34 6.7 -0.68 3.4 0 0 Z " fill="#151566" transform="translate(747,829)"/>
<path d="M0 0 C2.475 0.495 2.475 0.495 5 1 C5 6.94 5 12.88 5 19 C4.67 19 4.34 19 4 19 C4 14.05 4 9.1 4 4 C2.68 4 1.36 4 0 4 C0 2.68 0 1.36 0 0 Z " fill="#F40109" transform="translate(498,660)"/>
<path d="M0 0 C0.66 0.33 1.32 0.66 2 1 C1.34 3.97 0.68 6.94 0 10 C-0.99 9.34 -1.98 8.68 -3 8 C-2.25 2.25 -2.25 2.25 0 0 Z " fill="#100F67" transform="translate(389,768)"/>
<path d="M0 0 C2 3 2 3 1.625 5.0625 C1.41875 5.701875 1.2125 6.34125 1 7 C1 7.66 1 8.32 1 9 C-0.5 10.625 -0.5 10.625 -2 12 C-2.66 11.67 -3.32 11.34 -4 11 C-3.5247412 9.35303396 -3.04468109 7.70745272 -2.5625 6.0625 C-2.29566406 5.14597656 -2.02882813 4.22945312 -1.75390625 3.28515625 C-1 1 -1 1 0 0 Z " fill="#161568" transform="translate(805,888)"/>
<path d="M0 0 C0.66 0 1.32 0 2 0 C2.33 1.98 2.66 3.96 3 6 C2.01 6 1.02 6 0 6 C-0.12375 6.804375 -0.2475 7.60875 -0.375 8.4375 C-0.58125 9.283125 -0.7875 10.12875 -1 11 C-1.99 11.495 -1.99 11.495 -3 12 C-2.01 8.04 -1.02 4.08 0 0 Z " fill="#292875" transform="translate(301,739)"/>
<path d="M0 0 C1.65 0.33 3.3 0.66 5 1 C5.33 1.99 5.66 2.98 6 4 C6.66 4 7.32 4 8 4 C7.67 4.99 7.34 5.98 7 7 C4.36 5.35 1.72 3.7 -1 2 C-0.67 1.34 -0.34 0.68 0 0 Z " fill="#EEEDF3" transform="translate(670,363)"/>
<path d="M0 0 C0 0.66 0 1.32 0 2 C-1.78398614 3.28006797 -3.62853906 4.47660351 -5.5 5.625 C-7.03140625 6.57246094 -7.03140625 6.57246094 -8.59375 7.5390625 C-9.3878125 8.02117187 -10.181875 8.50328125 -11 9 C-11 8.01 -11 7.02 -11 6 C-10.01 6 -9.02 6 -8 6 C-8 5.01 -8 4.02 -8 3 C-2.25 0 -2.25 0 0 0 Z " fill="#111160" transform="translate(553,347)"/>
<path d="M0 0 C0 0.99 0 1.98 0 3 C-3.11257569 3 -5.10765685 2.82638376 -8 2 C-8 2.66 -8 3.32 -8 4 C-8.99 3.67 -9.98 3.34 -11 3 C-10 1 -10 1 -6.625 -0.1875 C-3 -1 -3 -1 0 0 Z " fill="#14136B" transform="translate(1008,897)"/>
<path d="M0 0 C2.00293347 3.00440021 2.49271626 4.70993945 3.125 8.1875 C3.37636719 9.53908203 3.37636719 9.53908203 3.6328125 10.91796875 C3.75398437 11.60503906 3.87515625 12.29210937 4 13 C3.34 13 2.68 13 2 13 C2 12.01 2 11.02 2 10 C1.34 10 0.68 10 0 10 C0 6.7 0 3.4 0 0 Z " fill="#201F6E" transform="translate(635,885)"/>
<path d="M0 0 C1.80330533 3.60661066 2.46599103 6.08393425 3 10 C1.68 10.33 0.36 10.66 -1 11 C-0.67 7.37 -0.34 3.74 0 0 Z " fill="#E5E6EC" transform="translate(189,685)"/>
<path d="M0 0 C1.67542976 0.28604898 3.34385343 0.61781233 5 1 C3.35 2.65 1.7 4.3 0 6 C-0.99 5.67 -1.98 5.34 -3 5 C-1.125 1.125 -1.125 1.125 0 0 Z " fill="#0E0C65" transform="translate(653,546)"/>
<path d="M0 0 C0.99 0 1.98 0 3 0 C3 2.31 3 4.62 3 7 C1.35 7.66 -0.3 8.32 -2 9 C-1.34 6.03 -0.68 3.06 0 0 Z " fill="#16156C" transform="translate(825,817)"/>
<path d="M0 0 C0.33 0 0.66 0 1 0 C1 2.64 1 5.28 1 8 C-0.98 8.99 -0.98 8.99 -3 10 C-2.69201674 8.51988629 -2.378482 7.04092675 -2.0625 5.5625 C-1.88847656 4.73878906 -1.71445312 3.91507813 -1.53515625 3.06640625 C-1 1 -1 1 0 0 Z " fill="#161669" transform="translate(846,748)"/>
<path d="M0 0 C0.99 0.33 1.98 0.66 3 1 C2.34 3.97 1.68 6.94 1 10 C0.34 9.67 -0.32 9.34 -1 9 C-0.67 6.03 -0.34 3.06 0 0 Z " fill="#0C0B64" transform="translate(685,744)"/>
<path d="M0 0 C0.99 0.33 1.98 0.66 3 1 C2.34 3.97 1.68 6.94 1 10 C0.34 9.67 -0.32 9.34 -1 9 C-0.67 6.03 -0.34 3.06 0 0 Z " fill="#0C0B64" transform="translate(397,736)"/>
<path d="M0 0 C2.97 0.495 2.97 0.495 6 1 C6.33 2.65 6.66 4.3 7 6 C4.50638429 4.79618552 2.31856917 3.54571278 0 2 C0 1.34 0 0.68 0 0 Z " fill="#0B0B60" transform="translate(577,560)"/>
<path d="M0 0 C0.33 0.99 0.66 1.98 1 3 C-3.75 7 -3.75 7 -6 7 C-5.8125 5.1875 -5.8125 5.1875 -5 3 C-2.4375 1.25 -2.4375 1.25 0 0 Z " fill="#121266" transform="translate(589,334)"/>
<path d="M0 0 C-3.87671106 2.67289025 -7.79267603 2.01875653 -12.25 1.625 C-12.99507813 1.56828125 -13.74015625 1.5115625 -14.5078125 1.453125 C-16.33935108 1.31223742 -18.16981352 1.15748116 -20 1 C-20 0.67 -20 0.34 -20 0 C-17.41703983 -0.19522373 -14.83395921 -0.38144403 -12.25 -0.5625 C-11.52039063 -0.61857422 -10.79078125 -0.67464844 -10.0390625 -0.73242188 C-6.45046349 -0.97709908 -3.44972775 -0.99666259 0 0 Z " fill="#F5F8F3" transform="translate(316,684)"/>
<path d="M0 0 C2 4 2 4 1.125 6.75 C0.75375 7.4925 0.3825 8.235 0 9 C-0.66 9 -1.32 9 -2 9 C-1.34 6.03 -0.68 3.06 0 0 Z M2 0 C3 4 3 4 3 4 Z " fill="#161569" transform="translate(681,871)"/>
<path d="M0 0 C0.99 0.33 1.98 0.66 3 1 C2.34 4.3 1.68 7.6 1 11 C0.34 11 -0.32 11 -1 11 C-1.125 3.375 -1.125 3.375 0 0 Z " fill="#12116D" transform="translate(277,821)"/>
<path d="M0 0 C0.66 0 1.32 0 2 0 C2 0.66 2 1.32 2 2 C2.66 2 3.32 2 4 2 C3.979375 2.94875 3.95875 3.8975 3.9375 4.875 C3.77448174 7.90666283 3.77448174 7.90666283 5 10 C4.01 10 3.02 10 2 10 C1.34 6.7 0.68 3.4 0 0 Z " fill="#13126A" transform="translate(354,814)"/>
<path d="M0 0 C2.08954032 4.17908064 2.16552619 4.80410573 1 9 C0.01 9.33 -0.98 9.66 -2 10 C-1.34 6.7 -0.68 3.4 0 0 Z " fill="#202071" transform="translate(699,809)"/>
<path d="M0 0 C0.33 0 0.66 0 1 0 C0.67 2.97 0.34 5.94 0 9 C-0.66 9 -1.32 9 -2 9 C-2.90870687 6.45562075 -3.14745938 5.36864845 -2.125 2.8125 C-1 1 -1 1 0 0 Z " fill="#11116B" transform="translate(285,799)"/>
<path d="M0 0 C0.66 0.33 1.32 0.66 2 1 C4.09821215 0.60061233 4.09821215 0.60061233 6 0 C6 0.66 6 1.32 6 2 C3.69 3.32 1.38 4.64 -1 6 C-1.33 4.68 -1.66 3.36 -2 2 C-1.34 2 -0.68 2 0 2 C0 1.34 0 0.68 0 0 Z " fill="#121263" transform="translate(627,564)"/>
<path d="M0 0 C0.66 0 1.32 0 2 0 C2.66 2.97 3.32 5.94 4 9 C3.01 8.67 2.02 8.34 1 8 C1.33 7.34 1.66 6.68 2 6 C1.34 6 0.68 6 0 6 C0 4.02 0 2.04 0 0 Z " fill="#19176B" transform="translate(339,869)"/>
<path d="M0 0 C0.66 0.33 1.32 0.66 2 1 C2 3.31 2 5.62 2 8 C0.68 8.33 -0.64 8.66 -2 9 C-1.34 6.03 -0.68 3.06 0 0 Z " fill="#E0E1EA" transform="translate(266,755)"/>
<path d="M0 0 C0.66 0 1.32 0 2 0 C2.95685425 4.21015871 3.13181214 6.25712373 1 10 C0.63883954 8.5225254 0.28624952 7.04295325 -0.0625 5.5625 C-0.25972656 4.73878906 -0.45695312 3.91507813 -0.66015625 3.06640625 C-0.82837891 2.04353516 -0.82837891 2.04353516 -1 1 C-0.67 0.67 -0.34 0.34 0 0 Z " fill="#0D0B64" transform="translate(340,760)"/>
<path d="M0 0 C2.35953094 2.35953094 2.49141413 3.77895617 3 7 C2.01 6.67 1.02 6.34 0 6 C-0.33 6.99 -0.66 7.98 -1 9 C-2.0326802 6.21176345 -2.04509293 5.1322726 -1.0625 2.25 C-0.711875 1.5075 -0.36125 0.765 0 0 Z " fill="#201F6E" transform="translate(720,739)"/>
<path d="M0 0 C1.2065625 0.0309375 1.2065625 0.0309375 2.4375 0.0625 C1.19203595 3.79889216 -0.19654953 4.25006513 -3.5625 6.0625 C-3.605221 4.39638095 -3.60313832 2.72867115 -3.5625 1.0625 C-2.5625 0.0625 -2.5625 0.0625 0 0 Z " fill="#EFF1F2" transform="translate(581.5625,683.9375)"/>
<path d="M0 0 C0.99 0.99 1.98 1.98 3 3 C2.1875 4.9375 2.1875 4.9375 1 7 C0.01 7.33 -0.98 7.66 -2 8 C-2.20086443 4.28400809 -2.1519437 3.22791555 0 0 Z " fill="#090965" transform="translate(675,529)"/>
<path d="M0 0 C-1.23165443 3.69496329 -2.88224921 4.35395945 -6.2109375 6.1484375 C-8.1138894 7.05420937 -9.91585276 7.66653644 -12 8 C-10.33333333 6.66666667 -8.66666667 5.33333333 -7 4 C-5.6696875 2.88625 -5.6696875 2.88625 -4.3125 1.75 C-2 0 -2 0 0 0 Z " fill="#DCDFEC" transform="translate(553,349)"/>
<path d="M0 0 C0.99 0.99 1.98 1.98 3 3 C2.0925 3.28875 1.185 3.5775 0.25 3.875 C-2.32202908 4.76531776 -4.61346766 5.71494413 -7 7 C-5.66667905 3.00003714 -3.5042173 2.16217663 0 0 Z " fill="#141369" transform="translate(580,340)"/>
<path d="M0 0 C0.99 0 1.98 0 3 0 C3 2.31 3 4.62 3 7 C1.68 6.67 0.36 6.34 -1 6 C-0.67 4.02 -0.34 2.04 0 0 Z " fill="#101068" transform="translate(257,889)"/>
<path d="M0 0 C0.99 0.495 0.99 0.495 2 1 C1.01 1.495 1.01 1.495 0 2 C0 1.34 0 0.68 0 0 Z M-5 2 C-3.35 2 -1.7 2 0 2 C0 3.32 0 4.64 0 6 C-1.32 6.33 -2.64 6.66 -4 7 C-4.33 5.35 -4.66 3.7 -5 2 Z " fill="#0C0B63" transform="translate(742,686)"/>
<path d="M0 0 C0.33 1.32 0.66 2.64 1 4 C-0.75 5.0625 -0.75 5.0625 -3 6 C-4.32 5.67 -5.64 5.34 -7 5 C-4.69 3.35 -2.38 1.7 0 0 Z " fill="#19186B" transform="translate(641,570)"/>
<path d="M0 0 C1.32 0.99 2.64 1.98 4 3 C1.36 3.66 -1.28 4.32 -4 5 C-4.33 4.34 -4.66 3.68 -5 3 C-3.35 2.01 -1.7 1.02 0 0 Z " fill="#0E0D64" transform="translate(559,355)"/>
<path d="M0 0 C0.66 0 1.32 0 2 0 C3.625 2 3.625 2 5 4 C4.67 4.66 4.34 5.32 4 6 C2.68 5.67 1.36 5.34 0 5 C0 3.33333333 0 1.66666667 0 0 Z " fill="#0D0C63" transform="translate(347,897)"/>
<path d="M0 0 C0.99 0 1.98 0 3 0 C2.67 2.31 2.34 4.62 2 7 C1.01 7 0.02 7 -1 7 C-0.67 4.69 -0.34 2.38 0 0 Z " fill="#18166A" transform="translate(388,880)"/>
<path d="M0 0 C-0.66 2.64 -1.32 5.28 -2 8 C-2.66 7.67 -3.32 7.34 -4 7 C-4.625 4.4375 -4.625 4.4375 -5 2 C-2 0 -2 0 0 0 Z " fill="#1F1C6C" transform="translate(369,848)"/>
<path d="M0 0 C0.33 0 0.66 0 1 0 C1.66 3.63 2.32 7.26 3 11 C2.34 11 1.68 11 1 11 C-0.98362069 8.08291076 -0.9876191 6.87619096 -0.625 3.25 C-0.41875 2.1775 -0.2125 1.105 0 0 Z " fill="#D5D7E6" transform="translate(922,832)"/>
<path d="M0 0 C0.93065133 2.60582371 1.14917407 3.64198224 0.0625 6.25 C-0.4634375 7.11625 -0.4634375 7.11625 -1 8 C-1.66 7.67 -2.32 7.34 -3 7 C-3.625 4.4375 -3.625 4.4375 -4 2 C-3.01 2.33 -2.02 2.66 -1 3 C-0.67 2.01 -0.34 1.02 0 0 Z " fill="#0B0968" transform="translate(646,804)"/>
<path d="M0 0 C0.33 0 0.66 0 1 0 C2.23076923 5.41538462 2.23076923 5.41538462 1.0625 8.375 C0.711875 8.91125 0.36125 9.4475 0 10 C-0.66 10 -1.32 10 -2 10 C-1.34 6.7 -0.68 3.4 0 0 Z " fill="#262571" transform="translate(829,803)"/>
<path d="M0 0 C1.85776765 3.13498292 2.20140476 5.37471432 2 9 C1.34 9 0.68 9 0 9 C-0.66 6.36 -1.32 3.72 -2 1 C-1.34 0.67 -0.68 0.34 0 0 Z " fill="#F2F5F5" transform="translate(613,801)"/>
<path d="M0 0 C0.66 0.66 1.32 1.32 2 2 C1.63723355 4.82957829 0.90305236 7.29084291 0 10 C-0.66 10 -1.32 10 -2 10 C-1.34 6.7 -0.68 3.4 0 0 Z " fill="#DCDEEA" transform="translate(821,726)"/>
<path d="M0 0 C0.66 0.33 1.32 0.66 2 1 C1.67 1.66 1.34 2.32 1 3 C1 4.32 1 5.64 1 7 C0.01 7.33 -0.98 7.66 -2 8 C-2.125 5.125 -2.125 5.125 -2 2 C-1.34 1.34 -0.68 0.68 0 0 Z " fill="#F6F6F6" transform="translate(501,712)"/>
<path d="M0 0 C0.33 0 0.66 0 1 0 C1.66 2.97 2.32 5.94 3 9 C2.34 9 1.68 9 1 9 C1 8.34 1 7.68 1 7 C0.34 7 -0.32 7 -1 7 C-1.04254356 5.00045254 -1.04080783 2.99958364 -1 1 C-0.67 0.67 -0.34 0.34 0 0 Z " fill="#E6E9F0" transform="translate(610,694)"/>
<path d="M0 0 C0 1.66666667 0 3.33333333 0 5 C-2.31 5.33 -4.62 5.66 -7 6 C-4.74259377 3.66475218 -2.7194239 1.81294927 0 0 Z " fill="#131167" transform="translate(670,550)"/>
<path d="M0 0 C0.33 1.32 0.66 2.64 1 4 C0.01 4.495 0.01 4.495 -1 5 C-2.65 3.68 -4.3 2.36 -6 1 C-4 0 -4 0 0 0 Z " fill="#131169" transform="translate(623,316)"/>
<path d="M0 0 C1.32 0.66 2.64 1.32 4 2 C3.67 3.32 3.34 4.64 3 6 C1.68 4.68 0.36 3.36 -1 2 C-0.67 1.34 -0.34 0.68 0 0 Z " fill="#EBEBF3" transform="translate(912,875)"/>
<path d="M0 0 C2 3 2 3 1.625 6.1875 C1.41875 7.115625 1.2125 8.04375 1 9 C0.01 9 -0.98 9 -2 9 C-1.34 6.03 -0.68 3.06 0 0 Z " fill="#D4D6E4" transform="translate(381,802)"/>
<path d="M0 0 C0.99 0.33 1.98 0.66 3 1 C1.375 6.75 1.375 6.75 -2 9 C-1.34 6.03 -0.68 3.06 0 0 Z " fill="#DBDDE8" transform="translate(826,709)"/>
<path d="M0 0 C1.98 0.99 3.96 1.98 6 3 C5.01 4.485 5.01 4.485 4 6 C2.35 5.67 0.7 5.34 -1 5 C-0.34 4.34 0.32 3.68 1 3 C0.67 2.01 0.34 1.02 0 0 Z " fill="#0A0B61" transform="translate(594,585)"/>
<path d="M0 0 C2 4 2 4 1.125 7.75 C0.75375 8.8225 0.3825 9.895 0 11 C-0.66 10.67 -1.32 10.34 -2 10 C-1.34 6.7 -0.68 3.4 0 0 Z " fill="#D8DAE9" transform="translate(810,765)"/>
<path d="M0 0 C0.99 0.33 1.98 0.66 3 1 C3.33 2.65 3.66 4.3 4 6 C3.01 6.33 2.02 6.66 1 7 C0.67 4.69 0.34 2.38 0 0 Z " fill="#161665" transform="translate(302,745)"/>
<path d="M0 0 C0.66 0 1.32 0 2 0 C2.33 2.31 2.66 4.62 3 7 C2.01 6.67 1.02 6.34 0 6 C-0.38218767 4.34385343 -0.71395102 2.67542976 -1 1 C-0.67 0.67 -0.34 0.34 0 0 Z " fill="#090864" transform="translate(745,712)"/>
<path d="M0 0 C0.99 1.32 1.98 2.64 3 4 C1.35 5.65 -0.3 7.3 -2 9 C-1.34 6.03 -0.68 3.06 0 0 Z " fill="#1F1F6E" transform="translate(857,708)"/>
<path d="M0 0 C0 0.99 0 1.98 0 3 C-1.98 3.99 -1.98 3.99 -4 5 C-4.33 3.68 -4.66 2.36 -5 1 C-3 0 -3 0 0 0 Z " fill="#111265" transform="translate(623,570)"/>
<path d="M0 0 C1.32 0.66 2.64 1.32 4 2 C3.34 3.32 2.68 4.64 2 6 C1.01 5.34 0.02 4.68 -1 4 C-0.67 2.68 -0.34 1.36 0 0 Z " fill="#090863" transform="translate(545,551)"/>
<path d="M0 0 C0.66 0.33 1.32 0.66 2 1 C1.67 1.66 1.34 2.32 1 3 C1.66 3 2.32 3 3 3 C3 3.99 3 4.98 3 6 C0.53199953 4.84826645 -1.04783565 3.95216435 -3 2 C-2.01 1.34 -1.02 0.68 0 0 Z " fill="#12106B" transform="translate(629,321)"/>
</svg>
